%TF.GenerationSoftware,KiCad,Pcbnew,7.0.2-6a45011f42~172~ubuntu22.04.1*%
%TF.CreationDate,2023-05-17T15:22:17+02:00*%
%TF.ProjectId,midi,6d696469-2e6b-4696-9361-645f70636258,rev?*%
%TF.SameCoordinates,Original*%
%TF.FileFunction,Legend,Top*%
%TF.FilePolarity,Positive*%
%FSLAX46Y46*%
G04 Gerber Fmt 4.6, Leading zero omitted, Abs format (unit mm)*
G04 Created by KiCad (PCBNEW 7.0.2-6a45011f42~172~ubuntu22.04.1) date 2023-05-17 15:22:17*
%MOMM*%
%LPD*%
G01*
G04 APERTURE LIST*
%ADD10C,0.150000*%
%ADD11C,0.010000*%
%ADD12C,0.800000*%
%ADD13C,0.300000*%
%ADD14C,0.100000*%
%ADD15C,0.127000*%
%ADD16C,0.200000*%
%ADD17C,0.120000*%
%ADD18C,0.500000*%
G04 APERTURE END LIST*
D10*
X0Y-95000000D02*
G75*
G03*
X5000000Y-100000000I5000000J0D01*
G01*
X95000000Y-100000000D02*
G75*
G03*
X100000000Y-95000000I0J5000000D01*
G01*
X100000000Y-5000000D02*
G75*
G03*
X95000000Y0I-5000000J0D01*
G01*
X5000000Y0D02*
G75*
G03*
X0Y-5000000I0J-5000000D01*
G01*
D11*
X84510000Y-68300000D02*
X99180000Y-68300000D01*
X99180000Y-74030000D01*
X84510000Y-74030000D01*
X84510000Y-68300000D01*
D10*
X26670000Y-53340000D02*
X31770000Y-53340000D01*
X31770000Y-55900000D01*
X26670000Y-55900000D01*
X26670000Y-53340000D01*
G36*
X26670000Y-53340000D02*
G01*
X31770000Y-53340000D01*
X31770000Y-55900000D01*
X26670000Y-55900000D01*
X26670000Y-53340000D01*
G37*
X21162260Y-15939712D02*
X37056897Y-15939712D01*
X37056897Y-31834349D01*
X21162260Y-31834349D01*
X21162260Y-15939712D01*
G36*
X21162260Y-15939712D02*
G01*
X37056897Y-15939712D01*
X37056897Y-31834349D01*
X21162260Y-31834349D01*
X21162260Y-15939712D01*
G37*
D11*
X15074070Y-63694070D02*
X31937964Y-63694070D01*
X31937964Y-69297964D01*
X15074070Y-69297964D01*
X15074070Y-63694070D01*
D12*
X70295714Y-13290476D02*
X71057619Y-13290476D01*
X71057619Y-13290476D02*
X71438571Y-13480952D01*
X71438571Y-13480952D02*
X71819524Y-13861904D01*
X71819524Y-13861904D02*
X72010000Y-14623809D01*
X72010000Y-14623809D02*
X72010000Y-15957142D01*
X72010000Y-15957142D02*
X71819524Y-16719047D01*
X71819524Y-16719047D02*
X71438571Y-17100000D01*
X71438571Y-17100000D02*
X71057619Y-17290476D01*
X71057619Y-17290476D02*
X70295714Y-17290476D01*
X70295714Y-17290476D02*
X69914762Y-17100000D01*
X69914762Y-17100000D02*
X69533809Y-16719047D01*
X69533809Y-16719047D02*
X69343333Y-15957142D01*
X69343333Y-15957142D02*
X69343333Y-14623809D01*
X69343333Y-14623809D02*
X69533809Y-13861904D01*
X69533809Y-13861904D02*
X69914762Y-13480952D01*
X69914762Y-13480952D02*
X70295714Y-13290476D01*
X73724285Y-13290476D02*
X73724285Y-16528571D01*
X73724285Y-16528571D02*
X73914762Y-16909523D01*
X73914762Y-16909523D02*
X74105238Y-17100000D01*
X74105238Y-17100000D02*
X74486190Y-17290476D01*
X74486190Y-17290476D02*
X75248095Y-17290476D01*
X75248095Y-17290476D02*
X75629047Y-17100000D01*
X75629047Y-17100000D02*
X75819524Y-16909523D01*
X75819524Y-16909523D02*
X76010000Y-16528571D01*
X76010000Y-16528571D02*
X76010000Y-13290476D01*
X77343333Y-13290476D02*
X79629047Y-13290476D01*
X78486190Y-17290476D02*
X78486190Y-13290476D01*
D13*
X21023809Y-97755238D02*
X19880952Y-97755238D01*
X20452380Y-97755238D02*
X20452380Y-95755238D01*
X20452380Y-95755238D02*
X20261904Y-96040952D01*
X20261904Y-96040952D02*
X20071428Y-96231428D01*
X20071428Y-96231428D02*
X19880952Y-96326666D01*
X49785714Y-95755238D02*
X51023809Y-95755238D01*
X51023809Y-95755238D02*
X50357142Y-96517142D01*
X50357142Y-96517142D02*
X50642857Y-96517142D01*
X50642857Y-96517142D02*
X50833333Y-96612380D01*
X50833333Y-96612380D02*
X50928571Y-96707619D01*
X50928571Y-96707619D02*
X51023809Y-96898095D01*
X51023809Y-96898095D02*
X51023809Y-97374285D01*
X51023809Y-97374285D02*
X50928571Y-97564761D01*
X50928571Y-97564761D02*
X50833333Y-97660000D01*
X50833333Y-97660000D02*
X50642857Y-97755238D01*
X50642857Y-97755238D02*
X50071428Y-97755238D01*
X50071428Y-97755238D02*
X49880952Y-97660000D01*
X49880952Y-97660000D02*
X49785714Y-97564761D01*
X65833333Y-96421904D02*
X65833333Y-97755238D01*
X65357142Y-95660000D02*
X64880952Y-97088571D01*
X64880952Y-97088571D02*
X66119047Y-97088571D01*
D12*
X75078735Y-37719578D02*
X75078735Y-33719578D01*
X76983497Y-37719578D02*
X76983497Y-33719578D01*
X76983497Y-33719578D02*
X79269212Y-37719578D01*
X79269212Y-37719578D02*
X79269212Y-33719578D01*
D13*
X34880952Y-95945714D02*
X34976190Y-95850476D01*
X34976190Y-95850476D02*
X35166666Y-95755238D01*
X35166666Y-95755238D02*
X35642857Y-95755238D01*
X35642857Y-95755238D02*
X35833333Y-95850476D01*
X35833333Y-95850476D02*
X35928571Y-95945714D01*
X35928571Y-95945714D02*
X36023809Y-96136190D01*
X36023809Y-96136190D02*
X36023809Y-96326666D01*
X36023809Y-96326666D02*
X35928571Y-96612380D01*
X35928571Y-96612380D02*
X34785714Y-97755238D01*
X34785714Y-97755238D02*
X36023809Y-97755238D01*
D10*
X4928571Y-47035238D02*
X3976190Y-47035238D01*
X3976190Y-47035238D02*
X3880952Y-47987619D01*
X3880952Y-47987619D02*
X3976190Y-47892380D01*
X3976190Y-47892380D02*
X4166666Y-47797142D01*
X4166666Y-47797142D02*
X4642857Y-47797142D01*
X4642857Y-47797142D02*
X4833333Y-47892380D01*
X4833333Y-47892380D02*
X4928571Y-47987619D01*
X4928571Y-47987619D02*
X5023809Y-48178095D01*
X5023809Y-48178095D02*
X5023809Y-48654285D01*
X5023809Y-48654285D02*
X4928571Y-48844761D01*
X4928571Y-48844761D02*
X4833333Y-48940000D01*
X4833333Y-48940000D02*
X4642857Y-49035238D01*
X4642857Y-49035238D02*
X4166666Y-49035238D01*
X4166666Y-49035238D02*
X3976190Y-48940000D01*
X3976190Y-48940000D02*
X3880952Y-48844761D01*
X5595238Y-47035238D02*
X6261904Y-49035238D01*
X6261904Y-49035238D02*
X6928571Y-47035238D01*
D13*
X80928571Y-95755238D02*
X79976190Y-95755238D01*
X79976190Y-95755238D02*
X79880952Y-96707619D01*
X79880952Y-96707619D02*
X79976190Y-96612380D01*
X79976190Y-96612380D02*
X80166666Y-96517142D01*
X80166666Y-96517142D02*
X80642857Y-96517142D01*
X80642857Y-96517142D02*
X80833333Y-96612380D01*
X80833333Y-96612380D02*
X80928571Y-96707619D01*
X80928571Y-96707619D02*
X81023809Y-96898095D01*
X81023809Y-96898095D02*
X81023809Y-97374285D01*
X81023809Y-97374285D02*
X80928571Y-97564761D01*
X80928571Y-97564761D02*
X80833333Y-97660000D01*
X80833333Y-97660000D02*
X80642857Y-97755238D01*
X80642857Y-97755238D02*
X80166666Y-97755238D01*
X80166666Y-97755238D02*
X79976190Y-97660000D01*
X79976190Y-97660000D02*
X79880952Y-97564761D01*
D10*
%TO.C,U1*%
X18888626Y333632D02*
X18888626Y-476203D01*
X18888626Y-476203D02*
X18936263Y-571478D01*
X18936263Y-571478D02*
X18983901Y-619116D01*
X18983901Y-619116D02*
X19079175Y-666753D01*
X19079175Y-666753D02*
X19269725Y-666753D01*
X19269725Y-666753D02*
X19365000Y-619116D01*
X19365000Y-619116D02*
X19412637Y-571478D01*
X19412637Y-571478D02*
X19460275Y-476203D01*
X19460275Y-476203D02*
X19460275Y333632D01*
X20460660Y-666753D02*
X19889011Y-666753D01*
X20174836Y-666753D02*
X20174836Y333632D01*
X20174836Y333632D02*
X20079561Y190720D01*
X20079561Y190720D02*
X19984286Y95445D01*
X19984286Y95445D02*
X19889011Y47808D01*
%TO.C,R14*%
X76769523Y-27132619D02*
X76198095Y-27132619D01*
X76483809Y-27132619D02*
X76483809Y-26132619D01*
X76483809Y-26132619D02*
X76388571Y-26275476D01*
X76388571Y-26275476D02*
X76293333Y-26370714D01*
X76293333Y-26370714D02*
X76198095Y-26418333D01*
X77388571Y-26132619D02*
X77483809Y-26132619D01*
X77483809Y-26132619D02*
X77579047Y-26180238D01*
X77579047Y-26180238D02*
X77626666Y-26227857D01*
X77626666Y-26227857D02*
X77674285Y-26323095D01*
X77674285Y-26323095D02*
X77721904Y-26513571D01*
X77721904Y-26513571D02*
X77721904Y-26751666D01*
X77721904Y-26751666D02*
X77674285Y-26942142D01*
X77674285Y-26942142D02*
X77626666Y-27037380D01*
X77626666Y-27037380D02*
X77579047Y-27085000D01*
X77579047Y-27085000D02*
X77483809Y-27132619D01*
X77483809Y-27132619D02*
X77388571Y-27132619D01*
X77388571Y-27132619D02*
X77293333Y-27085000D01*
X77293333Y-27085000D02*
X77245714Y-27037380D01*
X77245714Y-27037380D02*
X77198095Y-26942142D01*
X77198095Y-26942142D02*
X77150476Y-26751666D01*
X77150476Y-26751666D02*
X77150476Y-26513571D01*
X77150476Y-26513571D02*
X77198095Y-26323095D01*
X77198095Y-26323095D02*
X77245714Y-26227857D01*
X77245714Y-26227857D02*
X77293333Y-26180238D01*
X77293333Y-26180238D02*
X77388571Y-26132619D01*
D14*
%TO.C,O1*%
X67881428Y-56917380D02*
X67690952Y-56917380D01*
X67690952Y-56917380D02*
X67595714Y-56869761D01*
X67595714Y-56869761D02*
X67500476Y-56774523D01*
X67500476Y-56774523D02*
X67452857Y-56584047D01*
X67452857Y-56584047D02*
X67452857Y-56250714D01*
X67452857Y-56250714D02*
X67500476Y-56060238D01*
X67500476Y-56060238D02*
X67595714Y-55965000D01*
X67595714Y-55965000D02*
X67690952Y-55917380D01*
X67690952Y-55917380D02*
X67881428Y-55917380D01*
X67881428Y-55917380D02*
X67976666Y-55965000D01*
X67976666Y-55965000D02*
X68071904Y-56060238D01*
X68071904Y-56060238D02*
X68119523Y-56250714D01*
X68119523Y-56250714D02*
X68119523Y-56584047D01*
X68119523Y-56584047D02*
X68071904Y-56774523D01*
X68071904Y-56774523D02*
X67976666Y-56869761D01*
X67976666Y-56869761D02*
X67881428Y-56917380D01*
X66500476Y-55917380D02*
X67071904Y-55917380D01*
X66786190Y-55917380D02*
X66786190Y-56917380D01*
X66786190Y-56917380D02*
X66881428Y-56774523D01*
X66881428Y-56774523D02*
X66976666Y-56679285D01*
X66976666Y-56679285D02*
X67071904Y-56631666D01*
D10*
%TO.C,R1*%
X84296905Y-55437857D02*
X84344524Y-55390238D01*
X84344524Y-55390238D02*
X84439762Y-55342619D01*
X84439762Y-55342619D02*
X84677857Y-55342619D01*
X84677857Y-55342619D02*
X84773095Y-55390238D01*
X84773095Y-55390238D02*
X84820714Y-55437857D01*
X84820714Y-55437857D02*
X84868333Y-55533095D01*
X84868333Y-55533095D02*
X84868333Y-55628333D01*
X84868333Y-55628333D02*
X84820714Y-55771190D01*
X84820714Y-55771190D02*
X84249286Y-56342619D01*
X84249286Y-56342619D02*
X84868333Y-56342619D01*
X85249286Y-55437857D02*
X85296905Y-55390238D01*
X85296905Y-55390238D02*
X85392143Y-55342619D01*
X85392143Y-55342619D02*
X85630238Y-55342619D01*
X85630238Y-55342619D02*
X85725476Y-55390238D01*
X85725476Y-55390238D02*
X85773095Y-55437857D01*
X85773095Y-55437857D02*
X85820714Y-55533095D01*
X85820714Y-55533095D02*
X85820714Y-55628333D01*
X85820714Y-55628333D02*
X85773095Y-55771190D01*
X85773095Y-55771190D02*
X85201667Y-56342619D01*
X85201667Y-56342619D02*
X85820714Y-56342619D01*
X86439762Y-55342619D02*
X86535000Y-55342619D01*
X86535000Y-55342619D02*
X86630238Y-55390238D01*
X86630238Y-55390238D02*
X86677857Y-55437857D01*
X86677857Y-55437857D02*
X86725476Y-55533095D01*
X86725476Y-55533095D02*
X86773095Y-55723571D01*
X86773095Y-55723571D02*
X86773095Y-55961666D01*
X86773095Y-55961666D02*
X86725476Y-56152142D01*
X86725476Y-56152142D02*
X86677857Y-56247380D01*
X86677857Y-56247380D02*
X86630238Y-56295000D01*
X86630238Y-56295000D02*
X86535000Y-56342619D01*
X86535000Y-56342619D02*
X86439762Y-56342619D01*
X86439762Y-56342619D02*
X86344524Y-56295000D01*
X86344524Y-56295000D02*
X86296905Y-56247380D01*
X86296905Y-56247380D02*
X86249286Y-56152142D01*
X86249286Y-56152142D02*
X86201667Y-55961666D01*
X86201667Y-55961666D02*
X86201667Y-55723571D01*
X86201667Y-55723571D02*
X86249286Y-55533095D01*
X86249286Y-55533095D02*
X86296905Y-55437857D01*
X86296905Y-55437857D02*
X86344524Y-55390238D01*
X86344524Y-55390238D02*
X86439762Y-55342619D01*
%TO.C,R8*%
X15671905Y-64367857D02*
X15719524Y-64320238D01*
X15719524Y-64320238D02*
X15814762Y-64272619D01*
X15814762Y-64272619D02*
X16052857Y-64272619D01*
X16052857Y-64272619D02*
X16148095Y-64320238D01*
X16148095Y-64320238D02*
X16195714Y-64367857D01*
X16195714Y-64367857D02*
X16243333Y-64463095D01*
X16243333Y-64463095D02*
X16243333Y-64558333D01*
X16243333Y-64558333D02*
X16195714Y-64701190D01*
X16195714Y-64701190D02*
X15624286Y-65272619D01*
X15624286Y-65272619D02*
X16243333Y-65272619D01*
X16624286Y-64367857D02*
X16671905Y-64320238D01*
X16671905Y-64320238D02*
X16767143Y-64272619D01*
X16767143Y-64272619D02*
X17005238Y-64272619D01*
X17005238Y-64272619D02*
X17100476Y-64320238D01*
X17100476Y-64320238D02*
X17148095Y-64367857D01*
X17148095Y-64367857D02*
X17195714Y-64463095D01*
X17195714Y-64463095D02*
X17195714Y-64558333D01*
X17195714Y-64558333D02*
X17148095Y-64701190D01*
X17148095Y-64701190D02*
X16576667Y-65272619D01*
X16576667Y-65272619D02*
X17195714Y-65272619D01*
X17814762Y-64272619D02*
X17910000Y-64272619D01*
X17910000Y-64272619D02*
X18005238Y-64320238D01*
X18005238Y-64320238D02*
X18052857Y-64367857D01*
X18052857Y-64367857D02*
X18100476Y-64463095D01*
X18100476Y-64463095D02*
X18148095Y-64653571D01*
X18148095Y-64653571D02*
X18148095Y-64891666D01*
X18148095Y-64891666D02*
X18100476Y-65082142D01*
X18100476Y-65082142D02*
X18052857Y-65177380D01*
X18052857Y-65177380D02*
X18005238Y-65225000D01*
X18005238Y-65225000D02*
X17910000Y-65272619D01*
X17910000Y-65272619D02*
X17814762Y-65272619D01*
X17814762Y-65272619D02*
X17719524Y-65225000D01*
X17719524Y-65225000D02*
X17671905Y-65177380D01*
X17671905Y-65177380D02*
X17624286Y-65082142D01*
X17624286Y-65082142D02*
X17576667Y-64891666D01*
X17576667Y-64891666D02*
X17576667Y-64653571D01*
X17576667Y-64653571D02*
X17624286Y-64463095D01*
X17624286Y-64463095D02*
X17671905Y-64367857D01*
X17671905Y-64367857D02*
X17719524Y-64320238D01*
X17719524Y-64320238D02*
X17814762Y-64272619D01*
%TO.C,R13*%
X76150476Y-19782619D02*
X76769523Y-19782619D01*
X76769523Y-19782619D02*
X76436190Y-20163571D01*
X76436190Y-20163571D02*
X76579047Y-20163571D01*
X76579047Y-20163571D02*
X76674285Y-20211190D01*
X76674285Y-20211190D02*
X76721904Y-20258809D01*
X76721904Y-20258809D02*
X76769523Y-20354047D01*
X76769523Y-20354047D02*
X76769523Y-20592142D01*
X76769523Y-20592142D02*
X76721904Y-20687380D01*
X76721904Y-20687380D02*
X76674285Y-20735000D01*
X76674285Y-20735000D02*
X76579047Y-20782619D01*
X76579047Y-20782619D02*
X76293333Y-20782619D01*
X76293333Y-20782619D02*
X76198095Y-20735000D01*
X76198095Y-20735000D02*
X76150476Y-20687380D01*
X77102857Y-19782619D02*
X77721904Y-19782619D01*
X77721904Y-19782619D02*
X77388571Y-20163571D01*
X77388571Y-20163571D02*
X77531428Y-20163571D01*
X77531428Y-20163571D02*
X77626666Y-20211190D01*
X77626666Y-20211190D02*
X77674285Y-20258809D01*
X77674285Y-20258809D02*
X77721904Y-20354047D01*
X77721904Y-20354047D02*
X77721904Y-20592142D01*
X77721904Y-20592142D02*
X77674285Y-20687380D01*
X77674285Y-20687380D02*
X77626666Y-20735000D01*
X77626666Y-20735000D02*
X77531428Y-20782619D01*
X77531428Y-20782619D02*
X77245714Y-20782619D01*
X77245714Y-20782619D02*
X77150476Y-20735000D01*
X77150476Y-20735000D02*
X77102857Y-20687380D01*
%TO.C,R2*%
X57202619Y-56165238D02*
X57202619Y-56736666D01*
X57202619Y-56450952D02*
X56202619Y-56450952D01*
X56202619Y-56450952D02*
X56345476Y-56546190D01*
X56345476Y-56546190D02*
X56440714Y-56641428D01*
X56440714Y-56641428D02*
X56488333Y-56736666D01*
X56202619Y-55546190D02*
X56202619Y-55450952D01*
X56202619Y-55450952D02*
X56250238Y-55355714D01*
X56250238Y-55355714D02*
X56297857Y-55308095D01*
X56297857Y-55308095D02*
X56393095Y-55260476D01*
X56393095Y-55260476D02*
X56583571Y-55212857D01*
X56583571Y-55212857D02*
X56821666Y-55212857D01*
X56821666Y-55212857D02*
X57012142Y-55260476D01*
X57012142Y-55260476D02*
X57107380Y-55308095D01*
X57107380Y-55308095D02*
X57155000Y-55355714D01*
X57155000Y-55355714D02*
X57202619Y-55450952D01*
X57202619Y-55450952D02*
X57202619Y-55546190D01*
X57202619Y-55546190D02*
X57155000Y-55641428D01*
X57155000Y-55641428D02*
X57107380Y-55689047D01*
X57107380Y-55689047D02*
X57012142Y-55736666D01*
X57012142Y-55736666D02*
X56821666Y-55784285D01*
X56821666Y-55784285D02*
X56583571Y-55784285D01*
X56583571Y-55784285D02*
X56393095Y-55736666D01*
X56393095Y-55736666D02*
X56297857Y-55689047D01*
X56297857Y-55689047D02*
X56250238Y-55641428D01*
X56250238Y-55641428D02*
X56202619Y-55546190D01*
X57202619Y-54784285D02*
X56202619Y-54784285D01*
X56821666Y-54689047D02*
X57202619Y-54403333D01*
X56535952Y-54403333D02*
X56916904Y-54784285D01*
%TO.C,R3*%
X85704761Y-69907619D02*
X85133333Y-69907619D01*
X85419047Y-69907619D02*
X85419047Y-68907619D01*
X85419047Y-68907619D02*
X85323809Y-69050476D01*
X85323809Y-69050476D02*
X85228571Y-69145714D01*
X85228571Y-69145714D02*
X85133333Y-69193333D01*
X86323809Y-68907619D02*
X86419047Y-68907619D01*
X86419047Y-68907619D02*
X86514285Y-68955238D01*
X86514285Y-68955238D02*
X86561904Y-69002857D01*
X86561904Y-69002857D02*
X86609523Y-69098095D01*
X86609523Y-69098095D02*
X86657142Y-69288571D01*
X86657142Y-69288571D02*
X86657142Y-69526666D01*
X86657142Y-69526666D02*
X86609523Y-69717142D01*
X86609523Y-69717142D02*
X86561904Y-69812380D01*
X86561904Y-69812380D02*
X86514285Y-69860000D01*
X86514285Y-69860000D02*
X86419047Y-69907619D01*
X86419047Y-69907619D02*
X86323809Y-69907619D01*
X86323809Y-69907619D02*
X86228571Y-69860000D01*
X86228571Y-69860000D02*
X86180952Y-69812380D01*
X86180952Y-69812380D02*
X86133333Y-69717142D01*
X86133333Y-69717142D02*
X86085714Y-69526666D01*
X86085714Y-69526666D02*
X86085714Y-69288571D01*
X86085714Y-69288571D02*
X86133333Y-69098095D01*
X86133333Y-69098095D02*
X86180952Y-69002857D01*
X86180952Y-69002857D02*
X86228571Y-68955238D01*
X86228571Y-68955238D02*
X86323809Y-68907619D01*
X87085714Y-69907619D02*
X87085714Y-68907619D01*
X87180952Y-69526666D02*
X87466666Y-69907619D01*
X87466666Y-69240952D02*
X87085714Y-69621904D01*
%TO.C,15pF1*%
X57152619Y-52527619D02*
X57152619Y-53099047D01*
X57152619Y-52813333D02*
X56152619Y-52813333D01*
X56152619Y-52813333D02*
X56295476Y-52908571D01*
X56295476Y-52908571D02*
X56390714Y-53003809D01*
X56390714Y-53003809D02*
X56438333Y-53099047D01*
X56152619Y-51622857D02*
X56152619Y-52099047D01*
X56152619Y-52099047D02*
X56628809Y-52146666D01*
X56628809Y-52146666D02*
X56581190Y-52099047D01*
X56581190Y-52099047D02*
X56533571Y-52003809D01*
X56533571Y-52003809D02*
X56533571Y-51765714D01*
X56533571Y-51765714D02*
X56581190Y-51670476D01*
X56581190Y-51670476D02*
X56628809Y-51622857D01*
X56628809Y-51622857D02*
X56724047Y-51575238D01*
X56724047Y-51575238D02*
X56962142Y-51575238D01*
X56962142Y-51575238D02*
X57057380Y-51622857D01*
X57057380Y-51622857D02*
X57105000Y-51670476D01*
X57105000Y-51670476D02*
X57152619Y-51765714D01*
X57152619Y-51765714D02*
X57152619Y-52003809D01*
X57152619Y-52003809D02*
X57105000Y-52099047D01*
X57105000Y-52099047D02*
X57057380Y-52146666D01*
X56485952Y-51146666D02*
X57485952Y-51146666D01*
X56533571Y-51146666D02*
X56485952Y-51051428D01*
X56485952Y-51051428D02*
X56485952Y-50860952D01*
X56485952Y-50860952D02*
X56533571Y-50765714D01*
X56533571Y-50765714D02*
X56581190Y-50718095D01*
X56581190Y-50718095D02*
X56676428Y-50670476D01*
X56676428Y-50670476D02*
X56962142Y-50670476D01*
X56962142Y-50670476D02*
X57057380Y-50718095D01*
X57057380Y-50718095D02*
X57105000Y-50765714D01*
X57105000Y-50765714D02*
X57152619Y-50860952D01*
X57152619Y-50860952D02*
X57152619Y-51051428D01*
X57152619Y-51051428D02*
X57105000Y-51146666D01*
X56628809Y-49908571D02*
X56628809Y-50241904D01*
X57152619Y-50241904D02*
X56152619Y-50241904D01*
X56152619Y-50241904D02*
X56152619Y-49765714D01*
X57152619Y-48860952D02*
X57152619Y-49432380D01*
X57152619Y-49146666D02*
X56152619Y-49146666D01*
X56152619Y-49146666D02*
X56295476Y-49241904D01*
X56295476Y-49241904D02*
X56390714Y-49337142D01*
X56390714Y-49337142D02*
X56438333Y-49432380D01*
%TO.C,C1*%
X50452619Y-60062856D02*
X50452619Y-59967618D01*
X50452619Y-59967618D02*
X50500238Y-59872380D01*
X50500238Y-59872380D02*
X50547857Y-59824761D01*
X50547857Y-59824761D02*
X50643095Y-59777142D01*
X50643095Y-59777142D02*
X50833571Y-59729523D01*
X50833571Y-59729523D02*
X51071666Y-59729523D01*
X51071666Y-59729523D02*
X51262142Y-59777142D01*
X51262142Y-59777142D02*
X51357380Y-59824761D01*
X51357380Y-59824761D02*
X51405000Y-59872380D01*
X51405000Y-59872380D02*
X51452619Y-59967618D01*
X51452619Y-59967618D02*
X51452619Y-60062856D01*
X51452619Y-60062856D02*
X51405000Y-60158094D01*
X51405000Y-60158094D02*
X51357380Y-60205713D01*
X51357380Y-60205713D02*
X51262142Y-60253332D01*
X51262142Y-60253332D02*
X51071666Y-60300951D01*
X51071666Y-60300951D02*
X50833571Y-60300951D01*
X50833571Y-60300951D02*
X50643095Y-60253332D01*
X50643095Y-60253332D02*
X50547857Y-60205713D01*
X50547857Y-60205713D02*
X50500238Y-60158094D01*
X50500238Y-60158094D02*
X50452619Y-60062856D01*
X51357380Y-59300951D02*
X51405000Y-59253332D01*
X51405000Y-59253332D02*
X51452619Y-59300951D01*
X51452619Y-59300951D02*
X51405000Y-59348570D01*
X51405000Y-59348570D02*
X51357380Y-59300951D01*
X51357380Y-59300951D02*
X51452619Y-59300951D01*
X51452619Y-58300952D02*
X51452619Y-58872380D01*
X51452619Y-58586666D02*
X50452619Y-58586666D01*
X50452619Y-58586666D02*
X50595476Y-58681904D01*
X50595476Y-58681904D02*
X50690714Y-58777142D01*
X50690714Y-58777142D02*
X50738333Y-58872380D01*
X50785952Y-57443809D02*
X51452619Y-57443809D01*
X50785952Y-57872380D02*
X51309761Y-57872380D01*
X51309761Y-57872380D02*
X51405000Y-57824761D01*
X51405000Y-57824761D02*
X51452619Y-57729523D01*
X51452619Y-57729523D02*
X51452619Y-57586666D01*
X51452619Y-57586666D02*
X51405000Y-57491428D01*
X51405000Y-57491428D02*
X51357380Y-57443809D01*
X50928809Y-56634285D02*
X50928809Y-56967618D01*
X51452619Y-56967618D02*
X50452619Y-56967618D01*
X50452619Y-56967618D02*
X50452619Y-56491428D01*
D14*
%TO.C,LED2*%
X33100000Y-78450000D02*
X36900000Y-78450000D01*
X36900000Y-78450000D02*
X36900000Y-82350000D01*
X36900000Y-82350000D02*
X33100000Y-82350000D01*
X33100000Y-82350000D02*
X33100000Y-78450000D01*
%TO.C,SW5*%
X76950000Y-86950000D02*
X83050000Y-86950000D01*
X83050000Y-86950000D02*
X83050000Y-93050000D01*
X83050000Y-93050000D02*
X76950000Y-93050000D01*
X76950000Y-93050000D02*
X76950000Y-86950000D01*
D15*
%TO.C,U1*%
X16530000Y-7500000D02*
X41890000Y-7500000D01*
X16530000Y-55900000D02*
X16530000Y-7500000D01*
X41890000Y-7500000D02*
X41890000Y-55900000D01*
X41890000Y-55900000D02*
X16530000Y-55900000D01*
D16*
X15980000Y-8890000D02*
G75*
G03*
X15980000Y-8890000I-100000J0D01*
G01*
D14*
%TO.C,D1*%
X79490000Y-57630000D02*
X79490000Y-54130000D01*
X78820000Y-56870000D02*
X78270000Y-55180000D01*
X79170000Y-55200000D02*
X78820000Y-56870000D01*
X78270000Y-55180000D02*
X79170000Y-55200000D01*
X77940000Y-54130000D02*
X77940000Y-57630000D01*
D17*
%TO.C,R14*%
X76806359Y-27560000D02*
X77113641Y-27560000D01*
X76806359Y-28320000D02*
X77113641Y-28320000D01*
D14*
%TO.C,SW2*%
X31950000Y-86950000D02*
X38050000Y-86950000D01*
X38050000Y-86950000D02*
X38050000Y-93050000D01*
X38050000Y-93050000D02*
X31950000Y-93050000D01*
X31950000Y-93050000D02*
X31950000Y-86950000D01*
%TO.C,O1*%
X70660000Y-60810000D02*
X63960000Y-60810000D01*
X63960000Y-60810000D02*
X63960000Y-50950000D01*
X63960000Y-50950000D02*
X70660000Y-50950000D01*
X70660000Y-50950000D02*
X70660000Y-60810000D01*
D18*
%TO.C,M1*%
X98310000Y-53080000D02*
X96360000Y-53080000D01*
X98310000Y-33280000D02*
X98310000Y-53080000D01*
X98310000Y-33280000D02*
X96360000Y-33280000D01*
D17*
%TO.C,R1*%
X85772258Y-58942500D02*
X85297742Y-58942500D01*
X85772258Y-57897500D02*
X85297742Y-57897500D01*
D14*
%TO.C,SW4*%
X61950000Y-86950000D02*
X68050000Y-86950000D01*
X68050000Y-86950000D02*
X68050000Y-93050000D01*
X68050000Y-93050000D02*
X61950000Y-93050000D01*
X61950000Y-93050000D02*
X61950000Y-86950000D01*
%TO.C,LED1*%
X18100000Y-78450000D02*
X21900000Y-78450000D01*
X21900000Y-78450000D02*
X21900000Y-82350000D01*
X21900000Y-82350000D02*
X18100000Y-82350000D01*
X18100000Y-82350000D02*
X18100000Y-78450000D01*
D17*
%TO.C,R8*%
X17032500Y-67072742D02*
X17032500Y-67547258D01*
X15987500Y-67072742D02*
X15987500Y-67547258D01*
%TO.C,R12*%
X31032500Y-67072742D02*
X31032500Y-67547258D01*
X29987500Y-67072742D02*
X29987500Y-67547258D01*
%TO.C,R13*%
X77113641Y-21970000D02*
X76806359Y-21970000D01*
X77113641Y-21210000D02*
X76806359Y-21210000D01*
D14*
%TO.C,LED3*%
X48100000Y-78450000D02*
X51900000Y-78450000D01*
X51900000Y-78450000D02*
X51900000Y-82350000D01*
X51900000Y-82350000D02*
X48100000Y-82350000D01*
X48100000Y-82350000D02*
X48100000Y-78450000D01*
D17*
%TO.C,R2*%
X57897500Y-56117258D02*
X57897500Y-55642742D01*
X58942500Y-56117258D02*
X58942500Y-55642742D01*
D14*
%TO.C,SW3*%
X46950000Y-86950000D02*
X53050000Y-86950000D01*
X53050000Y-86950000D02*
X53050000Y-93050000D01*
X53050000Y-93050000D02*
X46950000Y-93050000D01*
X46950000Y-93050000D02*
X46950000Y-86950000D01*
D17*
%TO.C,R10*%
X24032500Y-67072742D02*
X24032500Y-67547258D01*
X22987500Y-67072742D02*
X22987500Y-67547258D01*
D14*
%TO.C,LED4*%
X63100000Y-78450000D02*
X66900000Y-78450000D01*
X66900000Y-78450000D02*
X66900000Y-82350000D01*
X66900000Y-82350000D02*
X63100000Y-82350000D01*
X63100000Y-82350000D02*
X63100000Y-78450000D01*
D18*
%TO.C,J1*%
X98310000Y-32760000D02*
X96360000Y-32760000D01*
X98310000Y-12960000D02*
X98310000Y-32760000D01*
X98310000Y-12960000D02*
X96360000Y-12960000D01*
D17*
%TO.C,R3*%
X98422500Y-71707742D02*
X98422500Y-72182258D01*
X97377500Y-71707742D02*
X97377500Y-72182258D01*
%TO.C,R4*%
X95422500Y-71707742D02*
X95422500Y-72182258D01*
X94377500Y-71707742D02*
X94377500Y-72182258D01*
%TO.C,R9*%
X20532500Y-67072742D02*
X20532500Y-67547258D01*
X19487500Y-67072742D02*
X19487500Y-67547258D01*
%TO.C,R5*%
X92422500Y-71707742D02*
X92422500Y-72182258D01*
X91377500Y-71707742D02*
X91377500Y-72182258D01*
%TO.C,15pF1*%
X57635000Y-51241252D02*
X57635000Y-50718748D01*
X59105000Y-51241252D02*
X59105000Y-50718748D01*
%TO.C,C1*%
X54850000Y-55960000D02*
X51830000Y-55960000D01*
X51830000Y-55960000D02*
X51830000Y-60170000D01*
X54850000Y-60170000D02*
X54850000Y-55960000D01*
D14*
%TO.C,SW1*%
X16950000Y-86950000D02*
X23050000Y-86950000D01*
X23050000Y-86950000D02*
X23050000Y-93050000D01*
X23050000Y-93050000D02*
X16950000Y-93050000D01*
X16950000Y-93050000D02*
X16950000Y-86950000D01*
D17*
%TO.C,R11*%
X27532500Y-67072742D02*
X27532500Y-67547258D01*
X26487500Y-67072742D02*
X26487500Y-67547258D01*
%TO.C,R7*%
X86422500Y-71707742D02*
X86422500Y-72182258D01*
X85377500Y-71707742D02*
X85377500Y-72182258D01*
D14*
%TO.C,P1*%
X13860000Y-50030000D02*
X3760000Y-50030000D01*
X3760000Y-50030000D02*
X3760000Y-61730000D01*
X3760000Y-61730000D02*
X13860000Y-61730000D01*
X13860000Y-61730000D02*
X13860000Y-50030000D01*
D17*
%TO.C,R6*%
X89422500Y-71707742D02*
X89422500Y-72182258D01*
X88377500Y-71707742D02*
X88377500Y-72182258D01*
D14*
%TO.C,LED5*%
X78100000Y-78450000D02*
X81900000Y-78450000D01*
X81900000Y-78450000D02*
X81900000Y-82350000D01*
X81900000Y-82350000D02*
X78100000Y-82350000D01*
X78100000Y-82350000D02*
X78100000Y-78450000D01*
%TD*%
M02*
