%TF.GenerationSoftware,KiCad,Pcbnew,7.0.2-6a45011f42~172~ubuntu22.04.1*%
%TF.CreationDate,2023-05-17T15:22:17+02:00*%
%TF.ProjectId,midi,6d696469-2e6b-4696-9361-645f70636258,rev?*%
%TF.SameCoordinates,Original*%
%TF.FileFunction,Soldermask,Top*%
%TF.FilePolarity,Negative*%
%FSLAX46Y46*%
G04 Gerber Fmt 4.6, Leading zero omitted, Abs format (unit mm)*
G04 Created by KiCad (PCBNEW 7.0.2-6a45011f42~172~ubuntu22.04.1) date 2023-05-17 15:22:17*
%MOMM*%
%LPD*%
G01*
G04 APERTURE LIST*
G04 Aperture macros list*
%AMRoundRect*
0 Rectangle with rounded corners*
0 $1 Rounding radius*
0 $2 $3 $4 $5 $6 $7 $8 $9 X,Y pos of 4 corners*
0 Add a 4 corners polygon primitive as box body*
4,1,4,$2,$3,$4,$5,$6,$7,$8,$9,$2,$3,0*
0 Add four circle primitives for the rounded corners*
1,1,$1+$1,$2,$3*
1,1,$1+$1,$4,$5*
1,1,$1+$1,$6,$7*
1,1,$1+$1,$8,$9*
0 Add four rect primitives between the rounded corners*
20,1,$1+$1,$2,$3,$4,$5,0*
20,1,$1+$1,$4,$5,$6,$7,0*
20,1,$1+$1,$6,$7,$8,$9,0*
20,1,$1+$1,$8,$9,$2,$3,0*%
G04 Aperture macros list end*
%ADD10RoundRect,0.300000X0.300000X1.200000X-0.300000X1.200000X-0.300000X-1.200000X0.300000X-1.200000X0*%
%ADD11C,2.000000*%
%ADD12R,1.560000X1.560000*%
%ADD13C,1.560000*%
%ADD14RoundRect,0.100000X-0.650000X0.100000X-0.650000X-0.100000X0.650000X-0.100000X0.650000X0.100000X0*%
%ADD15C,3.200000*%
%ADD16RoundRect,0.135000X-0.135000X-0.185000X0.135000X-0.185000X0.135000X0.185000X-0.135000X0.185000X0*%
%ADD17R,1.520000X1.780000*%
%ADD18RoundRect,0.380000X-0.380000X-0.510000X0.380000X-0.510000X0.380000X0.510000X-0.380000X0.510000X0*%
%ADD19RoundRect,0.380000X-0.380000X-0.520000X0.380000X-0.520000X0.380000X0.520000X-0.380000X0.520000X0*%
%ADD20O,2.500000X2.500000*%
%ADD21O,2.500000X3.200000*%
%ADD22RoundRect,0.200000X0.200000X0.275000X-0.200000X0.275000X-0.200000X-0.275000X0.200000X-0.275000X0*%
%ADD23RoundRect,0.200000X-0.275000X0.200000X-0.275000X-0.200000X0.275000X-0.200000X0.275000X0.200000X0*%
%ADD24RoundRect,0.135000X0.135000X0.185000X-0.135000X0.185000X-0.135000X-0.185000X0.135000X-0.185000X0*%
%ADD25RoundRect,0.200000X0.275000X-0.200000X0.275000X0.200000X-0.275000X0.200000X-0.275000X-0.200000X0*%
%ADD26RoundRect,0.250000X0.475000X-0.250000X0.475000X0.250000X-0.475000X0.250000X-0.475000X-0.250000X0*%
%ADD27RoundRect,0.250000X-0.925000X0.412500X-0.925000X-0.412500X0.925000X-0.412500X0.925000X0.412500X0*%
%ADD28C,3.000000*%
%ADD29O,3.000000X3.000000*%
G04 APERTURE END LIST*
D10*
%TO.C,LED2*%
X33750000Y-80020000D03*
X36250000Y-80010000D03*
%TD*%
D11*
%TO.C,SW5*%
X76750000Y-92250000D03*
X83250000Y-92250000D03*
X76750000Y-87750000D03*
X83250000Y-87750000D03*
%TD*%
D12*
%TO.C,U1*%
X17780000Y-8890000D03*
D13*
X17780000Y-11430000D03*
X17780000Y-13970000D03*
X17780000Y-16510000D03*
X17780000Y-19050000D03*
X17780000Y-21590000D03*
X17780000Y-24130000D03*
X17780000Y-26670000D03*
X17780000Y-29210000D03*
X17780000Y-31750000D03*
X17780000Y-34290000D03*
X17780000Y-36830000D03*
X17780000Y-39370000D03*
X17780000Y-41910000D03*
X17780000Y-44450000D03*
X17780000Y-46990000D03*
X17780000Y-49530000D03*
X17780000Y-52070000D03*
X17780000Y-54610000D03*
X40640000Y-8890000D03*
X40640000Y-11430000D03*
X40640000Y-13970000D03*
X40640000Y-16510000D03*
X40640000Y-19050000D03*
X40640000Y-21590000D03*
X40640000Y-24130000D03*
X40640000Y-26670000D03*
X40640000Y-29210000D03*
X40640000Y-31750000D03*
X40640000Y-34290000D03*
X40640000Y-36830000D03*
X40640000Y-39370000D03*
X40640000Y-41910000D03*
X40640000Y-44450000D03*
X40640000Y-46990000D03*
X40640000Y-49530000D03*
X40640000Y-52070000D03*
X40640000Y-54610000D03*
%TD*%
D14*
%TO.C,D1*%
X78740000Y-54330000D03*
X78740000Y-57430000D03*
%TD*%
D15*
%TO.C,H2*%
X5000000Y-5000000D03*
%TD*%
D16*
%TO.C,R14*%
X76450000Y-27940000D03*
X77470000Y-27940000D03*
%TD*%
D11*
%TO.C,SW2*%
X31750000Y-92250000D03*
X38250000Y-92250000D03*
X31750000Y-87750000D03*
X38250000Y-87750000D03*
%TD*%
D17*
%TO.C,O1*%
X71945000Y-59690000D03*
D18*
X71945000Y-57150000D03*
X71945000Y-54610000D03*
D19*
X62675000Y-52070000D03*
D18*
X62675000Y-54610000D03*
X62675000Y-57150000D03*
X62675000Y-59690000D03*
%TD*%
D20*
%TO.C,M1*%
X86360000Y-35680000D03*
D21*
X96360000Y-48180000D03*
D20*
X86360000Y-43180000D03*
D21*
X96360000Y-38180000D03*
D20*
X86360000Y-50680000D03*
X83860000Y-38180000D03*
X83860000Y-48180000D03*
%TD*%
D22*
%TO.C,R1*%
X86360000Y-58420000D03*
X84710000Y-58420000D03*
%TD*%
D11*
%TO.C,SW4*%
X61750000Y-92250000D03*
X68250000Y-92250000D03*
X61750000Y-87750000D03*
X68250000Y-87750000D03*
%TD*%
D10*
%TO.C,LED1*%
X18750000Y-80020000D03*
X21250000Y-80010000D03*
%TD*%
D23*
%TO.C,R8*%
X16510000Y-66485000D03*
X16510000Y-68135000D03*
%TD*%
%TO.C,R12*%
X30510000Y-66485000D03*
X30510000Y-68135000D03*
%TD*%
D24*
%TO.C,R13*%
X77470000Y-21590000D03*
X76450000Y-21590000D03*
%TD*%
D10*
%TO.C,LED3*%
X48750000Y-80020000D03*
X51250000Y-80010000D03*
%TD*%
D25*
%TO.C,R2*%
X58420000Y-56705000D03*
X58420000Y-55055000D03*
%TD*%
D11*
%TO.C,SW3*%
X46750000Y-92250000D03*
X53250000Y-92250000D03*
X46750000Y-87750000D03*
X53250000Y-87750000D03*
%TD*%
D23*
%TO.C,R10*%
X23510000Y-66485000D03*
X23510000Y-68135000D03*
%TD*%
D10*
%TO.C,LED4*%
X63750000Y-80020000D03*
X66250000Y-80010000D03*
%TD*%
D20*
%TO.C,J1*%
X86360000Y-15360000D03*
D21*
X96360000Y-27860000D03*
D20*
X86360000Y-22860000D03*
D21*
X96360000Y-17860000D03*
D20*
X86360000Y-30360000D03*
X83860000Y-17860000D03*
X83860000Y-27860000D03*
%TD*%
D23*
%TO.C,R3*%
X97900000Y-71120000D03*
X97900000Y-72770000D03*
%TD*%
%TO.C,R4*%
X94900000Y-71120000D03*
X94900000Y-72770000D03*
%TD*%
D15*
%TO.C,H4*%
X95000000Y-95000000D03*
%TD*%
D23*
%TO.C,R9*%
X20010000Y-66485000D03*
X20010000Y-68135000D03*
%TD*%
%TO.C,R5*%
X91900000Y-71120000D03*
X91900000Y-72770000D03*
%TD*%
D26*
%TO.C,15pF1*%
X58370000Y-51930000D03*
X58370000Y-50030000D03*
%TD*%
D27*
%TO.C,C1*%
X53340000Y-56882500D03*
X53340000Y-59957500D03*
%TD*%
D11*
%TO.C,SW1*%
X16750000Y-92250000D03*
X23250000Y-92250000D03*
X16750000Y-87750000D03*
X23250000Y-87750000D03*
%TD*%
D15*
%TO.C,H3*%
X5000000Y-95000000D03*
%TD*%
D23*
%TO.C,R11*%
X27010000Y-66485000D03*
X27010000Y-68135000D03*
%TD*%
%TO.C,R7*%
X85900000Y-71120000D03*
X85900000Y-72770000D03*
%TD*%
D15*
%TO.C,H1*%
X95000000Y-5000000D03*
%TD*%
D28*
%TO.C,P1*%
X11310000Y-55880000D03*
X13010000Y-50080000D03*
X3810000Y-55880000D03*
D29*
X13010000Y-61680000D03*
%TD*%
D23*
%TO.C,R6*%
X88900000Y-71120000D03*
X88900000Y-72770000D03*
%TD*%
D10*
%TO.C,LED5*%
X78750000Y-80020000D03*
X81250000Y-80010000D03*
%TD*%
M02*
