M48
; DRILL file {KiCad 7.0.2-6a45011f42~172~ubuntu22.04.1} date Mi 17 Mai 2023 15:22:14 CEST
; FORMAT={-:-/ absolute / inch / decimal}
; #@! TF.CreationDate,2023-05-17T15:22:14+02:00
; #@! TF.GenerationSoftware,Kicad,Pcbnew,7.0.2-6a45011f42~172~ubuntu22.04.1
; #@! TF.FileFunction,Plated,1,2,PTH
FMAT,2
INCH
; #@! TA.AperFunction,Plated,PTH,ViaDrill
T1C0.0157
; #@! TA.AperFunction,Plated,PTH,ComponentDrill
T2C0.0197
; #@! TA.AperFunction,Plated,PTH,ComponentDrill
T3C0.0394
; #@! TA.AperFunction,Plated,PTH,ComponentDrill
T4C0.0409
; #@! TA.AperFunction,Plated,PTH,ComponentDrill
T5C0.0512
; #@! TA.AperFunction,Plated,PTH,ComponentDrill
T6C0.0591
%
G90
G05
T1
X2.1Y-2.45
X2.3Y-1.9
T3
X0.6594Y-3.4547
X0.6594Y-3.6319
X0.9154Y-3.4547
X0.9154Y-3.6319
X1.25Y-3.4547
X1.25Y-3.6319
X1.5059Y-3.4547
X1.5059Y-3.6319
X1.8406Y-3.4547
X1.8406Y-3.6319
X2.0965Y-3.4547
X2.0965Y-3.6319
X2.4311Y-3.4547
X2.4311Y-3.6319
X2.687Y-3.4547
X2.687Y-3.6319
X3.0217Y-3.4547
X3.0217Y-3.6319
X3.2776Y-3.4547
X3.2776Y-3.6319
T4
X0.7Y-0.35
X0.7Y-0.45
X0.7Y-0.55
X0.7Y-0.65
X0.7Y-0.75
X0.7Y-0.85
X0.7Y-0.95
X0.7Y-1.05
X0.7Y-1.15
X0.7Y-1.25
X0.7Y-1.35
X0.7Y-1.45
X0.7Y-1.55
X0.7Y-1.65
X0.7Y-1.75
X0.7Y-1.85
X0.7Y-1.95
X0.7Y-2.05
X0.7Y-2.15
X1.6Y-0.35
X1.6Y-0.45
X1.6Y-0.55
X1.6Y-0.65
X1.6Y-0.75
X1.6Y-0.85
X1.6Y-0.95
X1.6Y-1.05
X1.6Y-1.15
X1.6Y-1.25
X1.6Y-1.35
X1.6Y-1.45
X1.6Y-1.55
X1.6Y-1.65
X1.6Y-1.75
X1.6Y-1.85
X1.6Y-1.95
X1.6Y-2.05
X1.6Y-2.15
T6
X0.4453Y-2.2
T2
G00X3.7937Y-0.6894
M15
G01X3.7937Y-0.7169
M16
G05
G00X3.7937Y-1.0831
M15
G01X3.7937Y-1.1106
M16
G05
G00X3.7937Y-1.4894
M15
G01X3.7937Y-1.5169
M16
G05
G00X3.7937Y-1.8831
M15
G01X3.7937Y-1.9106
M16
G05
T3
G00X0.15Y-2.2197
M15
G01X0.15Y-2.1803
M16
G05
G00X0.4925Y-1.9717
M15
G01X0.5319Y-1.9717
M16
G05
G00X0.4925Y-2.4283
M15
G01X0.5319Y-2.4283
M16
G05
T5
G00X3.3016Y-0.7031
M15
G01X3.3016Y-0.7031
M16
G05
G00X3.3016Y-1.0969
M15
G01X3.3016Y-1.0969
M16
G05
G00X3.3016Y-1.5031
M15
G01X3.3016Y-1.5031
M16
G05
G00X3.3016Y-1.8969
M15
G01X3.3016Y-1.8969
M16
G05
G00X3.4Y-0.6047
M15
G01X3.4Y-0.6047
M16
G05
G00X3.4Y-0.9
M15
G01X3.4Y-0.9
M16
G05
G00X3.4Y-1.1953
M15
G01X3.4Y-1.1953
M16
G05
G00X3.4Y-1.4047
M15
G01X3.4Y-1.4047
M16
G05
G00X3.4Y-1.7
M15
G01X3.4Y-1.7
M16
G05
G00X3.4Y-1.9953
M15
G01X3.4Y-1.9953
M16
G05
T0
M30
