%TF.GenerationSoftware,KiCad,Pcbnew,7.0.2-6a45011f42~172~ubuntu22.04.1*%
%TF.CreationDate,2023-05-17T15:22:17+02:00*%
%TF.ProjectId,midi,6d696469-2e6b-4696-9361-645f70636258,rev?*%
%TF.SameCoordinates,Original*%
%TF.FileFunction,Copper,L1,Top*%
%TF.FilePolarity,Positive*%
%FSLAX46Y46*%
G04 Gerber Fmt 4.6, Leading zero omitted, Abs format (unit mm)*
G04 Created by KiCad (PCBNEW 7.0.2-6a45011f42~172~ubuntu22.04.1) date 2023-05-17 15:22:17*
%MOMM*%
%LPD*%
G01*
G04 APERTURE LIST*
G04 Aperture macros list*
%AMRoundRect*
0 Rectangle with rounded corners*
0 $1 Rounding radius*
0 $2 $3 $4 $5 $6 $7 $8 $9 X,Y pos of 4 corners*
0 Add a 4 corners polygon primitive as box body*
4,1,4,$2,$3,$4,$5,$6,$7,$8,$9,$2,$3,0*
0 Add four circle primitives for the rounded corners*
1,1,$1+$1,$2,$3*
1,1,$1+$1,$4,$5*
1,1,$1+$1,$6,$7*
1,1,$1+$1,$8,$9*
0 Add four rect primitives between the rounded corners*
20,1,$1+$1,$2,$3,$4,$5,0*
20,1,$1+$1,$4,$5,$6,$7,0*
20,1,$1+$1,$6,$7,$8,$9,0*
20,1,$1+$1,$8,$9,$2,$3,0*%
G04 Aperture macros list end*
%TA.AperFunction,SMDPad,CuDef*%
%ADD10RoundRect,0.300000X0.300000X1.200000X-0.300000X1.200000X-0.300000X-1.200000X0.300000X-1.200000X0*%
%TD*%
%TA.AperFunction,ComponentPad*%
%ADD11C,2.000000*%
%TD*%
%TA.AperFunction,ComponentPad*%
%ADD12R,1.560000X1.560000*%
%TD*%
%TA.AperFunction,ComponentPad*%
%ADD13C,1.560000*%
%TD*%
%TA.AperFunction,SMDPad,CuDef*%
%ADD14RoundRect,0.100000X-0.650000X0.100000X-0.650000X-0.100000X0.650000X-0.100000X0.650000X0.100000X0*%
%TD*%
%TA.AperFunction,SMDPad,CuDef*%
%ADD15RoundRect,0.135000X-0.135000X-0.185000X0.135000X-0.185000X0.135000X0.185000X-0.135000X0.185000X0*%
%TD*%
%TA.AperFunction,SMDPad,CuDef*%
%ADD16R,1.520000X1.780000*%
%TD*%
%TA.AperFunction,SMDPad,CuDef*%
%ADD17RoundRect,0.380000X-0.380000X-0.510000X0.380000X-0.510000X0.380000X0.510000X-0.380000X0.510000X0*%
%TD*%
%TA.AperFunction,SMDPad,CuDef*%
%ADD18RoundRect,0.380000X-0.380000X-0.520000X0.380000X-0.520000X0.380000X0.520000X-0.380000X0.520000X0*%
%TD*%
%TA.AperFunction,ComponentPad*%
%ADD19O,2.500000X2.500000*%
%TD*%
%TA.AperFunction,ComponentPad*%
%ADD20O,2.500000X3.200000*%
%TD*%
%TA.AperFunction,SMDPad,CuDef*%
%ADD21RoundRect,0.200000X0.200000X0.275000X-0.200000X0.275000X-0.200000X-0.275000X0.200000X-0.275000X0*%
%TD*%
%TA.AperFunction,SMDPad,CuDef*%
%ADD22RoundRect,0.200000X-0.275000X0.200000X-0.275000X-0.200000X0.275000X-0.200000X0.275000X0.200000X0*%
%TD*%
%TA.AperFunction,SMDPad,CuDef*%
%ADD23RoundRect,0.135000X0.135000X0.185000X-0.135000X0.185000X-0.135000X-0.185000X0.135000X-0.185000X0*%
%TD*%
%TA.AperFunction,SMDPad,CuDef*%
%ADD24RoundRect,0.200000X0.275000X-0.200000X0.275000X0.200000X-0.275000X0.200000X-0.275000X-0.200000X0*%
%TD*%
%TA.AperFunction,SMDPad,CuDef*%
%ADD25RoundRect,0.250000X0.475000X-0.250000X0.475000X0.250000X-0.475000X0.250000X-0.475000X-0.250000X0*%
%TD*%
%TA.AperFunction,SMDPad,CuDef*%
%ADD26RoundRect,0.250000X-0.925000X0.412500X-0.925000X-0.412500X0.925000X-0.412500X0.925000X0.412500X0*%
%TD*%
%TA.AperFunction,ComponentPad*%
%ADD27C,3.000000*%
%TD*%
%TA.AperFunction,ComponentPad*%
%ADD28O,3.000000X3.000000*%
%TD*%
%TA.AperFunction,ViaPad*%
%ADD29C,0.800000*%
%TD*%
%TA.AperFunction,Conductor*%
%ADD30C,0.250000*%
%TD*%
G04 APERTURE END LIST*
D10*
%TO.P,LED2,1,K*%
%TO.N,GND*%
X33750000Y-80020000D03*
%TO.P,LED2,2,A*%
%TO.N,Net-(LED2-A)*%
X36250000Y-80010000D03*
%TD*%
D11*
%TO.P,SW5,1*%
%TO.N,GND*%
X76750000Y-92250000D03*
X83250000Y-92250000D03*
%TO.P,SW5,2*%
%TO.N,SW5*%
X76750000Y-87750000D03*
X83250000Y-87750000D03*
%TD*%
D12*
%TO.P,U1,J2-1,3V3*%
%TO.N,+3.3V*%
X17780000Y-8890000D03*
D13*
%TO.P,U1,J2-2,EN*%
%TO.N,unconnected-(U1-EN-PadJ2-2)*%
X17780000Y-11430000D03*
%TO.P,U1,J2-3,SENSOR_VP*%
%TO.N,unconnected-(U1-SENSOR_VP-PadJ2-3)*%
X17780000Y-13970000D03*
%TO.P,U1,J2-4,SENSOR_VN*%
%TO.N,unconnected-(U1-SENSOR_VN-PadJ2-4)*%
X17780000Y-16510000D03*
%TO.P,U1,J2-5,IO34*%
%TO.N,LED5*%
X17780000Y-19050000D03*
%TO.P,U1,J2-6,IO35*%
%TO.N,LED4*%
X17780000Y-21590000D03*
%TO.P,U1,J2-7,IO32*%
%TO.N,LED3*%
X17780000Y-24130000D03*
%TO.P,U1,J2-8,IO33*%
%TO.N,LED2*%
X17780000Y-26670000D03*
%TO.P,U1,J2-9,IO25*%
%TO.N,LED1*%
X17780000Y-29210000D03*
%TO.P,U1,J2-10,IO26*%
%TO.N,unconnected-(U1-IO26-PadJ2-10)*%
X17780000Y-31750000D03*
%TO.P,U1,J2-11,IO27*%
%TO.N,unconnected-(U1-IO27-PadJ2-11)*%
X17780000Y-34290000D03*
%TO.P,U1,J2-12,IO14*%
%TO.N,unconnected-(U1-IO14-PadJ2-12)*%
X17780000Y-36830000D03*
%TO.P,U1,J2-13,IO12*%
%TO.N,unconnected-(U1-IO12-PadJ2-13)*%
X17780000Y-39370000D03*
%TO.P,U1,J2-14,GND1*%
%TO.N,GND*%
X17780000Y-41910000D03*
%TO.P,U1,J2-15,IO13*%
%TO.N,unconnected-(U1-IO13-PadJ2-15)*%
X17780000Y-44450000D03*
%TO.P,U1,J2-16,SD2*%
%TO.N,unconnected-(U1-SD2-PadJ2-16)*%
X17780000Y-46990000D03*
%TO.P,U1,J2-17,SD3*%
%TO.N,unconnected-(U1-SD3-PadJ2-17)*%
X17780000Y-49530000D03*
%TO.P,U1,J2-18,CMD*%
%TO.N,unconnected-(U1-CMD-PadJ2-18)*%
X17780000Y-52070000D03*
%TO.P,U1,J2-19,EXT_5V*%
%TO.N,+5V*%
X17780000Y-54610000D03*
%TO.P,U1,J3-1,GND3*%
%TO.N,unconnected-(U1-GND3-PadJ3-1)*%
X40640000Y-8890000D03*
%TO.P,U1,J3-2,IO23*%
%TO.N,unconnected-(U1-IO23-PadJ3-2)*%
X40640000Y-11430000D03*
%TO.P,U1,J3-3,IO22*%
%TO.N,unconnected-(U1-IO22-PadJ3-3)*%
X40640000Y-13970000D03*
%TO.P,U1,J3-4,TXD0*%
%TO.N,unconnected-(U1-TXD0-PadJ3-4)*%
X40640000Y-16510000D03*
%TO.P,U1,J3-5,RXD0*%
%TO.N,unconnected-(U1-RXD0-PadJ3-5)*%
X40640000Y-19050000D03*
%TO.P,U1,J3-6,IO21*%
%TO.N,unconnected-(U1-IO21-PadJ3-6)*%
X40640000Y-21590000D03*
%TO.P,U1,J3-7,GND2*%
%TO.N,unconnected-(U1-GND2-PadJ3-7)*%
X40640000Y-24130000D03*
%TO.P,U1,J3-8,IO19*%
%TO.N,TX1*%
X40640000Y-26670000D03*
%TO.P,U1,J3-9,IO18*%
%TO.N,RX1*%
X40640000Y-29210000D03*
%TO.P,U1,J3-10,IO5*%
%TO.N,unconnected-(U1-IO5-PadJ3-10)*%
X40640000Y-31750000D03*
%TO.P,U1,J3-11,IO17*%
%TO.N,SW5*%
X40640000Y-34290000D03*
%TO.P,U1,J3-12,IO16*%
%TO.N,SW4*%
X40640000Y-36830000D03*
%TO.P,U1,J3-13,IO4*%
%TO.N,SW3*%
X40640000Y-39370000D03*
%TO.P,U1,J3-14,IO0*%
%TO.N,SW2*%
X40640000Y-41910000D03*
%TO.P,U1,J3-15,IO2*%
%TO.N,SW1*%
X40640000Y-44450000D03*
%TO.P,U1,J3-16,IO15*%
%TO.N,unconnected-(U1-IO15-PadJ3-16)*%
X40640000Y-46990000D03*
%TO.P,U1,J3-17,SD1*%
%TO.N,unconnected-(U1-SD1-PadJ3-17)*%
X40640000Y-49530000D03*
%TO.P,U1,J3-18,SD0*%
%TO.N,unconnected-(U1-SD0-PadJ3-18)*%
X40640000Y-52070000D03*
%TO.P,U1,J3-19,CLK*%
%TO.N,unconnected-(U1-CLK-PadJ3-19)*%
X40640000Y-54610000D03*
%TD*%
D14*
%TO.P,D1,1,A*%
%TO.N,Net-(D1-A)*%
X78740000Y-54330000D03*
%TO.P,D1,2,K*%
%TO.N,Net-(D1-K)*%
X78740000Y-57430000D03*
%TD*%
D15*
%TO.P,R14,1*%
%TO.N,TX1*%
X76450000Y-27940000D03*
%TO.P,R14,2*%
%TO.N,Net-(J1-Pad5)*%
X77470000Y-27940000D03*
%TD*%
D11*
%TO.P,SW2,1*%
%TO.N,GND*%
X31750000Y-92250000D03*
X38250000Y-92250000D03*
%TO.P,SW2,2*%
%TO.N,SW2*%
X31750000Y-87750000D03*
X38250000Y-87750000D03*
%TD*%
D16*
%TO.P,O1,1,NC*%
%TO.N,unconnected-(O1-NC-Pad1)*%
X71945000Y-59690000D03*
D17*
%TO.P,O1,2,A*%
%TO.N,Net-(D1-K)*%
X71945000Y-57150000D03*
%TO.P,O1,3,C*%
%TO.N,Net-(D1-A)*%
X71945000Y-54610000D03*
D18*
%TO.P,O1,5,GND*%
%TO.N,GND*%
X62675000Y-52070000D03*
D17*
%TO.P,O1,6,VO*%
%TO.N,+3.3V*%
X62675000Y-54610000D03*
%TO.P,O1,7,EN*%
%TO.N,unconnected-(O1-EN-Pad7)*%
X62675000Y-57150000D03*
%TO.P,O1,8,VCC*%
%TO.N,RX1*%
X62675000Y-59690000D03*
%TD*%
D19*
%TO.P,M1,1*%
%TO.N,unconnected-(M1-Pad1)*%
X86360000Y-35680000D03*
D20*
%TO.P,M1,2*%
%TO.N,unconnected-(M1-Pad2)*%
X96360000Y-48180000D03*
D19*
X86360000Y-43180000D03*
D20*
X96360000Y-38180000D03*
D19*
%TO.P,M1,3*%
%TO.N,unconnected-(M1-Pad3)*%
X86360000Y-50680000D03*
%TO.P,M1,4*%
%TO.N,Net-(M1-Pad4)*%
X83860000Y-38180000D03*
%TO.P,M1,5*%
%TO.N,Net-(D1-A)*%
X83860000Y-48180000D03*
%TD*%
D21*
%TO.P,R1,1*%
%TO.N,Net-(M1-Pad4)*%
X86360000Y-58420000D03*
%TO.P,R1,2*%
%TO.N,Net-(D1-K)*%
X84710000Y-58420000D03*
%TD*%
D11*
%TO.P,SW4,1*%
%TO.N,GND*%
X61750000Y-92250000D03*
X68250000Y-92250000D03*
%TO.P,SW4,2*%
%TO.N,SW4*%
X61750000Y-87750000D03*
X68250000Y-87750000D03*
%TD*%
D10*
%TO.P,LED1,1,K*%
%TO.N,GND*%
X18750000Y-80020000D03*
%TO.P,LED1,2,A*%
%TO.N,Net-(LED1-A)*%
X21250000Y-80010000D03*
%TD*%
D22*
%TO.P,R8,1*%
%TO.N,LED1*%
X16510000Y-66485000D03*
%TO.P,R8,2*%
%TO.N,Net-(LED1-A)*%
X16510000Y-68135000D03*
%TD*%
%TO.P,R12,1*%
%TO.N,LED5*%
X30510000Y-66485000D03*
%TO.P,R12,2*%
%TO.N,Net-(LED5-A)*%
X30510000Y-68135000D03*
%TD*%
D23*
%TO.P,R13,1*%
%TO.N,Net-(J1-Pad4)*%
X77470000Y-21590000D03*
%TO.P,R13,2*%
%TO.N,+3.3V*%
X76450000Y-21590000D03*
%TD*%
D10*
%TO.P,LED3,1,K*%
%TO.N,GND*%
X48750000Y-80020000D03*
%TO.P,LED3,2,A*%
%TO.N,Net-(LED3-A)*%
X51250000Y-80010000D03*
%TD*%
D24*
%TO.P,R2,1*%
%TO.N,RX1*%
X58420000Y-56705000D03*
%TO.P,R2,2*%
%TO.N,+3.3V*%
X58420000Y-55055000D03*
%TD*%
D11*
%TO.P,SW3,1*%
%TO.N,GND*%
X46750000Y-92250000D03*
X53250000Y-92250000D03*
%TO.P,SW3,2*%
%TO.N,SW3*%
X46750000Y-87750000D03*
X53250000Y-87750000D03*
%TD*%
D22*
%TO.P,R10,1*%
%TO.N,LED3*%
X23510000Y-66485000D03*
%TO.P,R10,2*%
%TO.N,Net-(LED3-A)*%
X23510000Y-68135000D03*
%TD*%
D10*
%TO.P,LED4,1,K*%
%TO.N,GND*%
X63750000Y-80020000D03*
%TO.P,LED4,2,A*%
%TO.N,Net-(LED4-A)*%
X66250000Y-80010000D03*
%TD*%
D19*
%TO.P,J1,1*%
%TO.N,unconnected-(J1-Pad1)*%
X86360000Y-15360000D03*
D20*
%TO.P,J1,2*%
%TO.N,GND*%
X96360000Y-27860000D03*
D19*
X86360000Y-22860000D03*
D20*
X96360000Y-17860000D03*
D19*
%TO.P,J1,3*%
%TO.N,unconnected-(J1-Pad3)*%
X86360000Y-30360000D03*
%TO.P,J1,4*%
%TO.N,Net-(J1-Pad4)*%
X83860000Y-17860000D03*
%TO.P,J1,5*%
%TO.N,Net-(J1-Pad5)*%
X83860000Y-27860000D03*
%TD*%
D22*
%TO.P,R3,1*%
%TO.N,+3.3V*%
X97900000Y-71120000D03*
%TO.P,R3,2*%
%TO.N,SW1*%
X97900000Y-72770000D03*
%TD*%
%TO.P,R4,1*%
%TO.N,+3.3V*%
X94900000Y-71120000D03*
%TO.P,R4,2*%
%TO.N,SW2*%
X94900000Y-72770000D03*
%TD*%
%TO.P,R9,1*%
%TO.N,LED2*%
X20010000Y-66485000D03*
%TO.P,R9,2*%
%TO.N,Net-(LED2-A)*%
X20010000Y-68135000D03*
%TD*%
%TO.P,R5,1*%
%TO.N,+3.3V*%
X91900000Y-71120000D03*
%TO.P,R5,2*%
%TO.N,SW3*%
X91900000Y-72770000D03*
%TD*%
D25*
%TO.P,15pF1,1*%
%TO.N,+3.3V*%
X58370000Y-51930000D03*
%TO.P,15pF1,2*%
%TO.N,GND*%
X58370000Y-50030000D03*
%TD*%
D26*
%TO.P,C1,1*%
%TO.N,RX1*%
X53340000Y-56882500D03*
%TO.P,C1,2*%
%TO.N,GND*%
X53340000Y-59957500D03*
%TD*%
D11*
%TO.P,SW1,1*%
%TO.N,GND*%
X16750000Y-92250000D03*
X23250000Y-92250000D03*
%TO.P,SW1,2*%
%TO.N,SW1*%
X16750000Y-87750000D03*
X23250000Y-87750000D03*
%TD*%
D22*
%TO.P,R11,1*%
%TO.N,LED4*%
X27010000Y-66485000D03*
%TO.P,R11,2*%
%TO.N,Net-(LED4-A)*%
X27010000Y-68135000D03*
%TD*%
%TO.P,R7,1*%
%TO.N,+3.3V*%
X85900000Y-71120000D03*
%TO.P,R7,2*%
%TO.N,SW5*%
X85900000Y-72770000D03*
%TD*%
D27*
%TO.P,P1,1,Pin_1*%
%TO.N,+5V*%
X11310000Y-55880000D03*
%TO.P,P1,2,Pin_2*%
%TO.N,GND*%
X13010000Y-50080000D03*
X3810000Y-55880000D03*
D28*
X13010000Y-61680000D03*
%TD*%
D22*
%TO.P,R6,1*%
%TO.N,+3.3V*%
X88900000Y-71120000D03*
%TO.P,R6,2*%
%TO.N,SW4*%
X88900000Y-72770000D03*
%TD*%
D10*
%TO.P,LED5,1,K*%
%TO.N,GND*%
X78750000Y-80020000D03*
%TO.P,LED5,2,A*%
%TO.N,Net-(LED5-A)*%
X81250000Y-80010000D03*
%TD*%
D29*
%TO.N,GND*%
X53340000Y-62230000D03*
X58420000Y-48260000D03*
%TD*%
D30*
%TO.N,GND*%
X18750000Y-90250000D02*
X16750000Y-92250000D01*
X18750000Y-80020000D02*
X18750000Y-90250000D01*
X53340000Y-59957500D02*
X53340000Y-62230000D01*
X76935000Y-81835000D02*
X65565000Y-81835000D01*
X33750000Y-80020000D02*
X33750000Y-90250000D01*
X60455000Y-49850000D02*
X58420000Y-49850000D01*
X33750000Y-90250000D02*
X31750000Y-92250000D01*
X58420000Y-49850000D02*
X58420000Y-48260000D01*
X63750000Y-80020000D02*
X63750000Y-90250000D01*
X62675000Y-52070000D02*
X60455000Y-49850000D01*
X78750000Y-80020000D02*
X76935000Y-81835000D01*
X63750000Y-90250000D02*
X61750000Y-92250000D01*
X65565000Y-81835000D02*
X63750000Y-80020000D01*
X48750000Y-90250000D02*
X46750000Y-92250000D01*
X48750000Y-80020000D02*
X48750000Y-90250000D01*
%TO.N,RX1*%
X53340000Y-56882500D02*
X53340000Y-39370000D01*
X62675000Y-59690000D02*
X61405000Y-59690000D01*
X58242500Y-56882500D02*
X53340000Y-56882500D01*
X58420000Y-56705000D02*
X58242500Y-56882500D01*
X43180000Y-29210000D02*
X40640000Y-29210000D01*
X61405000Y-59690000D02*
X58420000Y-56705000D01*
X53340000Y-39370000D02*
X43180000Y-29210000D01*
%TO.N,Net-(D1-A)*%
X78740000Y-53300000D02*
X78740000Y-54330000D01*
X78740000Y-54330000D02*
X72225000Y-54330000D01*
X72225000Y-54330000D02*
X71945000Y-54610000D01*
X83860000Y-48180000D02*
X78740000Y-53300000D01*
%TO.N,Net-(D1-K)*%
X79730000Y-58420000D02*
X78740000Y-57430000D01*
X72225000Y-57430000D02*
X71945000Y-57150000D01*
X84710000Y-58420000D02*
X79730000Y-58420000D01*
X78740000Y-57430000D02*
X72225000Y-57430000D01*
%TO.N,+3.3V*%
X20320000Y-6350000D02*
X57400000Y-6350000D01*
X62675000Y-54610000D02*
X79185000Y-71120000D01*
X20320000Y-6910000D02*
X20320000Y-6350000D01*
X62230000Y-55055000D02*
X62675000Y-54610000D01*
X58420000Y-55055000D02*
X62230000Y-55055000D01*
X57400000Y-6350000D02*
X72640000Y-21590000D01*
X61280000Y-54610000D02*
X62675000Y-54610000D01*
X91900000Y-71120000D02*
X88900000Y-71120000D01*
X85435000Y-28512387D02*
X85435000Y-25745000D01*
X94900000Y-71120000D02*
X91900000Y-71120000D01*
X72640000Y-21590000D02*
X76450000Y-21590000D01*
X58420000Y-55055000D02*
X58420000Y-51750000D01*
X17780000Y-9450000D02*
X20320000Y-6910000D01*
X62675000Y-54610000D02*
X84512387Y-32772613D01*
X84512387Y-32772613D02*
X84512387Y-29435000D01*
X88900000Y-71120000D02*
X85900000Y-71120000D01*
X58420000Y-51750000D02*
X61280000Y-54610000D01*
X97900000Y-71120000D02*
X94900000Y-71120000D01*
X82550000Y-22860000D02*
X77720000Y-22860000D01*
X85435000Y-25745000D02*
X82550000Y-22860000D01*
X77720000Y-22860000D02*
X76450000Y-21590000D01*
X84512387Y-29435000D02*
X85435000Y-28512387D01*
X79185000Y-71120000D02*
X85900000Y-71120000D01*
%TO.N,unconnected-(M1-Pad2)*%
X96360000Y-38180000D02*
X96360000Y-48180000D01*
%TO.N,Net-(M1-Pad4)*%
X91440000Y-40640000D02*
X91440000Y-55880000D01*
X91440000Y-55880000D02*
X88900000Y-58420000D01*
X88900000Y-58420000D02*
X86360000Y-58420000D01*
X88980000Y-38180000D02*
X91440000Y-40640000D01*
X83860000Y-38180000D02*
X88980000Y-38180000D01*
%TO.N,SW1*%
X97900000Y-72770000D02*
X97900000Y-81383021D01*
X97900000Y-81383021D02*
X84403021Y-94880000D01*
X84403021Y-94880000D02*
X30380000Y-94880000D01*
X30380000Y-94880000D02*
X23250000Y-87750000D01*
%TO.N,LED1*%
X16510000Y-58420000D02*
X20320000Y-54610000D01*
X16510000Y-66485000D02*
X16510000Y-58420000D01*
X20320000Y-31750000D02*
X17780000Y-29210000D01*
X20320000Y-54610000D02*
X20320000Y-31750000D01*
%TO.N,SW2*%
X94900000Y-83746625D02*
X84216625Y-94430000D01*
X44930000Y-94430000D02*
X38250000Y-87750000D01*
X84216625Y-94430000D02*
X44930000Y-94430000D01*
X94900000Y-72770000D02*
X94900000Y-83746625D01*
%TO.N,LED2*%
X21590000Y-30480000D02*
X17780000Y-26670000D01*
X20010000Y-66485000D02*
X21590000Y-64905000D01*
X21590000Y-64905000D02*
X21590000Y-30480000D01*
%TO.N,SW3*%
X84030229Y-93980000D02*
X59480000Y-93980000D01*
X91900000Y-86110229D02*
X84030229Y-93980000D01*
X59480000Y-93980000D02*
X53250000Y-87750000D01*
X91900000Y-72770000D02*
X91900000Y-86110229D01*
%TO.N,LED3*%
X22860000Y-65835000D02*
X22860000Y-29210000D01*
X23510000Y-66485000D02*
X22860000Y-65835000D01*
X22860000Y-29210000D02*
X17780000Y-24130000D01*
%TO.N,SW4*%
X88900000Y-88473833D02*
X86448833Y-90925000D01*
X86448833Y-90925000D02*
X71425000Y-90925000D01*
X88900000Y-72770000D02*
X88900000Y-88473833D01*
X71425000Y-90925000D02*
X68250000Y-87750000D01*
%TO.N,LED4*%
X27010000Y-66485000D02*
X24130000Y-63605000D01*
X24130000Y-63605000D02*
X24130000Y-27940000D01*
X24130000Y-27940000D02*
X17780000Y-21590000D01*
%TO.N,SW5*%
X85900000Y-85100000D02*
X83250000Y-87750000D01*
X85900000Y-72770000D02*
X85900000Y-85100000D01*
%TO.N,LED5*%
X30510000Y-66070000D02*
X25400000Y-60960000D01*
X25400000Y-60960000D02*
X25400000Y-26670000D01*
X30510000Y-66485000D02*
X30510000Y-66070000D01*
X25400000Y-26670000D02*
X17780000Y-19050000D01*
%TO.N,TX1*%
X76450000Y-27940000D02*
X75180000Y-26670000D01*
X75180000Y-26670000D02*
X40640000Y-26670000D01*
%TO.N,Net-(J1-Pad4)*%
X80130000Y-21590000D02*
X77470000Y-21590000D01*
X83860000Y-17860000D02*
X80130000Y-21590000D01*
%TO.N,Net-(J1-Pad5)*%
X77550000Y-27860000D02*
X77470000Y-27940000D01*
X83860000Y-27860000D02*
X77550000Y-27860000D01*
%TO.N,Net-(LED1-A)*%
X16510000Y-71120000D02*
X21590000Y-76200000D01*
X16510000Y-68135000D02*
X16510000Y-71120000D01*
X21590000Y-79670000D02*
X21250000Y-80010000D01*
X21590000Y-76200000D02*
X21590000Y-79670000D01*
%TO.N,Net-(LED2-A)*%
X31750000Y-73660000D02*
X36250000Y-78160000D01*
X22860000Y-73660000D02*
X31750000Y-73660000D01*
X20010000Y-70810000D02*
X22860000Y-73660000D01*
X20010000Y-68135000D02*
X20010000Y-70810000D01*
X36250000Y-78160000D02*
X36250000Y-80010000D01*
%TO.N,Net-(LED3-A)*%
X44450000Y-72390000D02*
X51250000Y-79190000D01*
X51250000Y-79190000D02*
X51250000Y-80010000D01*
X23510000Y-70500000D02*
X25400000Y-72390000D01*
X25400000Y-72390000D02*
X44450000Y-72390000D01*
X23510000Y-68135000D02*
X23510000Y-70500000D01*
%TO.N,Net-(LED4-A)*%
X57360000Y-71120000D02*
X66250000Y-80010000D01*
X27010000Y-68135000D02*
X27010000Y-70190000D01*
X27010000Y-70190000D02*
X27940000Y-71120000D01*
X27940000Y-71120000D02*
X57360000Y-71120000D01*
%TO.N,Net-(LED5-A)*%
X30480000Y-68165000D02*
X30480000Y-68580000D01*
X72390000Y-69850000D02*
X81250000Y-78710000D01*
X31750000Y-69850000D02*
X72390000Y-69850000D01*
X30510000Y-68135000D02*
X30480000Y-68165000D01*
X81250000Y-78710000D02*
X81250000Y-80010000D01*
X30480000Y-68580000D02*
X31750000Y-69850000D01*
%TO.N,+5V*%
X12580000Y-54610000D02*
X11310000Y-55880000D01*
X17780000Y-54610000D02*
X12580000Y-54610000D01*
%TD*%
M02*
