%TF.GenerationSoftware,KiCad,Pcbnew,7.0.2-6a45011f42~172~ubuntu22.04.1*%
%TF.CreationDate,2023-05-17T15:22:17+02:00*%
%TF.ProjectId,midi,6d696469-2e6b-4696-9361-645f70636258,rev?*%
%TF.SameCoordinates,Original*%
%TF.FileFunction,Copper,L2,Bot*%
%TF.FilePolarity,Positive*%
%FSLAX46Y46*%
G04 Gerber Fmt 4.6, Leading zero omitted, Abs format (unit mm)*
G04 Created by KiCad (PCBNEW 7.0.2-6a45011f42~172~ubuntu22.04.1) date 2023-05-17 15:22:17*
%MOMM*%
%LPD*%
G01*
G04 APERTURE LIST*
%TA.AperFunction,ComponentPad*%
%ADD10C,2.000000*%
%TD*%
%TA.AperFunction,ComponentPad*%
%ADD11R,1.560000X1.560000*%
%TD*%
%TA.AperFunction,ComponentPad*%
%ADD12C,1.560000*%
%TD*%
%TA.AperFunction,ComponentPad*%
%ADD13O,2.500000X2.500000*%
%TD*%
%TA.AperFunction,ComponentPad*%
%ADD14O,2.500000X3.200000*%
%TD*%
%TA.AperFunction,ComponentPad*%
%ADD15C,3.000000*%
%TD*%
%TA.AperFunction,ComponentPad*%
%ADD16O,3.000000X3.000000*%
%TD*%
%TA.AperFunction,ViaPad*%
%ADD17C,0.800000*%
%TD*%
%TA.AperFunction,Conductor*%
%ADD18C,0.250000*%
%TD*%
G04 APERTURE END LIST*
D10*
%TO.P,SW5,1*%
%TO.N,GND*%
X76750000Y-92250000D03*
X83250000Y-92250000D03*
%TO.P,SW5,2*%
%TO.N,SW5*%
X76750000Y-87750000D03*
X83250000Y-87750000D03*
%TD*%
D11*
%TO.P,U1,J2-1,3V3*%
%TO.N,+3.3V*%
X17780000Y-8890000D03*
D12*
%TO.P,U1,J2-2,EN*%
%TO.N,unconnected-(U1-EN-PadJ2-2)*%
X17780000Y-11430000D03*
%TO.P,U1,J2-3,SENSOR_VP*%
%TO.N,unconnected-(U1-SENSOR_VP-PadJ2-3)*%
X17780000Y-13970000D03*
%TO.P,U1,J2-4,SENSOR_VN*%
%TO.N,unconnected-(U1-SENSOR_VN-PadJ2-4)*%
X17780000Y-16510000D03*
%TO.P,U1,J2-5,IO34*%
%TO.N,LED5*%
X17780000Y-19050000D03*
%TO.P,U1,J2-6,IO35*%
%TO.N,LED4*%
X17780000Y-21590000D03*
%TO.P,U1,J2-7,IO32*%
%TO.N,LED3*%
X17780000Y-24130000D03*
%TO.P,U1,J2-8,IO33*%
%TO.N,LED2*%
X17780000Y-26670000D03*
%TO.P,U1,J2-9,IO25*%
%TO.N,LED1*%
X17780000Y-29210000D03*
%TO.P,U1,J2-10,IO26*%
%TO.N,unconnected-(U1-IO26-PadJ2-10)*%
X17780000Y-31750000D03*
%TO.P,U1,J2-11,IO27*%
%TO.N,unconnected-(U1-IO27-PadJ2-11)*%
X17780000Y-34290000D03*
%TO.P,U1,J2-12,IO14*%
%TO.N,unconnected-(U1-IO14-PadJ2-12)*%
X17780000Y-36830000D03*
%TO.P,U1,J2-13,IO12*%
%TO.N,unconnected-(U1-IO12-PadJ2-13)*%
X17780000Y-39370000D03*
%TO.P,U1,J2-14,GND1*%
%TO.N,GND*%
X17780000Y-41910000D03*
%TO.P,U1,J2-15,IO13*%
%TO.N,unconnected-(U1-IO13-PadJ2-15)*%
X17780000Y-44450000D03*
%TO.P,U1,J2-16,SD2*%
%TO.N,unconnected-(U1-SD2-PadJ2-16)*%
X17780000Y-46990000D03*
%TO.P,U1,J2-17,SD3*%
%TO.N,unconnected-(U1-SD3-PadJ2-17)*%
X17780000Y-49530000D03*
%TO.P,U1,J2-18,CMD*%
%TO.N,unconnected-(U1-CMD-PadJ2-18)*%
X17780000Y-52070000D03*
%TO.P,U1,J2-19,EXT_5V*%
%TO.N,+5V*%
X17780000Y-54610000D03*
%TO.P,U1,J3-1,GND3*%
%TO.N,unconnected-(U1-GND3-PadJ3-1)*%
X40640000Y-8890000D03*
%TO.P,U1,J3-2,IO23*%
%TO.N,unconnected-(U1-IO23-PadJ3-2)*%
X40640000Y-11430000D03*
%TO.P,U1,J3-3,IO22*%
%TO.N,unconnected-(U1-IO22-PadJ3-3)*%
X40640000Y-13970000D03*
%TO.P,U1,J3-4,TXD0*%
%TO.N,unconnected-(U1-TXD0-PadJ3-4)*%
X40640000Y-16510000D03*
%TO.P,U1,J3-5,RXD0*%
%TO.N,unconnected-(U1-RXD0-PadJ3-5)*%
X40640000Y-19050000D03*
%TO.P,U1,J3-6,IO21*%
%TO.N,unconnected-(U1-IO21-PadJ3-6)*%
X40640000Y-21590000D03*
%TO.P,U1,J3-7,GND2*%
%TO.N,unconnected-(U1-GND2-PadJ3-7)*%
X40640000Y-24130000D03*
%TO.P,U1,J3-8,IO19*%
%TO.N,TX1*%
X40640000Y-26670000D03*
%TO.P,U1,J3-9,IO18*%
%TO.N,RX1*%
X40640000Y-29210000D03*
%TO.P,U1,J3-10,IO5*%
%TO.N,unconnected-(U1-IO5-PadJ3-10)*%
X40640000Y-31750000D03*
%TO.P,U1,J3-11,IO17*%
%TO.N,SW5*%
X40640000Y-34290000D03*
%TO.P,U1,J3-12,IO16*%
%TO.N,SW4*%
X40640000Y-36830000D03*
%TO.P,U1,J3-13,IO4*%
%TO.N,SW3*%
X40640000Y-39370000D03*
%TO.P,U1,J3-14,IO0*%
%TO.N,SW2*%
X40640000Y-41910000D03*
%TO.P,U1,J3-15,IO2*%
%TO.N,SW1*%
X40640000Y-44450000D03*
%TO.P,U1,J3-16,IO15*%
%TO.N,unconnected-(U1-IO15-PadJ3-16)*%
X40640000Y-46990000D03*
%TO.P,U1,J3-17,SD1*%
%TO.N,unconnected-(U1-SD1-PadJ3-17)*%
X40640000Y-49530000D03*
%TO.P,U1,J3-18,SD0*%
%TO.N,unconnected-(U1-SD0-PadJ3-18)*%
X40640000Y-52070000D03*
%TO.P,U1,J3-19,CLK*%
%TO.N,unconnected-(U1-CLK-PadJ3-19)*%
X40640000Y-54610000D03*
%TD*%
D10*
%TO.P,SW2,1*%
%TO.N,GND*%
X31750000Y-92250000D03*
X38250000Y-92250000D03*
%TO.P,SW2,2*%
%TO.N,SW2*%
X31750000Y-87750000D03*
X38250000Y-87750000D03*
%TD*%
D13*
%TO.P,M1,1*%
%TO.N,unconnected-(M1-Pad1)*%
X86360000Y-35680000D03*
D14*
%TO.P,M1,2*%
%TO.N,unconnected-(M1-Pad2)*%
X96360000Y-48180000D03*
D13*
X86360000Y-43180000D03*
D14*
X96360000Y-38180000D03*
D13*
%TO.P,M1,3*%
%TO.N,unconnected-(M1-Pad3)*%
X86360000Y-50680000D03*
%TO.P,M1,4*%
%TO.N,Net-(M1-Pad4)*%
X83860000Y-38180000D03*
%TO.P,M1,5*%
%TO.N,Net-(D1-A)*%
X83860000Y-48180000D03*
%TD*%
D10*
%TO.P,SW4,1*%
%TO.N,GND*%
X61750000Y-92250000D03*
X68250000Y-92250000D03*
%TO.P,SW4,2*%
%TO.N,SW4*%
X61750000Y-87750000D03*
X68250000Y-87750000D03*
%TD*%
%TO.P,SW3,1*%
%TO.N,GND*%
X46750000Y-92250000D03*
X53250000Y-92250000D03*
%TO.P,SW3,2*%
%TO.N,SW3*%
X46750000Y-87750000D03*
X53250000Y-87750000D03*
%TD*%
D13*
%TO.P,J1,1*%
%TO.N,unconnected-(J1-Pad1)*%
X86360000Y-15360000D03*
D14*
%TO.P,J1,2*%
%TO.N,GND*%
X96360000Y-27860000D03*
D13*
X86360000Y-22860000D03*
D14*
X96360000Y-17860000D03*
D13*
%TO.P,J1,3*%
%TO.N,unconnected-(J1-Pad3)*%
X86360000Y-30360000D03*
%TO.P,J1,4*%
%TO.N,Net-(J1-Pad4)*%
X83860000Y-17860000D03*
%TO.P,J1,5*%
%TO.N,Net-(J1-Pad5)*%
X83860000Y-27860000D03*
%TD*%
D10*
%TO.P,SW1,1*%
%TO.N,GND*%
X16750000Y-92250000D03*
X23250000Y-92250000D03*
%TO.P,SW1,2*%
%TO.N,SW1*%
X16750000Y-87750000D03*
X23250000Y-87750000D03*
%TD*%
D15*
%TO.P,P1,1,Pin_1*%
%TO.N,+5V*%
X11310000Y-55880000D03*
%TO.P,P1,2,Pin_2*%
%TO.N,GND*%
X13010000Y-50080000D03*
X3810000Y-55880000D03*
D16*
X13010000Y-61680000D03*
%TD*%
D17*
%TO.N,GND*%
X53340000Y-62230000D03*
X58420000Y-48260000D03*
%TD*%
D18*
%TO.N,GND*%
X53340000Y-62230000D02*
X53340000Y-62340000D01*
%TO.N,unconnected-(M1-Pad2)*%
X91360000Y-38180000D02*
X86360000Y-43180000D01*
X96360000Y-38180000D02*
X91360000Y-38180000D01*
X96360000Y-48180000D02*
X91360000Y-48180000D01*
X91360000Y-48180000D02*
X86360000Y-43180000D01*
%TO.N,SW1*%
X45720000Y-58780000D02*
X16750000Y-87750000D01*
X43180000Y-44450000D02*
X40640000Y-44450000D01*
X23250000Y-87750000D02*
X16750000Y-87750000D01*
X45720000Y-46990000D02*
X45720000Y-58780000D01*
X43180000Y-44450000D02*
X45720000Y-46990000D01*
%TO.N,SW2*%
X46990000Y-45720000D02*
X46990000Y-72510000D01*
X43180000Y-41910000D02*
X46990000Y-45720000D01*
X46990000Y-72510000D02*
X31750000Y-87750000D01*
X43180000Y-41910000D02*
X40640000Y-41910000D01*
X38250000Y-87750000D02*
X31750000Y-87750000D01*
%TO.N,SW3*%
X43180000Y-39370000D02*
X40640000Y-39370000D01*
X43180000Y-39370000D02*
X48260000Y-44450000D01*
X48260000Y-86240000D02*
X46750000Y-87750000D01*
X48260000Y-44450000D02*
X48260000Y-86240000D01*
X46750000Y-87750000D02*
X53250000Y-87750000D01*
%TO.N,SW4*%
X49530000Y-43180000D02*
X49530000Y-75530000D01*
X61750000Y-87750000D02*
X68250000Y-87750000D01*
X43180000Y-36830000D02*
X49530000Y-43180000D01*
X43180000Y-36830000D02*
X40640000Y-36830000D01*
X49530000Y-75530000D02*
X61750000Y-87750000D01*
%TO.N,SW5*%
X43180000Y-34290000D02*
X50800000Y-41910000D01*
X40640000Y-34290000D02*
X43180000Y-34290000D01*
X50800000Y-41910000D02*
X50800000Y-61800000D01*
X76750000Y-87750000D02*
X83250000Y-87750000D01*
X50800000Y-61800000D02*
X76750000Y-87750000D01*
%TD*%
%TA.AperFunction,Conductor*%
%TO.N,GND*%
G36*
X98990353Y-1289685D02*
G01*
X99036108Y-1342489D01*
X99047308Y-1395126D01*
X98787609Y-29942084D01*
X98156845Y-99277387D01*
X98136551Y-99344245D01*
X98083333Y-99389517D01*
X98032414Y-99400258D01*
X1393564Y-99060434D01*
X1326594Y-99040514D01*
X1281025Y-98987550D01*
X1270000Y-98936435D01*
X1270000Y-95067764D01*
X3145787Y-95067764D01*
X3175413Y-95337016D01*
X3243928Y-95599087D01*
X3349871Y-95848392D01*
X3490982Y-96079611D01*
X3580253Y-96186881D01*
X3664255Y-96287820D01*
X3865998Y-96468582D01*
X4091910Y-96618044D01*
X4198211Y-96667876D01*
X4337177Y-96733021D01*
X4596562Y-96811058D01*
X4596569Y-96811060D01*
X4864561Y-96850500D01*
X4864564Y-96850500D01*
X5065369Y-96850500D01*
X5067631Y-96850500D01*
X5270156Y-96835677D01*
X5534553Y-96776780D01*
X5787558Y-96680014D01*
X6023777Y-96547441D01*
X6238177Y-96381888D01*
X6426186Y-96186881D01*
X6583799Y-95966579D01*
X6707656Y-95725675D01*
X6795118Y-95469305D01*
X6844319Y-95202933D01*
X6849259Y-95067764D01*
X93145787Y-95067764D01*
X93175413Y-95337016D01*
X93243928Y-95599087D01*
X93349871Y-95848392D01*
X93490982Y-96079611D01*
X93580253Y-96186881D01*
X93664255Y-96287820D01*
X93865998Y-96468582D01*
X94091910Y-96618044D01*
X94198211Y-96667876D01*
X94337177Y-96733021D01*
X94596562Y-96811058D01*
X94596569Y-96811060D01*
X94864561Y-96850500D01*
X94864564Y-96850500D01*
X95065369Y-96850500D01*
X95067631Y-96850500D01*
X95270156Y-96835677D01*
X95534553Y-96776780D01*
X95787558Y-96680014D01*
X96023777Y-96547441D01*
X96238177Y-96381888D01*
X96426186Y-96186881D01*
X96583799Y-95966579D01*
X96707656Y-95725675D01*
X96795118Y-95469305D01*
X96844319Y-95202933D01*
X96854212Y-94932235D01*
X96824586Y-94662982D01*
X96756072Y-94400912D01*
X96650130Y-94151610D01*
X96509018Y-93920390D01*
X96509017Y-93920388D01*
X96335746Y-93712181D01*
X96332289Y-93709083D01*
X96134002Y-93531418D01*
X95908090Y-93381956D01*
X95908086Y-93381954D01*
X95662822Y-93266978D01*
X95403437Y-93188941D01*
X95403431Y-93188940D01*
X95135439Y-93149500D01*
X94932369Y-93149500D01*
X94930120Y-93149664D01*
X94930109Y-93149665D01*
X94729843Y-93164322D01*
X94465449Y-93223219D01*
X94212441Y-93319986D01*
X93976223Y-93452559D01*
X93761825Y-93618109D01*
X93573813Y-93813120D01*
X93416201Y-94033420D01*
X93292342Y-94274329D01*
X93204881Y-94530695D01*
X93155680Y-94797066D01*
X93145787Y-95067764D01*
X6849259Y-95067764D01*
X6854212Y-94932235D01*
X6824586Y-94662982D01*
X6756072Y-94400912D01*
X6650130Y-94151610D01*
X6509018Y-93920390D01*
X6509017Y-93920388D01*
X6335746Y-93712181D01*
X6332289Y-93709083D01*
X6134002Y-93531418D01*
X5908090Y-93381956D01*
X5908086Y-93381954D01*
X5662822Y-93266978D01*
X5403437Y-93188941D01*
X5403431Y-93188940D01*
X5135439Y-93149500D01*
X4932369Y-93149500D01*
X4930120Y-93149664D01*
X4930109Y-93149665D01*
X4729843Y-93164322D01*
X4465449Y-93223219D01*
X4212441Y-93319986D01*
X3976223Y-93452559D01*
X3761825Y-93618109D01*
X3573813Y-93813120D01*
X3416201Y-94033420D01*
X3292342Y-94274329D01*
X3204881Y-94530695D01*
X3155680Y-94797066D01*
X3145787Y-95067764D01*
X1270000Y-95067764D01*
X1270000Y-92250000D01*
X15244858Y-92250000D01*
X15265386Y-92497732D01*
X15326413Y-92738721D01*
X15426268Y-92966370D01*
X15526563Y-93119882D01*
X15526564Y-93119882D01*
X16266922Y-92379523D01*
X16290507Y-92459844D01*
X16368239Y-92580798D01*
X16476900Y-92674952D01*
X16607685Y-92734680D01*
X16617466Y-92736086D01*
X15879942Y-93473609D01*
X15879942Y-93473610D01*
X15926766Y-93510055D01*
X16145393Y-93628368D01*
X16380506Y-93709083D01*
X16625707Y-93750000D01*
X16874293Y-93750000D01*
X17119493Y-93709083D01*
X17354606Y-93628368D01*
X17573233Y-93510053D01*
X17620056Y-93473609D01*
X16882533Y-92736086D01*
X16892315Y-92734680D01*
X17023100Y-92674952D01*
X17131761Y-92580798D01*
X17209493Y-92459844D01*
X17233076Y-92379524D01*
X17973434Y-93119882D01*
X18073730Y-92966369D01*
X18173586Y-92738721D01*
X18234613Y-92497732D01*
X18255141Y-92250000D01*
X21744858Y-92250000D01*
X21765386Y-92497732D01*
X21826413Y-92738721D01*
X21926268Y-92966370D01*
X22026563Y-93119882D01*
X22026564Y-93119882D01*
X22766923Y-92379523D01*
X22790507Y-92459844D01*
X22868239Y-92580798D01*
X22976900Y-92674952D01*
X23107685Y-92734680D01*
X23117466Y-92736086D01*
X22379942Y-93473609D01*
X22379942Y-93473610D01*
X22426766Y-93510055D01*
X22645393Y-93628368D01*
X22880506Y-93709083D01*
X23125707Y-93750000D01*
X23374293Y-93750000D01*
X23619493Y-93709083D01*
X23854606Y-93628368D01*
X24073233Y-93510053D01*
X24120056Y-93473609D01*
X23382533Y-92736086D01*
X23392315Y-92734680D01*
X23523100Y-92674952D01*
X23631761Y-92580798D01*
X23709493Y-92459844D01*
X23733076Y-92379524D01*
X24473434Y-93119882D01*
X24573730Y-92966369D01*
X24673586Y-92738721D01*
X24734613Y-92497732D01*
X24755141Y-92250000D01*
X30244858Y-92250000D01*
X30265386Y-92497732D01*
X30326413Y-92738721D01*
X30426268Y-92966370D01*
X30526563Y-93119882D01*
X30526564Y-93119882D01*
X31266923Y-92379523D01*
X31290507Y-92459844D01*
X31368239Y-92580798D01*
X31476900Y-92674952D01*
X31607685Y-92734680D01*
X31617466Y-92736086D01*
X30879942Y-93473609D01*
X30879942Y-93473610D01*
X30926766Y-93510055D01*
X31145393Y-93628368D01*
X31380506Y-93709083D01*
X31625707Y-93750000D01*
X31874293Y-93750000D01*
X32119493Y-93709083D01*
X32354606Y-93628368D01*
X32573233Y-93510053D01*
X32620056Y-93473609D01*
X31882533Y-92736086D01*
X31892315Y-92734680D01*
X32023100Y-92674952D01*
X32131761Y-92580798D01*
X32209493Y-92459844D01*
X32233076Y-92379524D01*
X32973434Y-93119882D01*
X33073730Y-92966369D01*
X33173586Y-92738721D01*
X33234613Y-92497732D01*
X33255141Y-92250000D01*
X36744858Y-92250000D01*
X36765386Y-92497732D01*
X36826413Y-92738721D01*
X36926268Y-92966370D01*
X37026563Y-93119882D01*
X37026564Y-93119882D01*
X37766923Y-92379523D01*
X37790507Y-92459844D01*
X37868239Y-92580798D01*
X37976900Y-92674952D01*
X38107685Y-92734680D01*
X38117466Y-92736086D01*
X37379942Y-93473609D01*
X37379942Y-93473610D01*
X37426766Y-93510055D01*
X37645393Y-93628368D01*
X37880506Y-93709083D01*
X38125707Y-93750000D01*
X38374293Y-93750000D01*
X38619493Y-93709083D01*
X38854606Y-93628368D01*
X39073233Y-93510053D01*
X39120056Y-93473609D01*
X38382533Y-92736086D01*
X38392315Y-92734680D01*
X38523100Y-92674952D01*
X38631761Y-92580798D01*
X38709493Y-92459844D01*
X38733076Y-92379524D01*
X39473434Y-93119882D01*
X39573730Y-92966369D01*
X39673586Y-92738721D01*
X39734613Y-92497732D01*
X39755141Y-92250000D01*
X45244858Y-92250000D01*
X45265386Y-92497732D01*
X45326413Y-92738721D01*
X45426268Y-92966370D01*
X45526563Y-93119882D01*
X45526564Y-93119882D01*
X46266922Y-92379523D01*
X46290507Y-92459844D01*
X46368239Y-92580798D01*
X46476900Y-92674952D01*
X46607685Y-92734680D01*
X46617466Y-92736086D01*
X45879942Y-93473609D01*
X45879942Y-93473610D01*
X45926766Y-93510055D01*
X46145393Y-93628368D01*
X46380506Y-93709083D01*
X46625707Y-93750000D01*
X46874293Y-93750000D01*
X47119493Y-93709083D01*
X47354606Y-93628368D01*
X47573233Y-93510053D01*
X47620056Y-93473609D01*
X46882533Y-92736086D01*
X46892315Y-92734680D01*
X47023100Y-92674952D01*
X47131761Y-92580798D01*
X47209493Y-92459844D01*
X47233076Y-92379524D01*
X47973434Y-93119882D01*
X48073730Y-92966369D01*
X48173586Y-92738721D01*
X48234613Y-92497732D01*
X48255141Y-92250000D01*
X51744858Y-92250000D01*
X51765386Y-92497732D01*
X51826413Y-92738721D01*
X51926268Y-92966370D01*
X52026563Y-93119882D01*
X52026564Y-93119882D01*
X52766923Y-92379523D01*
X52790507Y-92459844D01*
X52868239Y-92580798D01*
X52976900Y-92674952D01*
X53107685Y-92734680D01*
X53117466Y-92736086D01*
X52379942Y-93473609D01*
X52379942Y-93473610D01*
X52426766Y-93510055D01*
X52645393Y-93628368D01*
X52880506Y-93709083D01*
X53125707Y-93750000D01*
X53374293Y-93750000D01*
X53619493Y-93709083D01*
X53854606Y-93628368D01*
X54073233Y-93510053D01*
X54120056Y-93473609D01*
X53382533Y-92736086D01*
X53392315Y-92734680D01*
X53523100Y-92674952D01*
X53631761Y-92580798D01*
X53709493Y-92459844D01*
X53733076Y-92379524D01*
X54473434Y-93119882D01*
X54573730Y-92966369D01*
X54673586Y-92738721D01*
X54734613Y-92497732D01*
X54755141Y-92250000D01*
X54755141Y-92249999D01*
X60244858Y-92249999D01*
X60265386Y-92497732D01*
X60326413Y-92738721D01*
X60426268Y-92966370D01*
X60526563Y-93119882D01*
X60526564Y-93119882D01*
X61266923Y-92379523D01*
X61290507Y-92459844D01*
X61368239Y-92580798D01*
X61476900Y-92674952D01*
X61607685Y-92734680D01*
X61617466Y-92736086D01*
X60879942Y-93473609D01*
X60879942Y-93473610D01*
X60926766Y-93510055D01*
X61145393Y-93628368D01*
X61380506Y-93709083D01*
X61625707Y-93750000D01*
X61874293Y-93750000D01*
X62119493Y-93709083D01*
X62354606Y-93628368D01*
X62573233Y-93510053D01*
X62620056Y-93473609D01*
X61882533Y-92736086D01*
X61892315Y-92734680D01*
X62023100Y-92674952D01*
X62131761Y-92580798D01*
X62209493Y-92459844D01*
X62233076Y-92379525D01*
X62973434Y-93119882D01*
X63073730Y-92966369D01*
X63173586Y-92738721D01*
X63234613Y-92497732D01*
X63255141Y-92250000D01*
X66744858Y-92250000D01*
X66765386Y-92497732D01*
X66826413Y-92738721D01*
X66926268Y-92966370D01*
X67026563Y-93119882D01*
X67026564Y-93119882D01*
X67766923Y-92379523D01*
X67790507Y-92459844D01*
X67868239Y-92580798D01*
X67976900Y-92674952D01*
X68107685Y-92734680D01*
X68117466Y-92736086D01*
X67379942Y-93473609D01*
X67379942Y-93473610D01*
X67426766Y-93510055D01*
X67645393Y-93628368D01*
X67880506Y-93709083D01*
X68125707Y-93750000D01*
X68374293Y-93750000D01*
X68619493Y-93709083D01*
X68854606Y-93628368D01*
X69073233Y-93510053D01*
X69120056Y-93473609D01*
X68382533Y-92736086D01*
X68392315Y-92734680D01*
X68523100Y-92674952D01*
X68631761Y-92580798D01*
X68709493Y-92459844D01*
X68733076Y-92379524D01*
X69473434Y-93119882D01*
X69573730Y-92966369D01*
X69673586Y-92738721D01*
X69734613Y-92497732D01*
X69755141Y-92250000D01*
X69755141Y-92249999D01*
X75244858Y-92249999D01*
X75265386Y-92497732D01*
X75326413Y-92738721D01*
X75426268Y-92966370D01*
X75526563Y-93119882D01*
X75526564Y-93119882D01*
X76266923Y-92379523D01*
X76290507Y-92459844D01*
X76368239Y-92580798D01*
X76476900Y-92674952D01*
X76607685Y-92734680D01*
X76617466Y-92736086D01*
X75879942Y-93473609D01*
X75879942Y-93473610D01*
X75926766Y-93510055D01*
X76145393Y-93628368D01*
X76380506Y-93709083D01*
X76625707Y-93750000D01*
X76874293Y-93750000D01*
X77119493Y-93709083D01*
X77354606Y-93628368D01*
X77573233Y-93510053D01*
X77620056Y-93473609D01*
X76882533Y-92736086D01*
X76892315Y-92734680D01*
X77023100Y-92674952D01*
X77131761Y-92580798D01*
X77209493Y-92459844D01*
X77233076Y-92379524D01*
X77973434Y-93119882D01*
X78073730Y-92966369D01*
X78173586Y-92738721D01*
X78234613Y-92497732D01*
X78255141Y-92250000D01*
X81744858Y-92250000D01*
X81765386Y-92497732D01*
X81826413Y-92738721D01*
X81926268Y-92966370D01*
X82026563Y-93119882D01*
X82026564Y-93119882D01*
X82766923Y-92379523D01*
X82790507Y-92459844D01*
X82868239Y-92580798D01*
X82976900Y-92674952D01*
X83107685Y-92734680D01*
X83117466Y-92736086D01*
X82379942Y-93473609D01*
X82379942Y-93473610D01*
X82426766Y-93510055D01*
X82645393Y-93628368D01*
X82880506Y-93709083D01*
X83125707Y-93750000D01*
X83374293Y-93750000D01*
X83619493Y-93709083D01*
X83854606Y-93628368D01*
X84073233Y-93510053D01*
X84120056Y-93473609D01*
X83382533Y-92736086D01*
X83392315Y-92734680D01*
X83523100Y-92674952D01*
X83631761Y-92580798D01*
X83709493Y-92459844D01*
X83733076Y-92379524D01*
X84473434Y-93119882D01*
X84573730Y-92966369D01*
X84673586Y-92738721D01*
X84734613Y-92497732D01*
X84755141Y-92249999D01*
X84734613Y-92002267D01*
X84673586Y-91761278D01*
X84573730Y-91533630D01*
X84473434Y-91380116D01*
X83733076Y-92120475D01*
X83709493Y-92040156D01*
X83631761Y-91919202D01*
X83523100Y-91825048D01*
X83392315Y-91765320D01*
X83382534Y-91763913D01*
X84120057Y-91026390D01*
X84120056Y-91026388D01*
X84073235Y-90989947D01*
X83854606Y-90871631D01*
X83619493Y-90790916D01*
X83374293Y-90750000D01*
X83125707Y-90750000D01*
X82880506Y-90790916D01*
X82645393Y-90871631D01*
X82426764Y-90989946D01*
X82379942Y-91026388D01*
X82379942Y-91026390D01*
X83117466Y-91763913D01*
X83107685Y-91765320D01*
X82976900Y-91825048D01*
X82868239Y-91919202D01*
X82790507Y-92040156D01*
X82766923Y-92120475D01*
X82026564Y-91380116D01*
X81926266Y-91533634D01*
X81826413Y-91761278D01*
X81765386Y-92002267D01*
X81744858Y-92250000D01*
X78255141Y-92250000D01*
X78234613Y-92002267D01*
X78173586Y-91761278D01*
X78073730Y-91533630D01*
X77973434Y-91380116D01*
X77233076Y-92120475D01*
X77209493Y-92040156D01*
X77131761Y-91919202D01*
X77023100Y-91825048D01*
X76892315Y-91765320D01*
X76882534Y-91763913D01*
X77620057Y-91026390D01*
X77620056Y-91026388D01*
X77573235Y-90989947D01*
X77354606Y-90871631D01*
X77119493Y-90790916D01*
X76874293Y-90750000D01*
X76625707Y-90750000D01*
X76380506Y-90790916D01*
X76145393Y-90871631D01*
X75926764Y-90989946D01*
X75879942Y-91026388D01*
X75879942Y-91026390D01*
X76617466Y-91763913D01*
X76607685Y-91765320D01*
X76476900Y-91825048D01*
X76368239Y-91919202D01*
X76290507Y-92040156D01*
X76266923Y-92120475D01*
X75526564Y-91380116D01*
X75426266Y-91533634D01*
X75326413Y-91761278D01*
X75265386Y-92002267D01*
X75244858Y-92249999D01*
X69755141Y-92249999D01*
X69734613Y-92002267D01*
X69673586Y-91761278D01*
X69573730Y-91533630D01*
X69473434Y-91380116D01*
X68733076Y-92120475D01*
X68709493Y-92040156D01*
X68631761Y-91919202D01*
X68523100Y-91825048D01*
X68392315Y-91765320D01*
X68382534Y-91763913D01*
X69120057Y-91026390D01*
X69120056Y-91026388D01*
X69073235Y-90989947D01*
X68854606Y-90871631D01*
X68619493Y-90790916D01*
X68374293Y-90750000D01*
X68125707Y-90750000D01*
X67880506Y-90790916D01*
X67645393Y-90871631D01*
X67426764Y-90989946D01*
X67379942Y-91026388D01*
X67379942Y-91026390D01*
X68117466Y-91763913D01*
X68107685Y-91765320D01*
X67976900Y-91825048D01*
X67868239Y-91919202D01*
X67790507Y-92040156D01*
X67766923Y-92120475D01*
X67026564Y-91380116D01*
X66926266Y-91533634D01*
X66826413Y-91761278D01*
X66765386Y-92002267D01*
X66744858Y-92250000D01*
X63255141Y-92250000D01*
X63234613Y-92002267D01*
X63173586Y-91761278D01*
X63073730Y-91533630D01*
X62973434Y-91380116D01*
X62233076Y-92120474D01*
X62209493Y-92040156D01*
X62131761Y-91919202D01*
X62023100Y-91825048D01*
X61892315Y-91765320D01*
X61882534Y-91763913D01*
X62620057Y-91026390D01*
X62620056Y-91026388D01*
X62573235Y-90989947D01*
X62354606Y-90871631D01*
X62119493Y-90790916D01*
X61874293Y-90750000D01*
X61625707Y-90750000D01*
X61380506Y-90790916D01*
X61145393Y-90871631D01*
X60926764Y-90989946D01*
X60879942Y-91026388D01*
X60879942Y-91026390D01*
X61617466Y-91763913D01*
X61607685Y-91765320D01*
X61476900Y-91825048D01*
X61368239Y-91919202D01*
X61290507Y-92040156D01*
X61266923Y-92120475D01*
X60526564Y-91380116D01*
X60426266Y-91533634D01*
X60326413Y-91761278D01*
X60265386Y-92002267D01*
X60244858Y-92249999D01*
X54755141Y-92249999D01*
X54734613Y-92002267D01*
X54673586Y-91761278D01*
X54573730Y-91533630D01*
X54473434Y-91380116D01*
X53733076Y-92120475D01*
X53709493Y-92040156D01*
X53631761Y-91919202D01*
X53523100Y-91825048D01*
X53392315Y-91765320D01*
X53382534Y-91763913D01*
X54120057Y-91026390D01*
X54120056Y-91026388D01*
X54073235Y-90989947D01*
X53854606Y-90871631D01*
X53619493Y-90790916D01*
X53374293Y-90750000D01*
X53125707Y-90750000D01*
X52880506Y-90790916D01*
X52645393Y-90871631D01*
X52426764Y-90989946D01*
X52379942Y-91026388D01*
X52379942Y-91026390D01*
X53117466Y-91763913D01*
X53107685Y-91765320D01*
X52976900Y-91825048D01*
X52868239Y-91919202D01*
X52790507Y-92040156D01*
X52766923Y-92120475D01*
X52026564Y-91380116D01*
X51926266Y-91533634D01*
X51826413Y-91761278D01*
X51765386Y-92002267D01*
X51744858Y-92250000D01*
X48255141Y-92250000D01*
X48234613Y-92002267D01*
X48173586Y-91761278D01*
X48073730Y-91533630D01*
X47973434Y-91380116D01*
X47233076Y-92120475D01*
X47209493Y-92040156D01*
X47131761Y-91919202D01*
X47023100Y-91825048D01*
X46892315Y-91765320D01*
X46882532Y-91763913D01*
X47620056Y-91026389D01*
X47620056Y-91026387D01*
X47573235Y-90989947D01*
X47354606Y-90871631D01*
X47119493Y-90790916D01*
X46874293Y-90750000D01*
X46625707Y-90750000D01*
X46380506Y-90790916D01*
X46145393Y-90871631D01*
X45926764Y-90989946D01*
X45879942Y-91026388D01*
X45879942Y-91026390D01*
X46617464Y-91763913D01*
X46607685Y-91765320D01*
X46476900Y-91825048D01*
X46368239Y-91919202D01*
X46290507Y-92040156D01*
X46266923Y-92120475D01*
X45526564Y-91380116D01*
X45426266Y-91533634D01*
X45326413Y-91761278D01*
X45265386Y-92002267D01*
X45244858Y-92250000D01*
X39755141Y-92250000D01*
X39755141Y-92249999D01*
X39734613Y-92002267D01*
X39673586Y-91761278D01*
X39573730Y-91533630D01*
X39473434Y-91380116D01*
X38733076Y-92120475D01*
X38709493Y-92040156D01*
X38631761Y-91919202D01*
X38523100Y-91825048D01*
X38392315Y-91765320D01*
X38382534Y-91763913D01*
X39120057Y-91026390D01*
X39120056Y-91026388D01*
X39073235Y-90989947D01*
X38854606Y-90871631D01*
X38619493Y-90790916D01*
X38374293Y-90750000D01*
X38125707Y-90750000D01*
X37880506Y-90790916D01*
X37645393Y-90871631D01*
X37426764Y-90989946D01*
X37379942Y-91026388D01*
X37379942Y-91026390D01*
X38117466Y-91763913D01*
X38107685Y-91765320D01*
X37976900Y-91825048D01*
X37868239Y-91919202D01*
X37790507Y-92040156D01*
X37766923Y-92120475D01*
X37026564Y-91380116D01*
X36926266Y-91533634D01*
X36826413Y-91761278D01*
X36765386Y-92002267D01*
X36744858Y-92250000D01*
X33255141Y-92250000D01*
X33234613Y-92002267D01*
X33173586Y-91761278D01*
X33073730Y-91533630D01*
X32973434Y-91380116D01*
X32233076Y-92120474D01*
X32209493Y-92040156D01*
X32131761Y-91919202D01*
X32023100Y-91825048D01*
X31892315Y-91765320D01*
X31882532Y-91763913D01*
X32620056Y-91026389D01*
X32620056Y-91026387D01*
X32573235Y-90989947D01*
X32354606Y-90871631D01*
X32119493Y-90790916D01*
X31874293Y-90750000D01*
X31625707Y-90750000D01*
X31380506Y-90790916D01*
X31145393Y-90871631D01*
X30926764Y-90989946D01*
X30879942Y-91026388D01*
X30879942Y-91026390D01*
X31617464Y-91763913D01*
X31607685Y-91765320D01*
X31476900Y-91825048D01*
X31368239Y-91919202D01*
X31290507Y-92040156D01*
X31266923Y-92120475D01*
X30526564Y-91380116D01*
X30426266Y-91533634D01*
X30326413Y-91761278D01*
X30265386Y-92002267D01*
X30244858Y-92250000D01*
X24755141Y-92250000D01*
X24734613Y-92002267D01*
X24673586Y-91761278D01*
X24573730Y-91533630D01*
X24473434Y-91380116D01*
X23733076Y-92120475D01*
X23709493Y-92040156D01*
X23631761Y-91919202D01*
X23523100Y-91825048D01*
X23392315Y-91765320D01*
X23382534Y-91763913D01*
X24120057Y-91026390D01*
X24120056Y-91026388D01*
X24073235Y-90989947D01*
X23854606Y-90871631D01*
X23619493Y-90790916D01*
X23374293Y-90750000D01*
X23125707Y-90750000D01*
X22880506Y-90790916D01*
X22645393Y-90871631D01*
X22426764Y-90989946D01*
X22379942Y-91026388D01*
X22379942Y-91026390D01*
X23117466Y-91763913D01*
X23107685Y-91765320D01*
X22976900Y-91825048D01*
X22868239Y-91919202D01*
X22790507Y-92040156D01*
X22766923Y-92120475D01*
X22026564Y-91380116D01*
X21926266Y-91533634D01*
X21826413Y-91761278D01*
X21765386Y-92002267D01*
X21744858Y-92250000D01*
X18255141Y-92250000D01*
X18234613Y-92002267D01*
X18173586Y-91761278D01*
X18073730Y-91533630D01*
X17973434Y-91380116D01*
X17233076Y-92120475D01*
X17209493Y-92040156D01*
X17131761Y-91919202D01*
X17023100Y-91825048D01*
X16892315Y-91765320D01*
X16882534Y-91763913D01*
X17620057Y-91026390D01*
X17620056Y-91026388D01*
X17573235Y-90989947D01*
X17354606Y-90871631D01*
X17119493Y-90790916D01*
X16874293Y-90750000D01*
X16625707Y-90750000D01*
X16380506Y-90790916D01*
X16145393Y-90871631D01*
X15926764Y-90989946D01*
X15879942Y-91026388D01*
X15879942Y-91026390D01*
X16617466Y-91763913D01*
X16607685Y-91765320D01*
X16476900Y-91825048D01*
X16368239Y-91919202D01*
X16290507Y-92040156D01*
X16266923Y-92120475D01*
X15526564Y-91380116D01*
X15426266Y-91533634D01*
X15326413Y-91761278D01*
X15265386Y-92002267D01*
X15244858Y-92250000D01*
X1270000Y-92250000D01*
X1270000Y-87750000D01*
X15236835Y-87750000D01*
X15255465Y-87986712D01*
X15310894Y-88217593D01*
X15356327Y-88327278D01*
X15401760Y-88436963D01*
X15525824Y-88639416D01*
X15680031Y-88819969D01*
X15860584Y-88974176D01*
X16063037Y-89098240D01*
X16282406Y-89189105D01*
X16513289Y-89244535D01*
X16750000Y-89263165D01*
X16986711Y-89244535D01*
X17217594Y-89189105D01*
X17436963Y-89098240D01*
X17639416Y-88974176D01*
X17819969Y-88819969D01*
X17974176Y-88639416D01*
X18094718Y-88442709D01*
X18146530Y-88395835D01*
X18200445Y-88383500D01*
X21799555Y-88383500D01*
X21866594Y-88403185D01*
X21905281Y-88442709D01*
X22025824Y-88639416D01*
X22180031Y-88819969D01*
X22360584Y-88974176D01*
X22563037Y-89098240D01*
X22782406Y-89189105D01*
X23013289Y-89244535D01*
X23250000Y-89263165D01*
X23486711Y-89244535D01*
X23717594Y-89189105D01*
X23936963Y-89098240D01*
X24139416Y-88974176D01*
X24319969Y-88819969D01*
X24474176Y-88639416D01*
X24598240Y-88436963D01*
X24689105Y-88217594D01*
X24744535Y-87986711D01*
X24763165Y-87750000D01*
X24744535Y-87513289D01*
X24689105Y-87282406D01*
X24598240Y-87063037D01*
X24474176Y-86860584D01*
X24319969Y-86680031D01*
X24139416Y-86525824D01*
X23936963Y-86401760D01*
X23771055Y-86333039D01*
X23717593Y-86310894D01*
X23486712Y-86255465D01*
X23250000Y-86236835D01*
X23013287Y-86255465D01*
X22782406Y-86310894D01*
X22563035Y-86401761D01*
X22360585Y-86525823D01*
X22180031Y-86680031D01*
X22025823Y-86860585D01*
X21905282Y-87057290D01*
X21853470Y-87104165D01*
X21799555Y-87116500D01*
X18578766Y-87116500D01*
X18511727Y-87096815D01*
X18465972Y-87044011D01*
X18456028Y-86974853D01*
X18485053Y-86911297D01*
X18491085Y-86904819D01*
X30179671Y-75216233D01*
X46108818Y-59287085D01*
X46125098Y-59274044D01*
X46127016Y-59272000D01*
X46127018Y-59272000D01*
X46142107Y-59255930D01*
X46202347Y-59220536D01*
X46272161Y-59223328D01*
X46329383Y-59263421D01*
X46355845Y-59328086D01*
X46356500Y-59340814D01*
X46356500Y-72196232D01*
X46336815Y-72263271D01*
X46320181Y-72283913D01*
X32327666Y-86276427D01*
X32266343Y-86309912D01*
X32211038Y-86309320D01*
X31986712Y-86255465D01*
X31750000Y-86236835D01*
X31513287Y-86255465D01*
X31282406Y-86310894D01*
X31063035Y-86401761D01*
X30860585Y-86525823D01*
X30680031Y-86680031D01*
X30525823Y-86860585D01*
X30401761Y-87063035D01*
X30310894Y-87282406D01*
X30255465Y-87513287D01*
X30236835Y-87750000D01*
X30255465Y-87986712D01*
X30310894Y-88217593D01*
X30356327Y-88327278D01*
X30401760Y-88436963D01*
X30525824Y-88639416D01*
X30680031Y-88819969D01*
X30860584Y-88974176D01*
X31063037Y-89098240D01*
X31282406Y-89189105D01*
X31513289Y-89244535D01*
X31750000Y-89263165D01*
X31986711Y-89244535D01*
X32217594Y-89189105D01*
X32436963Y-89098240D01*
X32639416Y-88974176D01*
X32819969Y-88819969D01*
X32974176Y-88639416D01*
X33094718Y-88442709D01*
X33146530Y-88395835D01*
X33200445Y-88383500D01*
X36799555Y-88383500D01*
X36866594Y-88403185D01*
X36905281Y-88442709D01*
X37025824Y-88639416D01*
X37180031Y-88819969D01*
X37360584Y-88974176D01*
X37563037Y-89098240D01*
X37782406Y-89189105D01*
X38013289Y-89244535D01*
X38250000Y-89263165D01*
X38486711Y-89244535D01*
X38717594Y-89189105D01*
X38936963Y-89098240D01*
X39139416Y-88974176D01*
X39319969Y-88819969D01*
X39474176Y-88639416D01*
X39598240Y-88436963D01*
X39689105Y-88217594D01*
X39744535Y-87986711D01*
X39763165Y-87750000D01*
X39744535Y-87513289D01*
X39689105Y-87282406D01*
X39598240Y-87063037D01*
X39474176Y-86860584D01*
X39319969Y-86680031D01*
X39139416Y-86525824D01*
X38936963Y-86401760D01*
X38771055Y-86333039D01*
X38717593Y-86310894D01*
X38486712Y-86255465D01*
X38250000Y-86236835D01*
X38013287Y-86255465D01*
X37782406Y-86310894D01*
X37563035Y-86401761D01*
X37360585Y-86525823D01*
X37180031Y-86680031D01*
X37025823Y-86860585D01*
X36905282Y-87057290D01*
X36853470Y-87104165D01*
X36799555Y-87116500D01*
X33578766Y-87116500D01*
X33511727Y-87096815D01*
X33465972Y-87044011D01*
X33456028Y-86974853D01*
X33485053Y-86911297D01*
X33491085Y-86904819D01*
X34469672Y-85926232D01*
X47378816Y-73017086D01*
X47395098Y-73004043D01*
X47397014Y-73002002D01*
X47397018Y-73002000D01*
X47412107Y-72985930D01*
X47472347Y-72950536D01*
X47542161Y-72953328D01*
X47599383Y-72993421D01*
X47625845Y-73058086D01*
X47626500Y-73070814D01*
X47626500Y-85926232D01*
X47606815Y-85993271D01*
X47590181Y-86013913D01*
X47327666Y-86276427D01*
X47266343Y-86309912D01*
X47211038Y-86309320D01*
X46986712Y-86255465D01*
X46750000Y-86236835D01*
X46513287Y-86255465D01*
X46282406Y-86310894D01*
X46063035Y-86401761D01*
X45860585Y-86525823D01*
X45680031Y-86680031D01*
X45525823Y-86860585D01*
X45401761Y-87063035D01*
X45310894Y-87282406D01*
X45255465Y-87513287D01*
X45236835Y-87750000D01*
X45255465Y-87986712D01*
X45310894Y-88217593D01*
X45356327Y-88327278D01*
X45401760Y-88436963D01*
X45525824Y-88639416D01*
X45680031Y-88819969D01*
X45860584Y-88974176D01*
X46063037Y-89098240D01*
X46282406Y-89189105D01*
X46513289Y-89244535D01*
X46750000Y-89263165D01*
X46986711Y-89244535D01*
X47217594Y-89189105D01*
X47436963Y-89098240D01*
X47639416Y-88974176D01*
X47819969Y-88819969D01*
X47974176Y-88639416D01*
X48094718Y-88442709D01*
X48146530Y-88395835D01*
X48200445Y-88383500D01*
X51799555Y-88383500D01*
X51866594Y-88403185D01*
X51905281Y-88442709D01*
X52025824Y-88639416D01*
X52180031Y-88819969D01*
X52360584Y-88974176D01*
X52563037Y-89098240D01*
X52782406Y-89189105D01*
X53013289Y-89244535D01*
X53250000Y-89263165D01*
X53486711Y-89244535D01*
X53717594Y-89189105D01*
X53936963Y-89098240D01*
X54139416Y-88974176D01*
X54319969Y-88819969D01*
X54474176Y-88639416D01*
X54598240Y-88436963D01*
X54689105Y-88217594D01*
X54744535Y-87986711D01*
X54763165Y-87750000D01*
X54744535Y-87513289D01*
X54689105Y-87282406D01*
X54598240Y-87063037D01*
X54474176Y-86860584D01*
X54319969Y-86680031D01*
X54139416Y-86525824D01*
X53936963Y-86401760D01*
X53771055Y-86333039D01*
X53717593Y-86310894D01*
X53486712Y-86255465D01*
X53368355Y-86246149D01*
X53250000Y-86236835D01*
X53249999Y-86236835D01*
X53013287Y-86255465D01*
X52782406Y-86310894D01*
X52563035Y-86401761D01*
X52360585Y-86525823D01*
X52180031Y-86680031D01*
X52025823Y-86860585D01*
X51905282Y-87057290D01*
X51853470Y-87104165D01*
X51799555Y-87116500D01*
X48578765Y-87116500D01*
X48511726Y-87096815D01*
X48465971Y-87044011D01*
X48456027Y-86974853D01*
X48485052Y-86911297D01*
X48491063Y-86904839D01*
X48648820Y-86747082D01*
X48665098Y-86734043D01*
X48667014Y-86732002D01*
X48667018Y-86732000D01*
X48713706Y-86682279D01*
X48716324Y-86679578D01*
X48736134Y-86659770D01*
X48738664Y-86656508D01*
X48746243Y-86647632D01*
X48776586Y-86615321D01*
X48786422Y-86597427D01*
X48797102Y-86581168D01*
X48809613Y-86565041D01*
X48827211Y-86524372D01*
X48832341Y-86513900D01*
X48853695Y-86475060D01*
X48858772Y-86455282D01*
X48865074Y-86436878D01*
X48873181Y-86418145D01*
X48880112Y-86374375D01*
X48882475Y-86362966D01*
X48893500Y-86320030D01*
X48893500Y-86299609D01*
X48895027Y-86280210D01*
X48898219Y-86260057D01*
X48894050Y-86215949D01*
X48893500Y-86204281D01*
X48893500Y-76089133D01*
X48913185Y-76022094D01*
X48965989Y-75976339D01*
X49035147Y-75966395D01*
X49096549Y-75993597D01*
X49098678Y-75995358D01*
X49107308Y-76003212D01*
X60276428Y-87172333D01*
X60309913Y-87233656D01*
X60309321Y-87288961D01*
X60255465Y-87513287D01*
X60236835Y-87750000D01*
X60255465Y-87986712D01*
X60310894Y-88217593D01*
X60356327Y-88327278D01*
X60401760Y-88436963D01*
X60525824Y-88639416D01*
X60680031Y-88819969D01*
X60860584Y-88974176D01*
X61063037Y-89098240D01*
X61282406Y-89189105D01*
X61513289Y-89244535D01*
X61750000Y-89263165D01*
X61986711Y-89244535D01*
X62217594Y-89189105D01*
X62436963Y-89098240D01*
X62639416Y-88974176D01*
X62819969Y-88819969D01*
X62974176Y-88639416D01*
X63094718Y-88442709D01*
X63146530Y-88395835D01*
X63200445Y-88383500D01*
X66799555Y-88383500D01*
X66866594Y-88403185D01*
X66905281Y-88442709D01*
X67025824Y-88639416D01*
X67180031Y-88819969D01*
X67360584Y-88974176D01*
X67563037Y-89098240D01*
X67782406Y-89189105D01*
X68013289Y-89244535D01*
X68250000Y-89263165D01*
X68486711Y-89244535D01*
X68717594Y-89189105D01*
X68936963Y-89098240D01*
X69139416Y-88974176D01*
X69319969Y-88819969D01*
X69474176Y-88639416D01*
X69598240Y-88436963D01*
X69689105Y-88217594D01*
X69744535Y-87986711D01*
X69763165Y-87750000D01*
X69744535Y-87513289D01*
X69689105Y-87282406D01*
X69598240Y-87063037D01*
X69474176Y-86860584D01*
X69319969Y-86680031D01*
X69139416Y-86525824D01*
X68936963Y-86401760D01*
X68771055Y-86333039D01*
X68717593Y-86310894D01*
X68486712Y-86255465D01*
X68250000Y-86236835D01*
X68013287Y-86255465D01*
X67782406Y-86310894D01*
X67563035Y-86401761D01*
X67360585Y-86525823D01*
X67180031Y-86680031D01*
X67025823Y-86860585D01*
X66905282Y-87057290D01*
X66853470Y-87104165D01*
X66799555Y-87116500D01*
X63200445Y-87116500D01*
X63133406Y-87096815D01*
X63094718Y-87057290D01*
X63001283Y-86904819D01*
X62974176Y-86860584D01*
X62819969Y-86680031D01*
X62639416Y-86525824D01*
X62436963Y-86401760D01*
X62271055Y-86333039D01*
X62217593Y-86310894D01*
X61986712Y-86255465D01*
X61750000Y-86236835D01*
X61513287Y-86255465D01*
X61288960Y-86309321D01*
X61219177Y-86305830D01*
X61172332Y-86276428D01*
X50199819Y-75303914D01*
X50166334Y-75242591D01*
X50163500Y-75216233D01*
X50163500Y-62359133D01*
X50183185Y-62292094D01*
X50235989Y-62246339D01*
X50305147Y-62236395D01*
X50366549Y-62263597D01*
X50368678Y-62265358D01*
X50377308Y-62273212D01*
X75276428Y-87172333D01*
X75309913Y-87233656D01*
X75309321Y-87288961D01*
X75255465Y-87513287D01*
X75236835Y-87750000D01*
X75255465Y-87986712D01*
X75310894Y-88217593D01*
X75356327Y-88327278D01*
X75401760Y-88436963D01*
X75525824Y-88639416D01*
X75680031Y-88819969D01*
X75860584Y-88974176D01*
X76063037Y-89098240D01*
X76282406Y-89189105D01*
X76513289Y-89244535D01*
X76750000Y-89263165D01*
X76986711Y-89244535D01*
X77217594Y-89189105D01*
X77436963Y-89098240D01*
X77639416Y-88974176D01*
X77819969Y-88819969D01*
X77974176Y-88639416D01*
X78094718Y-88442709D01*
X78146530Y-88395835D01*
X78200445Y-88383500D01*
X81799555Y-88383500D01*
X81866594Y-88403185D01*
X81905281Y-88442709D01*
X82025824Y-88639416D01*
X82180031Y-88819969D01*
X82360584Y-88974176D01*
X82563037Y-89098240D01*
X82782406Y-89189105D01*
X83013289Y-89244535D01*
X83250000Y-89263165D01*
X83486711Y-89244535D01*
X83717594Y-89189105D01*
X83936963Y-89098240D01*
X84139416Y-88974176D01*
X84319969Y-88819969D01*
X84474176Y-88639416D01*
X84598240Y-88436963D01*
X84689105Y-88217594D01*
X84744535Y-87986711D01*
X84763165Y-87750000D01*
X84744535Y-87513289D01*
X84689105Y-87282406D01*
X84598240Y-87063037D01*
X84474176Y-86860584D01*
X84319969Y-86680031D01*
X84139416Y-86525824D01*
X83936963Y-86401760D01*
X83771055Y-86333039D01*
X83717593Y-86310894D01*
X83486712Y-86255465D01*
X83250000Y-86236835D01*
X83013287Y-86255465D01*
X82782406Y-86310894D01*
X82563035Y-86401761D01*
X82360585Y-86525823D01*
X82180031Y-86680031D01*
X82025823Y-86860585D01*
X81905282Y-87057290D01*
X81853470Y-87104165D01*
X81799555Y-87116500D01*
X78200445Y-87116500D01*
X78133406Y-87096815D01*
X78094718Y-87057290D01*
X78001283Y-86904819D01*
X77974176Y-86860584D01*
X77819969Y-86680031D01*
X77639416Y-86525824D01*
X77436963Y-86401760D01*
X77271055Y-86333039D01*
X77217593Y-86310894D01*
X76986712Y-86255465D01*
X76868355Y-86246149D01*
X76750000Y-86236835D01*
X76749999Y-86236835D01*
X76513287Y-86255465D01*
X76288960Y-86309321D01*
X76219177Y-86305830D01*
X76172332Y-86276428D01*
X51469819Y-61573914D01*
X51436334Y-61512591D01*
X51433500Y-61486233D01*
X51433500Y-48179999D01*
X82096568Y-48179999D01*
X82116264Y-48442824D01*
X82160436Y-48636353D01*
X82174913Y-48699780D01*
X82271204Y-48945124D01*
X82402985Y-49173376D01*
X82567314Y-49379438D01*
X82567316Y-49379440D01*
X82567317Y-49379441D01*
X82760513Y-49558701D01*
X82760515Y-49558702D01*
X82760519Y-49558706D01*
X82978285Y-49707176D01*
X83215746Y-49821532D01*
X83467600Y-49899218D01*
X83681964Y-49931528D01*
X83728218Y-49938500D01*
X83728219Y-49938500D01*
X83991782Y-49938500D01*
X84031064Y-49932579D01*
X84252400Y-49899218D01*
X84504254Y-49821532D01*
X84593933Y-49778344D01*
X84662872Y-49766993D01*
X84727007Y-49794715D01*
X84765973Y-49852710D01*
X84767398Y-49922565D01*
X84763161Y-49935367D01*
X84674913Y-50160217D01*
X84616264Y-50417175D01*
X84596568Y-50679999D01*
X84616264Y-50942824D01*
X84674913Y-51199780D01*
X84771204Y-51445124D01*
X84895328Y-51660115D01*
X84902985Y-51673376D01*
X85067314Y-51879438D01*
X85067316Y-51879440D01*
X85067317Y-51879441D01*
X85260513Y-52058701D01*
X85260515Y-52058702D01*
X85260519Y-52058706D01*
X85478285Y-52207176D01*
X85715746Y-52321532D01*
X85967600Y-52399218D01*
X86181964Y-52431528D01*
X86228218Y-52438500D01*
X86228219Y-52438500D01*
X86491782Y-52438500D01*
X86531063Y-52432579D01*
X86752400Y-52399218D01*
X87004254Y-52321532D01*
X87241716Y-52207176D01*
X87459481Y-52058706D01*
X87652686Y-51879438D01*
X87817015Y-51673376D01*
X87948796Y-51445124D01*
X88045087Y-51199780D01*
X88103735Y-50942826D01*
X88123431Y-50680000D01*
X88103735Y-50417174D01*
X88045087Y-50160220D01*
X87948796Y-49914876D01*
X87817015Y-49686624D01*
X87652686Y-49480562D01*
X87652685Y-49480561D01*
X87459483Y-49301295D01*
X87241713Y-49152822D01*
X87004252Y-49038467D01*
X86752401Y-48960782D01*
X86491782Y-48921500D01*
X86491781Y-48921500D01*
X86228219Y-48921500D01*
X86228218Y-48921500D01*
X85967598Y-48960782D01*
X85715747Y-49038467D01*
X85626068Y-49081655D01*
X85557126Y-49093007D01*
X85492992Y-49065285D01*
X85454026Y-49007290D01*
X85452601Y-48937435D01*
X85456834Y-48924641D01*
X85545087Y-48699780D01*
X85603735Y-48442826D01*
X85623431Y-48180000D01*
X85603735Y-47917174D01*
X85545087Y-47660220D01*
X85448796Y-47414876D01*
X85317015Y-47186624D01*
X85152686Y-46980562D01*
X85055202Y-46890110D01*
X84959483Y-46801295D01*
X84741713Y-46652822D01*
X84504252Y-46538467D01*
X84252401Y-46460782D01*
X83991782Y-46421500D01*
X83991781Y-46421500D01*
X83728219Y-46421500D01*
X83728218Y-46421500D01*
X83467598Y-46460782D01*
X83215748Y-46538467D01*
X82978287Y-46652822D01*
X82760513Y-46801298D01*
X82567317Y-46980558D01*
X82402984Y-47186624D01*
X82271204Y-47414875D01*
X82174913Y-47660219D01*
X82116264Y-47917175D01*
X82096568Y-48179999D01*
X51433500Y-48179999D01*
X51433500Y-43180000D01*
X84596568Y-43180000D01*
X84616264Y-43442824D01*
X84674913Y-43699780D01*
X84771204Y-43945124D01*
X84901287Y-44170436D01*
X84902985Y-44173376D01*
X85067314Y-44379438D01*
X85067316Y-44379440D01*
X85067317Y-44379441D01*
X85260513Y-44558701D01*
X85260515Y-44558702D01*
X85260519Y-44558706D01*
X85478285Y-44707176D01*
X85715746Y-44821532D01*
X85967600Y-44899218D01*
X86181964Y-44931528D01*
X86228218Y-44938500D01*
X86228219Y-44938500D01*
X86491782Y-44938500D01*
X86622090Y-44918859D01*
X86752400Y-44899218D01*
X87004254Y-44821532D01*
X87004256Y-44821530D01*
X87010331Y-44819657D01*
X87080195Y-44818707D01*
X87134562Y-44850467D01*
X90852912Y-48568817D01*
X90865956Y-48585098D01*
X90867999Y-48587016D01*
X90868000Y-48587018D01*
X90917684Y-48633674D01*
X90920448Y-48636353D01*
X90940230Y-48656135D01*
X90943306Y-48658521D01*
X90943503Y-48658674D01*
X90952372Y-48666249D01*
X90984679Y-48696586D01*
X91002564Y-48706418D01*
X91018825Y-48717099D01*
X91034959Y-48729614D01*
X91075625Y-48747210D01*
X91086112Y-48752348D01*
X91124940Y-48773695D01*
X91144708Y-48778770D01*
X91163119Y-48785073D01*
X91181855Y-48793181D01*
X91225626Y-48800113D01*
X91237041Y-48802477D01*
X91279970Y-48813500D01*
X91300384Y-48813500D01*
X91319783Y-48815027D01*
X91339943Y-48818220D01*
X91384056Y-48814050D01*
X91395726Y-48813500D01*
X94522097Y-48813500D01*
X94589136Y-48833185D01*
X94634891Y-48885989D01*
X94642988Y-48909907D01*
X94674913Y-49049780D01*
X94771204Y-49295124D01*
X94902984Y-49523375D01*
X95067314Y-49729438D01*
X95260516Y-49908704D01*
X95260519Y-49908706D01*
X95478284Y-50057176D01*
X95715746Y-50171532D01*
X95967600Y-50249218D01*
X96181964Y-50281528D01*
X96228218Y-50288500D01*
X96228219Y-50288500D01*
X96491782Y-50288500D01*
X96531063Y-50282579D01*
X96752400Y-50249218D01*
X97004254Y-50171532D01*
X97241715Y-50057176D01*
X97459481Y-49908706D01*
X97652686Y-49729438D01*
X97817015Y-49523376D01*
X97948796Y-49295124D01*
X98045087Y-49049780D01*
X98103735Y-48792826D01*
X98118500Y-48595800D01*
X98118500Y-47764200D01*
X98103735Y-47567174D01*
X98045087Y-47310220D01*
X97948796Y-47064876D01*
X97817015Y-46836624D01*
X97652686Y-46630562D01*
X97568979Y-46552893D01*
X97459483Y-46451295D01*
X97241713Y-46302822D01*
X97004252Y-46188467D01*
X96752401Y-46110782D01*
X96491782Y-46071500D01*
X96491781Y-46071500D01*
X96228219Y-46071500D01*
X96228218Y-46071500D01*
X95967598Y-46110782D01*
X95715748Y-46188467D01*
X95478287Y-46302822D01*
X95260513Y-46451298D01*
X95067317Y-46630558D01*
X94902984Y-46836624D01*
X94771204Y-47064875D01*
X94674913Y-47310219D01*
X94642988Y-47450093D01*
X94608879Y-47511071D01*
X94547218Y-47543929D01*
X94522097Y-47546500D01*
X91673766Y-47546500D01*
X91606727Y-47526815D01*
X91586085Y-47510181D01*
X88026563Y-43950658D01*
X87993078Y-43889335D01*
X87998062Y-43819643D01*
X87998790Y-43817740D01*
X88045087Y-43699780D01*
X88103735Y-43442826D01*
X88123431Y-43180000D01*
X88103735Y-42917174D01*
X88045087Y-42660220D01*
X87998814Y-42542322D01*
X87992646Y-42472727D01*
X88025083Y-42410844D01*
X88026500Y-42409402D01*
X91586085Y-38849819D01*
X91647409Y-38816334D01*
X91673767Y-38813500D01*
X94522097Y-38813500D01*
X94589136Y-38833185D01*
X94634891Y-38885989D01*
X94642988Y-38909907D01*
X94674913Y-39049780D01*
X94771204Y-39295124D01*
X94902984Y-39523375D01*
X95067314Y-39729438D01*
X95260516Y-39908704D01*
X95260519Y-39908706D01*
X95478284Y-40057176D01*
X95715746Y-40171532D01*
X95967600Y-40249218D01*
X96181964Y-40281528D01*
X96228218Y-40288500D01*
X96228219Y-40288500D01*
X96491782Y-40288500D01*
X96531064Y-40282579D01*
X96752400Y-40249218D01*
X97004254Y-40171532D01*
X97241715Y-40057176D01*
X97459481Y-39908706D01*
X97652686Y-39729438D01*
X97817015Y-39523376D01*
X97948796Y-39295124D01*
X98045087Y-39049780D01*
X98103735Y-38792826D01*
X98118500Y-38595800D01*
X98118500Y-37764200D01*
X98103735Y-37567174D01*
X98045087Y-37310220D01*
X97948796Y-37064876D01*
X97817015Y-36836624D01*
X97652686Y-36630562D01*
X97572448Y-36556112D01*
X97459483Y-36451295D01*
X97241713Y-36302822D01*
X97004252Y-36188467D01*
X96752401Y-36110782D01*
X96491782Y-36071500D01*
X96491781Y-36071500D01*
X96228219Y-36071500D01*
X96228218Y-36071500D01*
X95967598Y-36110782D01*
X95715748Y-36188467D01*
X95478287Y-36302822D01*
X95260513Y-36451298D01*
X95067317Y-36630558D01*
X94902984Y-36836624D01*
X94771204Y-37064875D01*
X94674913Y-37310219D01*
X94642988Y-37450093D01*
X94608879Y-37511071D01*
X94547218Y-37543929D01*
X94522097Y-37546500D01*
X91443633Y-37546500D01*
X91422890Y-37544210D01*
X91351969Y-37546439D01*
X91348074Y-37546500D01*
X91320144Y-37546500D01*
X91316289Y-37546986D01*
X91316255Y-37546989D01*
X91316024Y-37547019D01*
X91304404Y-37547933D01*
X91260110Y-37549325D01*
X91240501Y-37555022D01*
X91221461Y-37558965D01*
X91201205Y-37561525D01*
X91160005Y-37577836D01*
X91148961Y-37581617D01*
X91106410Y-37593981D01*
X91106407Y-37593982D01*
X91088827Y-37604377D01*
X91071370Y-37612930D01*
X91052378Y-37620449D01*
X91016534Y-37646491D01*
X91006777Y-37652901D01*
X90968638Y-37675457D01*
X90954200Y-37689895D01*
X90939411Y-37702525D01*
X90922894Y-37714525D01*
X90894644Y-37748673D01*
X90886783Y-37757311D01*
X87134561Y-41509532D01*
X87073238Y-41543017D01*
X87010331Y-41540342D01*
X86752401Y-41460782D01*
X86491782Y-41421500D01*
X86491781Y-41421500D01*
X86228219Y-41421500D01*
X86228218Y-41421500D01*
X85967598Y-41460782D01*
X85715748Y-41538467D01*
X85478287Y-41652822D01*
X85260513Y-41801298D01*
X85067317Y-41980558D01*
X84902984Y-42186624D01*
X84771204Y-42414875D01*
X84674913Y-42660219D01*
X84616264Y-42917175D01*
X84596568Y-43180000D01*
X51433500Y-43180000D01*
X51433500Y-41993627D01*
X51435789Y-41972894D01*
X51433561Y-41901999D01*
X51433500Y-41898104D01*
X51433500Y-41874035D01*
X51433500Y-41870144D01*
X51432982Y-41866043D01*
X51432064Y-41854387D01*
X51430673Y-41810110D01*
X51424978Y-41790511D01*
X51421033Y-41771462D01*
X51418474Y-41751203D01*
X51402162Y-41710004D01*
X51398377Y-41698950D01*
X51386018Y-41656407D01*
X51383007Y-41651316D01*
X51375624Y-41638831D01*
X51367064Y-41621357D01*
X51359552Y-41602384D01*
X51359552Y-41602383D01*
X51333510Y-41566540D01*
X51327095Y-41556773D01*
X51304544Y-41518639D01*
X51297406Y-41511501D01*
X51290101Y-41504196D01*
X51277469Y-41489405D01*
X51265474Y-41472895D01*
X51265472Y-41472893D01*
X51231324Y-41444643D01*
X51222696Y-41436791D01*
X47965905Y-38180000D01*
X82096568Y-38180000D01*
X82116264Y-38442824D01*
X82150651Y-38593483D01*
X82174913Y-38699780D01*
X82271204Y-38945124D01*
X82402985Y-39173376D01*
X82567314Y-39379438D01*
X82567316Y-39379440D01*
X82567317Y-39379441D01*
X82760513Y-39558701D01*
X82760515Y-39558702D01*
X82760519Y-39558706D01*
X82978285Y-39707176D01*
X83215746Y-39821532D01*
X83467600Y-39899218D01*
X83681964Y-39931528D01*
X83728218Y-39938500D01*
X83728219Y-39938500D01*
X83991782Y-39938500D01*
X84031064Y-39932579D01*
X84252400Y-39899218D01*
X84504254Y-39821532D01*
X84741716Y-39707176D01*
X84959481Y-39558706D01*
X85152686Y-39379438D01*
X85317015Y-39173376D01*
X85448796Y-38945124D01*
X85545087Y-38699780D01*
X85603735Y-38442826D01*
X85623431Y-38180000D01*
X85603735Y-37917174D01*
X85545087Y-37660220D01*
X85545086Y-37660217D01*
X85456838Y-37435366D01*
X85450669Y-37365770D01*
X85483107Y-37303886D01*
X85543852Y-37269363D01*
X85613618Y-37273162D01*
X85626045Y-37278334D01*
X85715746Y-37321532D01*
X85967600Y-37399218D01*
X86181964Y-37431528D01*
X86228218Y-37438500D01*
X86228219Y-37438500D01*
X86491782Y-37438500D01*
X86531064Y-37432579D01*
X86752400Y-37399218D01*
X87004254Y-37321532D01*
X87241716Y-37207176D01*
X87459481Y-37058706D01*
X87652686Y-36879438D01*
X87817015Y-36673376D01*
X87948796Y-36445124D01*
X88045087Y-36199780D01*
X88103735Y-35942826D01*
X88123431Y-35680000D01*
X88103735Y-35417174D01*
X88045087Y-35160220D01*
X87948796Y-34914876D01*
X87817015Y-34686624D01*
X87652686Y-34480562D01*
X87652682Y-34480558D01*
X87459483Y-34301295D01*
X87241713Y-34152822D01*
X87004252Y-34038467D01*
X86752401Y-33960782D01*
X86491782Y-33921500D01*
X86491781Y-33921500D01*
X86228219Y-33921500D01*
X86228218Y-33921500D01*
X85967598Y-33960782D01*
X85715748Y-34038467D01*
X85478287Y-34152822D01*
X85260513Y-34301298D01*
X85067317Y-34480558D01*
X84902984Y-34686624D01*
X84771204Y-34914875D01*
X84674913Y-35160219D01*
X84616264Y-35417175D01*
X84596568Y-35679999D01*
X84616264Y-35942824D01*
X84674913Y-36199782D01*
X84763161Y-36424632D01*
X84769330Y-36494228D01*
X84736892Y-36556112D01*
X84676147Y-36590635D01*
X84606381Y-36586836D01*
X84593932Y-36581654D01*
X84504255Y-36538468D01*
X84252401Y-36460782D01*
X83991782Y-36421500D01*
X83991781Y-36421500D01*
X83728219Y-36421500D01*
X83728218Y-36421500D01*
X83467598Y-36460782D01*
X83215748Y-36538467D01*
X82978287Y-36652822D01*
X82760513Y-36801298D01*
X82567317Y-36980558D01*
X82402984Y-37186624D01*
X82271204Y-37414875D01*
X82174913Y-37660219D01*
X82116264Y-37917175D01*
X82096568Y-38180000D01*
X47965905Y-38180000D01*
X43687088Y-33901183D01*
X43674044Y-33884902D01*
X43672000Y-33882983D01*
X43672000Y-33882982D01*
X43622315Y-33836325D01*
X43619550Y-33833645D01*
X43602527Y-33816622D01*
X43599770Y-33813865D01*
X43596486Y-33811317D01*
X43587623Y-33803746D01*
X43555321Y-33773414D01*
X43537433Y-33763580D01*
X43521169Y-33752896D01*
X43505040Y-33740385D01*
X43464377Y-33722789D01*
X43453883Y-33717648D01*
X43415062Y-33696305D01*
X43403386Y-33693307D01*
X43395284Y-33691227D01*
X43376879Y-33684926D01*
X43358145Y-33676819D01*
X43358143Y-33676818D01*
X43358142Y-33676818D01*
X43314383Y-33669887D01*
X43302943Y-33667518D01*
X43260031Y-33656500D01*
X43260030Y-33656500D01*
X43239616Y-33656500D01*
X43220217Y-33654973D01*
X43200058Y-33651780D01*
X43200057Y-33651780D01*
X43167318Y-33654874D01*
X43155943Y-33655950D01*
X43144274Y-33656500D01*
X41833936Y-33656500D01*
X41766897Y-33636815D01*
X41732363Y-33603625D01*
X41630819Y-33458604D01*
X41471396Y-33299181D01*
X41286712Y-33169864D01*
X41236860Y-33146618D01*
X41206329Y-33132381D01*
X41153891Y-33086210D01*
X41134739Y-33019016D01*
X41154955Y-32952135D01*
X41206329Y-32907618D01*
X41286711Y-32870136D01*
X41471396Y-32740819D01*
X41630819Y-32581396D01*
X41760136Y-32396711D01*
X41855419Y-32192376D01*
X41913772Y-31974600D01*
X41933422Y-31750000D01*
X41913772Y-31525400D01*
X41855419Y-31307624D01*
X41760136Y-31103289D01*
X41630819Y-30918604D01*
X41471396Y-30759181D01*
X41471396Y-30759180D01*
X41286712Y-30629864D01*
X41236860Y-30606618D01*
X41206329Y-30592381D01*
X41153891Y-30546210D01*
X41134739Y-30479016D01*
X41154955Y-30412135D01*
X41206329Y-30367618D01*
X41286711Y-30330136D01*
X41471396Y-30200819D01*
X41630819Y-30041396D01*
X41760136Y-29856711D01*
X41855419Y-29652376D01*
X41913772Y-29434600D01*
X41933422Y-29210000D01*
X41913772Y-28985400D01*
X41855419Y-28767624D01*
X41760136Y-28563289D01*
X41630819Y-28378604D01*
X41471396Y-28219181D01*
X41471396Y-28219180D01*
X41286712Y-28089864D01*
X41236860Y-28066618D01*
X41206329Y-28052381D01*
X41153891Y-28006210D01*
X41134739Y-27939016D01*
X41154955Y-27872135D01*
X41168960Y-27859999D01*
X82096568Y-27859999D01*
X82116264Y-28122824D01*
X82138257Y-28219181D01*
X82174913Y-28379780D01*
X82271204Y-28625124D01*
X82402985Y-28853376D01*
X82567314Y-29059438D01*
X82567316Y-29059440D01*
X82567317Y-29059441D01*
X82760513Y-29238701D01*
X82760515Y-29238702D01*
X82760519Y-29238706D01*
X82978285Y-29387176D01*
X83215746Y-29501532D01*
X83467600Y-29579218D01*
X83681964Y-29611528D01*
X83728218Y-29618500D01*
X83728219Y-29618500D01*
X83991782Y-29618500D01*
X84031064Y-29612579D01*
X84252400Y-29579218D01*
X84504254Y-29501532D01*
X84593933Y-29458344D01*
X84662872Y-29446993D01*
X84727007Y-29474715D01*
X84765973Y-29532710D01*
X84767398Y-29602565D01*
X84763161Y-29615367D01*
X84674913Y-29840217D01*
X84616264Y-30097175D01*
X84596568Y-30359999D01*
X84616264Y-30622824D01*
X84617871Y-30629864D01*
X84674913Y-30879780D01*
X84771204Y-31125124D01*
X84902985Y-31353376D01*
X85067314Y-31559438D01*
X85067316Y-31559440D01*
X85067317Y-31559441D01*
X85260513Y-31738701D01*
X85260515Y-31738702D01*
X85260519Y-31738706D01*
X85478285Y-31887176D01*
X85715746Y-32001532D01*
X85967600Y-32079218D01*
X86181964Y-32111528D01*
X86228218Y-32118500D01*
X86228219Y-32118500D01*
X86491782Y-32118500D01*
X86531064Y-32112579D01*
X86752400Y-32079218D01*
X87004254Y-32001532D01*
X87241716Y-31887176D01*
X87459481Y-31738706D01*
X87652686Y-31559438D01*
X87817015Y-31353376D01*
X87948796Y-31125124D01*
X88045087Y-30879780D01*
X88103735Y-30622826D01*
X88123431Y-30360000D01*
X88103735Y-30097174D01*
X88045087Y-29840220D01*
X87948796Y-29594876D01*
X87817015Y-29366624D01*
X87652686Y-29160562D01*
X87652685Y-29160561D01*
X87459483Y-28981295D01*
X87241713Y-28832822D01*
X87004252Y-28718467D01*
X86752401Y-28640782D01*
X86491782Y-28601500D01*
X86491781Y-28601500D01*
X86228219Y-28601500D01*
X86228218Y-28601500D01*
X85967598Y-28640782D01*
X85715747Y-28718467D01*
X85626068Y-28761655D01*
X85557126Y-28773007D01*
X85492992Y-28745285D01*
X85454026Y-28687290D01*
X85452601Y-28617435D01*
X85456834Y-28604641D01*
X85545087Y-28379780D01*
X85569422Y-28273162D01*
X94610000Y-28273162D01*
X94610173Y-28277794D01*
X94624693Y-28471552D01*
X94683059Y-28727270D01*
X94778882Y-28971424D01*
X94910027Y-29198573D01*
X95073562Y-29403640D01*
X95265833Y-29582042D01*
X95482545Y-29729793D01*
X95718860Y-29843596D01*
X95969496Y-29920908D01*
X96110000Y-29942085D01*
X96110000Y-28234624D01*
X96124505Y-28307545D01*
X96179760Y-28390240D01*
X96262455Y-28445495D01*
X96360000Y-28464898D01*
X96457545Y-28445495D01*
X96540240Y-28390240D01*
X96595495Y-28307545D01*
X96610000Y-28234624D01*
X96610000Y-29942084D01*
X96750503Y-29920908D01*
X97001139Y-29843596D01*
X97237453Y-29729793D01*
X97454165Y-29582042D01*
X97646437Y-29403640D01*
X97809972Y-29198573D01*
X97941117Y-28971424D01*
X98036940Y-28727270D01*
X98095306Y-28471552D01*
X98109826Y-28277794D01*
X98110000Y-28273162D01*
X98110000Y-28110000D01*
X96610000Y-28110000D01*
X96610000Y-27610000D01*
X98110000Y-27610000D01*
X98110000Y-27446837D01*
X98109826Y-27442205D01*
X98095306Y-27248447D01*
X98036940Y-26992729D01*
X97941117Y-26748575D01*
X97809972Y-26521426D01*
X97646437Y-26316359D01*
X97454166Y-26137957D01*
X97237454Y-25990206D01*
X97001139Y-25876403D01*
X96750503Y-25799091D01*
X96610000Y-25777914D01*
X96610000Y-27485376D01*
X96595495Y-27412455D01*
X96540240Y-27329760D01*
X96457545Y-27274505D01*
X96360000Y-27255102D01*
X96262455Y-27274505D01*
X96179760Y-27329760D01*
X96124505Y-27412455D01*
X96110000Y-27485376D01*
X96110000Y-25777914D01*
X95969496Y-25799091D01*
X95718860Y-25876403D01*
X95482546Y-25990206D01*
X95265834Y-26137957D01*
X95073562Y-26316359D01*
X94910027Y-26521426D01*
X94778882Y-26748575D01*
X94683059Y-26992729D01*
X94624693Y-27248447D01*
X94610173Y-27442205D01*
X94610000Y-27446837D01*
X94610000Y-27610000D01*
X96110000Y-27610000D01*
X96110000Y-28110000D01*
X94610000Y-28110000D01*
X94610000Y-28273162D01*
X85569422Y-28273162D01*
X85603735Y-28122826D01*
X85623431Y-27860000D01*
X85603735Y-27597174D01*
X85545087Y-27340220D01*
X85448796Y-27094876D01*
X85317015Y-26866624D01*
X85152686Y-26660562D01*
X85152682Y-26660558D01*
X84959483Y-26481295D01*
X84741713Y-26332822D01*
X84504252Y-26218467D01*
X84252401Y-26140782D01*
X83991782Y-26101500D01*
X83991781Y-26101500D01*
X83728219Y-26101500D01*
X83728218Y-26101500D01*
X83467598Y-26140782D01*
X83215748Y-26218467D01*
X82978287Y-26332822D01*
X82760513Y-26481298D01*
X82567317Y-26660558D01*
X82402984Y-26866624D01*
X82271204Y-27094875D01*
X82174913Y-27340219D01*
X82116264Y-27597175D01*
X82096568Y-27859999D01*
X41168960Y-27859999D01*
X41206329Y-27827618D01*
X41286711Y-27790136D01*
X41471396Y-27660819D01*
X41630819Y-27501396D01*
X41760136Y-27316711D01*
X41855419Y-27112376D01*
X41913772Y-26894600D01*
X41933422Y-26670000D01*
X41913772Y-26445400D01*
X41855419Y-26227624D01*
X41760136Y-26023289D01*
X41630819Y-25838604D01*
X41471396Y-25679181D01*
X41471395Y-25679180D01*
X41286713Y-25549865D01*
X41206329Y-25512381D01*
X41153890Y-25466208D01*
X41134739Y-25399014D01*
X41154955Y-25332133D01*
X41206326Y-25287619D01*
X41286711Y-25250136D01*
X41471396Y-25120819D01*
X41630819Y-24961396D01*
X41760136Y-24776711D01*
X41855419Y-24572376D01*
X41913772Y-24354600D01*
X41933422Y-24130000D01*
X41913772Y-23905400D01*
X41855419Y-23687624D01*
X41760136Y-23483289D01*
X41630819Y-23298604D01*
X41471396Y-23139181D01*
X41429721Y-23110000D01*
X41286712Y-23009864D01*
X41228599Y-22982766D01*
X41206329Y-22972381D01*
X41153891Y-22926210D01*
X41134739Y-22859016D01*
X41154955Y-22792135D01*
X41206329Y-22747618D01*
X41286711Y-22710136D01*
X41429722Y-22609999D01*
X84623827Y-22609999D01*
X84623828Y-22610000D01*
X85759272Y-22610000D01*
X85736900Y-22657543D01*
X85706127Y-22818862D01*
X85716439Y-22982766D01*
X85757780Y-23110000D01*
X84623828Y-23110000D01*
X84624693Y-23121552D01*
X84683059Y-23377270D01*
X84778882Y-23621424D01*
X84910027Y-23848573D01*
X85073562Y-24053640D01*
X85265834Y-24232042D01*
X85482546Y-24379793D01*
X85718860Y-24493596D01*
X85969496Y-24570908D01*
X86110000Y-24592085D01*
X86110000Y-23464310D01*
X86118817Y-23469158D01*
X86277886Y-23510000D01*
X86400894Y-23510000D01*
X86522933Y-23494583D01*
X86610000Y-23460110D01*
X86610000Y-24592084D01*
X86750503Y-24570908D01*
X87001139Y-24493596D01*
X87237454Y-24379793D01*
X87454166Y-24232042D01*
X87646437Y-24053640D01*
X87809972Y-23848573D01*
X87941117Y-23621424D01*
X88036940Y-23377270D01*
X88095306Y-23121552D01*
X88096172Y-23110000D01*
X86960728Y-23110000D01*
X86983100Y-23062457D01*
X87013873Y-22901138D01*
X87003561Y-22737234D01*
X86962220Y-22610000D01*
X88096172Y-22610000D01*
X88096172Y-22609999D01*
X88095306Y-22598447D01*
X88036940Y-22342729D01*
X87941117Y-22098575D01*
X87809972Y-21871426D01*
X87646437Y-21666359D01*
X87454166Y-21487957D01*
X87237454Y-21340206D01*
X87001139Y-21226403D01*
X86750503Y-21149091D01*
X86610000Y-21127914D01*
X86610000Y-22255689D01*
X86601183Y-22250842D01*
X86442114Y-22210000D01*
X86319106Y-22210000D01*
X86197067Y-22225417D01*
X86109999Y-22259889D01*
X86110000Y-21127914D01*
X85969496Y-21149091D01*
X85718860Y-21226403D01*
X85482546Y-21340206D01*
X85265834Y-21487957D01*
X85073562Y-21666359D01*
X84910027Y-21871426D01*
X84778882Y-22098575D01*
X84683059Y-22342729D01*
X84624693Y-22598447D01*
X84623827Y-22609999D01*
X41429722Y-22609999D01*
X41471396Y-22580819D01*
X41630819Y-22421396D01*
X41760136Y-22236711D01*
X41855419Y-22032376D01*
X41913772Y-21814600D01*
X41933422Y-21590000D01*
X41913772Y-21365400D01*
X41855419Y-21147624D01*
X41760136Y-20943289D01*
X41630819Y-20758604D01*
X41471396Y-20599181D01*
X41471396Y-20599180D01*
X41286712Y-20469864D01*
X41236860Y-20446618D01*
X41206329Y-20432381D01*
X41153891Y-20386210D01*
X41134739Y-20319016D01*
X41154955Y-20252135D01*
X41206329Y-20207618D01*
X41286711Y-20170136D01*
X41471396Y-20040819D01*
X41630819Y-19881396D01*
X41760136Y-19696711D01*
X41855419Y-19492376D01*
X41913772Y-19274600D01*
X41933422Y-19050000D01*
X41913772Y-18825400D01*
X41855419Y-18607624D01*
X41760136Y-18403289D01*
X41630819Y-18218604D01*
X41471396Y-18059181D01*
X41471395Y-18059180D01*
X41286712Y-17929864D01*
X41236860Y-17906618D01*
X41206329Y-17892381D01*
X41169552Y-17859999D01*
X82096568Y-17859999D01*
X82116264Y-18122824D01*
X82141782Y-18234624D01*
X82174913Y-18379780D01*
X82271204Y-18625124D01*
X82402985Y-18853376D01*
X82567314Y-19059438D01*
X82567316Y-19059440D01*
X82567317Y-19059441D01*
X82760513Y-19238701D01*
X82760515Y-19238702D01*
X82760519Y-19238706D01*
X82978285Y-19387176D01*
X83215746Y-19501532D01*
X83467600Y-19579218D01*
X83681964Y-19611528D01*
X83728218Y-19618500D01*
X83728219Y-19618500D01*
X83991782Y-19618500D01*
X84031064Y-19612579D01*
X84252400Y-19579218D01*
X84504254Y-19501532D01*
X84741716Y-19387176D01*
X84959481Y-19238706D01*
X85152686Y-19059438D01*
X85317015Y-18853376D01*
X85448796Y-18625124D01*
X85545087Y-18379780D01*
X85569422Y-18273162D01*
X94610000Y-18273162D01*
X94610173Y-18277794D01*
X94624693Y-18471552D01*
X94683059Y-18727270D01*
X94778882Y-18971424D01*
X94910027Y-19198573D01*
X95073562Y-19403640D01*
X95265833Y-19582042D01*
X95482545Y-19729793D01*
X95718860Y-19843596D01*
X95969496Y-19920908D01*
X96110000Y-19942085D01*
X96110000Y-18234624D01*
X96124505Y-18307545D01*
X96179760Y-18390240D01*
X96262455Y-18445495D01*
X96360000Y-18464898D01*
X96457545Y-18445495D01*
X96540240Y-18390240D01*
X96595495Y-18307545D01*
X96610000Y-18234624D01*
X96610000Y-19942084D01*
X96750503Y-19920908D01*
X97001139Y-19843596D01*
X97237453Y-19729793D01*
X97454165Y-19582042D01*
X97646437Y-19403640D01*
X97809972Y-19198573D01*
X97941117Y-18971424D01*
X98036940Y-18727270D01*
X98095306Y-18471552D01*
X98109826Y-18277794D01*
X98110000Y-18273162D01*
X98110000Y-18110000D01*
X96610000Y-18110000D01*
X96610000Y-17610000D01*
X98110000Y-17610000D01*
X98110000Y-17446837D01*
X98109826Y-17442205D01*
X98095306Y-17248447D01*
X98036940Y-16992729D01*
X97941117Y-16748575D01*
X97809972Y-16521426D01*
X97646437Y-16316359D01*
X97454166Y-16137957D01*
X97237454Y-15990206D01*
X97001139Y-15876403D01*
X96750503Y-15799091D01*
X96610000Y-15777914D01*
X96610000Y-17485376D01*
X96595495Y-17412455D01*
X96540240Y-17329760D01*
X96457545Y-17274505D01*
X96360000Y-17255102D01*
X96262455Y-17274505D01*
X96179760Y-17329760D01*
X96124505Y-17412455D01*
X96110000Y-17485376D01*
X96110000Y-15777914D01*
X95969496Y-15799091D01*
X95718860Y-15876403D01*
X95482546Y-15990206D01*
X95265834Y-16137957D01*
X95073562Y-16316359D01*
X94910027Y-16521426D01*
X94778882Y-16748575D01*
X94683059Y-16992729D01*
X94624693Y-17248447D01*
X94610173Y-17442205D01*
X94610000Y-17446837D01*
X94610000Y-17610000D01*
X96110000Y-17610000D01*
X96110000Y-18110000D01*
X94610000Y-18110000D01*
X94610000Y-18273162D01*
X85569422Y-18273162D01*
X85603735Y-18122826D01*
X85623431Y-17860000D01*
X85603735Y-17597174D01*
X85545087Y-17340220D01*
X85519296Y-17274505D01*
X85456838Y-17115366D01*
X85450669Y-17045770D01*
X85483107Y-16983886D01*
X85543852Y-16949363D01*
X85613618Y-16953162D01*
X85626045Y-16958334D01*
X85715746Y-17001532D01*
X85967600Y-17079218D01*
X86181964Y-17111528D01*
X86228218Y-17118500D01*
X86228219Y-17118500D01*
X86491782Y-17118500D01*
X86531063Y-17112579D01*
X86752400Y-17079218D01*
X87004254Y-17001532D01*
X87241716Y-16887176D01*
X87459481Y-16738706D01*
X87652686Y-16559438D01*
X87817015Y-16353376D01*
X87948796Y-16125124D01*
X88045087Y-15879780D01*
X88103735Y-15622826D01*
X88123431Y-15360000D01*
X88103735Y-15097174D01*
X88045087Y-14840220D01*
X87948796Y-14594876D01*
X87817015Y-14366624D01*
X87652686Y-14160562D01*
X87652682Y-14160558D01*
X87459483Y-13981295D01*
X87241713Y-13832822D01*
X87004252Y-13718467D01*
X86752401Y-13640782D01*
X86491782Y-13601500D01*
X86491781Y-13601500D01*
X86228219Y-13601500D01*
X86228218Y-13601500D01*
X85967598Y-13640782D01*
X85715748Y-13718467D01*
X85478287Y-13832822D01*
X85260513Y-13981298D01*
X85067317Y-14160558D01*
X84902984Y-14366624D01*
X84771204Y-14594875D01*
X84674913Y-14840219D01*
X84616264Y-15097175D01*
X84596568Y-15360000D01*
X84616264Y-15622824D01*
X84674913Y-15879782D01*
X84763161Y-16104632D01*
X84769330Y-16174228D01*
X84736892Y-16236112D01*
X84676147Y-16270635D01*
X84606381Y-16266836D01*
X84593932Y-16261654D01*
X84504255Y-16218468D01*
X84252401Y-16140782D01*
X83991782Y-16101500D01*
X83991781Y-16101500D01*
X83728219Y-16101500D01*
X83728218Y-16101500D01*
X83467598Y-16140782D01*
X83215748Y-16218467D01*
X82978287Y-16332822D01*
X82760513Y-16481298D01*
X82567317Y-16660558D01*
X82402984Y-16866624D01*
X82271204Y-17094875D01*
X82174913Y-17340219D01*
X82116264Y-17597175D01*
X82096568Y-17859999D01*
X41169552Y-17859999D01*
X41153891Y-17846210D01*
X41134739Y-17779016D01*
X41154955Y-17712135D01*
X41206329Y-17667618D01*
X41286711Y-17630136D01*
X41471396Y-17500819D01*
X41630819Y-17341396D01*
X41760136Y-17156711D01*
X41855419Y-16952376D01*
X41913772Y-16734600D01*
X41933422Y-16510000D01*
X41913772Y-16285400D01*
X41855419Y-16067624D01*
X41760136Y-15863289D01*
X41630819Y-15678604D01*
X41471396Y-15519181D01*
X41471395Y-15519180D01*
X41286712Y-15389864D01*
X41222667Y-15360000D01*
X41206329Y-15352381D01*
X41153891Y-15306210D01*
X41134739Y-15239016D01*
X41154955Y-15172135D01*
X41206329Y-15127618D01*
X41286711Y-15090136D01*
X41471396Y-14960819D01*
X41630819Y-14801396D01*
X41760136Y-14616711D01*
X41855419Y-14412376D01*
X41913772Y-14194600D01*
X41933422Y-13970000D01*
X41913772Y-13745400D01*
X41855419Y-13527624D01*
X41760136Y-13323289D01*
X41630819Y-13138604D01*
X41471396Y-12979181D01*
X41286713Y-12849865D01*
X41206329Y-12812381D01*
X41153890Y-12766208D01*
X41134739Y-12699014D01*
X41154955Y-12632133D01*
X41206326Y-12587619D01*
X41286711Y-12550136D01*
X41471396Y-12420819D01*
X41630819Y-12261396D01*
X41760136Y-12076711D01*
X41855419Y-11872376D01*
X41913772Y-11654600D01*
X41933422Y-11430000D01*
X41913772Y-11205400D01*
X41855419Y-10987624D01*
X41760136Y-10783289D01*
X41630819Y-10598604D01*
X41471396Y-10439181D01*
X41403529Y-10391660D01*
X41286712Y-10309864D01*
X41219247Y-10278405D01*
X41206329Y-10272381D01*
X41153891Y-10226210D01*
X41134739Y-10159016D01*
X41154955Y-10092135D01*
X41206329Y-10047618D01*
X41286711Y-10010136D01*
X41471396Y-9880819D01*
X41630819Y-9721396D01*
X41760136Y-9536711D01*
X41855419Y-9332376D01*
X41913772Y-9114600D01*
X41933422Y-8890000D01*
X41913772Y-8665400D01*
X41855419Y-8447624D01*
X41760136Y-8243289D01*
X41630819Y-8058604D01*
X41471396Y-7899181D01*
X41286711Y-7769864D01*
X41082377Y-7674581D01*
X40864597Y-7616227D01*
X40640000Y-7596577D01*
X40415402Y-7616227D01*
X40197622Y-7674581D01*
X39993288Y-7769864D01*
X39808603Y-7899181D01*
X39649181Y-8058603D01*
X39519864Y-8243288D01*
X39424581Y-8447622D01*
X39366227Y-8665402D01*
X39346577Y-8889999D01*
X39366227Y-9114597D01*
X39366228Y-9114600D01*
X39424581Y-9332376D01*
X39519864Y-9536711D01*
X39649181Y-9721396D01*
X39808604Y-9880819D01*
X39993289Y-10010136D01*
X40042881Y-10033261D01*
X40073669Y-10047618D01*
X40126108Y-10093791D01*
X40145260Y-10160984D01*
X40125044Y-10227865D01*
X40073669Y-10272382D01*
X39993288Y-10309864D01*
X39808603Y-10439181D01*
X39649181Y-10598603D01*
X39519864Y-10783288D01*
X39424581Y-10987622D01*
X39366227Y-11205402D01*
X39346577Y-11429999D01*
X39366227Y-11654597D01*
X39366228Y-11654600D01*
X39424581Y-11872376D01*
X39519864Y-12076711D01*
X39649181Y-12261396D01*
X39808604Y-12420819D01*
X39993289Y-12550136D01*
X40053334Y-12578135D01*
X40073669Y-12587618D01*
X40126108Y-12633791D01*
X40145260Y-12700984D01*
X40125044Y-12767865D01*
X40073669Y-12812382D01*
X39993288Y-12849864D01*
X39808603Y-12979181D01*
X39649181Y-13138603D01*
X39519864Y-13323288D01*
X39424581Y-13527622D01*
X39366227Y-13745402D01*
X39346577Y-13970000D01*
X39366227Y-14194597D01*
X39366228Y-14194600D01*
X39424581Y-14412376D01*
X39519864Y-14616711D01*
X39649181Y-14801396D01*
X39808604Y-14960819D01*
X39993289Y-15090136D01*
X40053334Y-15118135D01*
X40073669Y-15127618D01*
X40126108Y-15173791D01*
X40145260Y-15240984D01*
X40125044Y-15307865D01*
X40073669Y-15352382D01*
X39993288Y-15389864D01*
X39808603Y-15519181D01*
X39649181Y-15678603D01*
X39519864Y-15863288D01*
X39424581Y-16067622D01*
X39366227Y-16285402D01*
X39346577Y-16510000D01*
X39366227Y-16734597D01*
X39424581Y-16952377D01*
X39502046Y-17118500D01*
X39519864Y-17156711D01*
X39649181Y-17341396D01*
X39808604Y-17500819D01*
X39993289Y-17630136D01*
X40053334Y-17658135D01*
X40073669Y-17667618D01*
X40126108Y-17713791D01*
X40145260Y-17780984D01*
X40125044Y-17847865D01*
X40073669Y-17892382D01*
X39993288Y-17929864D01*
X39808603Y-18059181D01*
X39649181Y-18218603D01*
X39519864Y-18403288D01*
X39424581Y-18607622D01*
X39366227Y-18825402D01*
X39346577Y-19049999D01*
X39366227Y-19274597D01*
X39424581Y-19492377D01*
X39519863Y-19696710D01*
X39519864Y-19696711D01*
X39649181Y-19881396D01*
X39808604Y-20040819D01*
X39993289Y-20170136D01*
X40053334Y-20198135D01*
X40073669Y-20207618D01*
X40126108Y-20253791D01*
X40145260Y-20320984D01*
X40125044Y-20387865D01*
X40073669Y-20432382D01*
X39993288Y-20469864D01*
X39808603Y-20599181D01*
X39649181Y-20758603D01*
X39519864Y-20943288D01*
X39424581Y-21147622D01*
X39366227Y-21365402D01*
X39346577Y-21589999D01*
X39366227Y-21814597D01*
X39424581Y-22032377D01*
X39519863Y-22236711D01*
X39519864Y-22236711D01*
X39649181Y-22421396D01*
X39808604Y-22580819D01*
X39993289Y-22710136D01*
X40051401Y-22737234D01*
X40073669Y-22747618D01*
X40126108Y-22793791D01*
X40145260Y-22860984D01*
X40125044Y-22927865D01*
X40073669Y-22972382D01*
X39993288Y-23009864D01*
X39808603Y-23139181D01*
X39649181Y-23298603D01*
X39519864Y-23483288D01*
X39424581Y-23687622D01*
X39366227Y-23905402D01*
X39346577Y-24130000D01*
X39366227Y-24354597D01*
X39424187Y-24570908D01*
X39424581Y-24572376D01*
X39519864Y-24776711D01*
X39649181Y-24961396D01*
X39808604Y-25120819D01*
X39993289Y-25250136D01*
X40053334Y-25278135D01*
X40073669Y-25287618D01*
X40126108Y-25333791D01*
X40145260Y-25400984D01*
X40125044Y-25467865D01*
X40073669Y-25512382D01*
X39993288Y-25549864D01*
X39808603Y-25679181D01*
X39649181Y-25838603D01*
X39519864Y-26023288D01*
X39424581Y-26227622D01*
X39366227Y-26445402D01*
X39346577Y-26669999D01*
X39366227Y-26894597D01*
X39419891Y-27094875D01*
X39424581Y-27112376D01*
X39519864Y-27316711D01*
X39649181Y-27501396D01*
X39808604Y-27660819D01*
X39993289Y-27790136D01*
X40053334Y-27818135D01*
X40073669Y-27827618D01*
X40126108Y-27873791D01*
X40145260Y-27940984D01*
X40125044Y-28007865D01*
X40073669Y-28052382D01*
X39993288Y-28089864D01*
X39808603Y-28219181D01*
X39649181Y-28378603D01*
X39519864Y-28563288D01*
X39424581Y-28767622D01*
X39366227Y-28985402D01*
X39346577Y-29210000D01*
X39366227Y-29434597D01*
X39409173Y-29594875D01*
X39424581Y-29652376D01*
X39519864Y-29856711D01*
X39649181Y-30041396D01*
X39808604Y-30200819D01*
X39993289Y-30330136D01*
X40053334Y-30358135D01*
X40073669Y-30367618D01*
X40126108Y-30413791D01*
X40145260Y-30480984D01*
X40125044Y-30547865D01*
X40073669Y-30592382D01*
X39993288Y-30629864D01*
X39808603Y-30759181D01*
X39649181Y-30918603D01*
X39519864Y-31103288D01*
X39424581Y-31307622D01*
X39366227Y-31525402D01*
X39346577Y-31750000D01*
X39366227Y-31974597D01*
X39366228Y-31974600D01*
X39424581Y-32192376D01*
X39519864Y-32396711D01*
X39649181Y-32581396D01*
X39808604Y-32740819D01*
X39993289Y-32870136D01*
X40053334Y-32898135D01*
X40073669Y-32907618D01*
X40126108Y-32953791D01*
X40145260Y-33020984D01*
X40125044Y-33087865D01*
X40073669Y-33132382D01*
X39993288Y-33169864D01*
X39808603Y-33299181D01*
X39649181Y-33458603D01*
X39519864Y-33643288D01*
X39424581Y-33847622D01*
X39366227Y-34065402D01*
X39346577Y-34289999D01*
X39366227Y-34514597D01*
X39366228Y-34514600D01*
X39424581Y-34732376D01*
X39519864Y-34936711D01*
X39649181Y-35121396D01*
X39808604Y-35280819D01*
X39993289Y-35410136D01*
X40053334Y-35438135D01*
X40073669Y-35447618D01*
X40126108Y-35493791D01*
X40145260Y-35560984D01*
X40125044Y-35627865D01*
X40073669Y-35672382D01*
X39993288Y-35709864D01*
X39808603Y-35839181D01*
X39649181Y-35998603D01*
X39519864Y-36183288D01*
X39424581Y-36387622D01*
X39366227Y-36605402D01*
X39346577Y-36830000D01*
X39366227Y-37054597D01*
X39424581Y-37272377D01*
X39502046Y-37438500D01*
X39519864Y-37476711D01*
X39649181Y-37661396D01*
X39808604Y-37820819D01*
X39993289Y-37950136D01*
X40053334Y-37978135D01*
X40073669Y-37987618D01*
X40126108Y-38033791D01*
X40145260Y-38100984D01*
X40125044Y-38167865D01*
X40073669Y-38212382D01*
X39993288Y-38249864D01*
X39808603Y-38379181D01*
X39649181Y-38538603D01*
X39519864Y-38723288D01*
X39424581Y-38927622D01*
X39366227Y-39145402D01*
X39346577Y-39369999D01*
X39366227Y-39594597D01*
X39424581Y-39812377D01*
X39513704Y-40003500D01*
X39519864Y-40016711D01*
X39649181Y-40201396D01*
X39808604Y-40360819D01*
X39993289Y-40490136D01*
X40053334Y-40518135D01*
X40073669Y-40527618D01*
X40126108Y-40573791D01*
X40145260Y-40640984D01*
X40125044Y-40707865D01*
X40073669Y-40752382D01*
X39993288Y-40789864D01*
X39808603Y-40919181D01*
X39649181Y-41078603D01*
X39519864Y-41263288D01*
X39424581Y-41467622D01*
X39366227Y-41685402D01*
X39346577Y-41910000D01*
X39366227Y-42134597D01*
X39424581Y-42352377D01*
X39513155Y-42542324D01*
X39519864Y-42556711D01*
X39649181Y-42741396D01*
X39808604Y-42900819D01*
X39993289Y-43030136D01*
X40038326Y-43051137D01*
X40073669Y-43067618D01*
X40126108Y-43113791D01*
X40145260Y-43180984D01*
X40125044Y-43247865D01*
X40073669Y-43292382D01*
X39993288Y-43329864D01*
X39808603Y-43459181D01*
X39649181Y-43618603D01*
X39519864Y-43803288D01*
X39424581Y-44007622D01*
X39366227Y-44225402D01*
X39346577Y-44450000D01*
X39366227Y-44674597D01*
X39376357Y-44712404D01*
X39424581Y-44892376D01*
X39519864Y-45096711D01*
X39649181Y-45281396D01*
X39808604Y-45440819D01*
X39993289Y-45570136D01*
X40038315Y-45591132D01*
X40073669Y-45607618D01*
X40126108Y-45653791D01*
X40145260Y-45720984D01*
X40125044Y-45787865D01*
X40073669Y-45832382D01*
X39993288Y-45869864D01*
X39808603Y-45999181D01*
X39649181Y-46158603D01*
X39519864Y-46343288D01*
X39424581Y-46547622D01*
X39366227Y-46765402D01*
X39346577Y-46989999D01*
X39366227Y-47214597D01*
X39424581Y-47432377D01*
X39476599Y-47543929D01*
X39519864Y-47636711D01*
X39649181Y-47821396D01*
X39808604Y-47980819D01*
X39993289Y-48110136D01*
X40053334Y-48138135D01*
X40073669Y-48147618D01*
X40126108Y-48193791D01*
X40145260Y-48260984D01*
X40125044Y-48327865D01*
X40073669Y-48372382D01*
X39993288Y-48409864D01*
X39808603Y-48539181D01*
X39649181Y-48698603D01*
X39519864Y-48883288D01*
X39424581Y-49087622D01*
X39366227Y-49305402D01*
X39346577Y-49529999D01*
X39366227Y-49754597D01*
X39424581Y-49972377D01*
X39464124Y-50057176D01*
X39519864Y-50176711D01*
X39649181Y-50361396D01*
X39808604Y-50520819D01*
X39993289Y-50650136D01*
X40053334Y-50678135D01*
X40073669Y-50687618D01*
X40126108Y-50733791D01*
X40145260Y-50800984D01*
X40125044Y-50867865D01*
X40073669Y-50912382D01*
X39993288Y-50949864D01*
X39808603Y-51079181D01*
X39649181Y-51238603D01*
X39519864Y-51423288D01*
X39424581Y-51627622D01*
X39366227Y-51845402D01*
X39346577Y-52070000D01*
X39366227Y-52294597D01*
X39366228Y-52294600D01*
X39424581Y-52512376D01*
X39519864Y-52716711D01*
X39649181Y-52901396D01*
X39808604Y-53060819D01*
X39993289Y-53190136D01*
X40053334Y-53218135D01*
X40073669Y-53227618D01*
X40126108Y-53273791D01*
X40145260Y-53340984D01*
X40125044Y-53407865D01*
X40073669Y-53452382D01*
X39993288Y-53489864D01*
X39808603Y-53619181D01*
X39649181Y-53778603D01*
X39519864Y-53963288D01*
X39424581Y-54167622D01*
X39366227Y-54385402D01*
X39346577Y-54610000D01*
X39366227Y-54834597D01*
X39424581Y-55052377D01*
X39438366Y-55081938D01*
X39519864Y-55256711D01*
X39649181Y-55441396D01*
X39808604Y-55600819D01*
X39993289Y-55730136D01*
X40197624Y-55825419D01*
X40415400Y-55883772D01*
X40640000Y-55903422D01*
X40864600Y-55883772D01*
X41082376Y-55825419D01*
X41286711Y-55730136D01*
X41471396Y-55600819D01*
X41630819Y-55441396D01*
X41760136Y-55256711D01*
X41855419Y-55052376D01*
X41913772Y-54834600D01*
X41933422Y-54610000D01*
X41913772Y-54385400D01*
X41855419Y-54167624D01*
X41760136Y-53963289D01*
X41630819Y-53778604D01*
X41471396Y-53619181D01*
X41471396Y-53619180D01*
X41286712Y-53489864D01*
X41236860Y-53466618D01*
X41206329Y-53452381D01*
X41153891Y-53406210D01*
X41134739Y-53339016D01*
X41154955Y-53272135D01*
X41206329Y-53227618D01*
X41286711Y-53190136D01*
X41471396Y-53060819D01*
X41630819Y-52901396D01*
X41760136Y-52716711D01*
X41855419Y-52512376D01*
X41913772Y-52294600D01*
X41933422Y-52070000D01*
X41932433Y-52058701D01*
X41913772Y-51845402D01*
X41913772Y-51845400D01*
X41855419Y-51627624D01*
X41760136Y-51423289D01*
X41630819Y-51238604D01*
X41471396Y-51079181D01*
X41471395Y-51079181D01*
X41286713Y-50949865D01*
X41206329Y-50912381D01*
X41153890Y-50866208D01*
X41134739Y-50799014D01*
X41154955Y-50732133D01*
X41206326Y-50687619D01*
X41286711Y-50650136D01*
X41471396Y-50520819D01*
X41630819Y-50361396D01*
X41760136Y-50176711D01*
X41855419Y-49972376D01*
X41913772Y-49754600D01*
X41933422Y-49530000D01*
X41932842Y-49523376D01*
X41920250Y-49379441D01*
X41913772Y-49305400D01*
X41855419Y-49087624D01*
X41760136Y-48883289D01*
X41630819Y-48698604D01*
X41471396Y-48539181D01*
X41471396Y-48539180D01*
X41286712Y-48409864D01*
X41236860Y-48386618D01*
X41206329Y-48372381D01*
X41153891Y-48326210D01*
X41134739Y-48259016D01*
X41154955Y-48192135D01*
X41206329Y-48147618D01*
X41286711Y-48110136D01*
X41471396Y-47980819D01*
X41630819Y-47821396D01*
X41760136Y-47636711D01*
X41855419Y-47432376D01*
X41913772Y-47214600D01*
X41933422Y-46990000D01*
X41913772Y-46765400D01*
X41855419Y-46547624D01*
X41760136Y-46343289D01*
X41630819Y-46158604D01*
X41471396Y-45999181D01*
X41447436Y-45982404D01*
X41286712Y-45869864D01*
X41236860Y-45846618D01*
X41206329Y-45832381D01*
X41153891Y-45786210D01*
X41134739Y-45719016D01*
X41154955Y-45652135D01*
X41206329Y-45607618D01*
X41286711Y-45570136D01*
X41471396Y-45440819D01*
X41630819Y-45281396D01*
X41732362Y-45136375D01*
X41786937Y-45092752D01*
X41833936Y-45083500D01*
X42866234Y-45083500D01*
X42933273Y-45103185D01*
X42953915Y-45119819D01*
X45050181Y-47216085D01*
X45083666Y-47277408D01*
X45086500Y-47303766D01*
X45086500Y-58466232D01*
X45066815Y-58533271D01*
X45050181Y-58553913D01*
X17327666Y-86276427D01*
X17266343Y-86309912D01*
X17211038Y-86309320D01*
X16986712Y-86255465D01*
X16750000Y-86236835D01*
X16513287Y-86255465D01*
X16282406Y-86310894D01*
X16063035Y-86401761D01*
X15860585Y-86525823D01*
X15680031Y-86680031D01*
X15525823Y-86860585D01*
X15401761Y-87063035D01*
X15310894Y-87282406D01*
X15255465Y-87513287D01*
X15236835Y-87750000D01*
X1270000Y-87750000D01*
X1270000Y-61930000D01*
X11022771Y-61930000D01*
X11025300Y-61965358D01*
X11086111Y-62244902D01*
X11186088Y-62512952D01*
X11323193Y-62764041D01*
X11494642Y-62993069D01*
X11696930Y-63195357D01*
X11925958Y-63366806D01*
X12177047Y-63503911D01*
X12445097Y-63603888D01*
X12724643Y-63664700D01*
X12759999Y-63667228D01*
X12760000Y-63667228D01*
X12760000Y-62180000D01*
X13260000Y-62180000D01*
X13260000Y-63667228D01*
X13295356Y-63664700D01*
X13574902Y-63603888D01*
X13842952Y-63503911D01*
X14094041Y-63366806D01*
X14323069Y-63195357D01*
X14525357Y-62993069D01*
X14696806Y-62764041D01*
X14833911Y-62512952D01*
X14933888Y-62244902D01*
X14994699Y-61965358D01*
X14997229Y-61930000D01*
X13943686Y-61930000D01*
X13969493Y-61889844D01*
X14010000Y-61751889D01*
X14010000Y-61608111D01*
X13969493Y-61470156D01*
X13943686Y-61430000D01*
X14997229Y-61430000D01*
X14997228Y-61429999D01*
X14994699Y-61394641D01*
X14933888Y-61115097D01*
X14833911Y-60847047D01*
X14696806Y-60595958D01*
X14525357Y-60366930D01*
X14323069Y-60164642D01*
X14094041Y-59993193D01*
X13842952Y-59856088D01*
X13574902Y-59756111D01*
X13295358Y-59695300D01*
X13260000Y-59692771D01*
X13260000Y-61180000D01*
X12760000Y-61180000D01*
X12760000Y-59692771D01*
X12759999Y-59692771D01*
X12724641Y-59695300D01*
X12445097Y-59756111D01*
X12177047Y-59856088D01*
X11925958Y-59993193D01*
X11696930Y-60164642D01*
X11494642Y-60366930D01*
X11323193Y-60595958D01*
X11186088Y-60847047D01*
X11086111Y-61115097D01*
X11025300Y-61394641D01*
X11022771Y-61429999D01*
X11022771Y-61430000D01*
X12076314Y-61430000D01*
X12050507Y-61470156D01*
X12010000Y-61608111D01*
X12010000Y-61751889D01*
X12050507Y-61889844D01*
X12076314Y-61930000D01*
X11022771Y-61930000D01*
X1270000Y-61930000D01*
X1270000Y-55880000D01*
X1804890Y-55880000D01*
X1825300Y-56165357D01*
X1886111Y-56444902D01*
X1986088Y-56712952D01*
X2123193Y-56964042D01*
X2229883Y-57106562D01*
X3310000Y-56026445D01*
X3310000Y-56415763D01*
X3325320Y-56522315D01*
X3385048Y-56653100D01*
X3387556Y-56655995D01*
X2583436Y-57460115D01*
X2725958Y-57566806D01*
X2977047Y-57703911D01*
X3245097Y-57803888D01*
X3524642Y-57864699D01*
X3810000Y-57885109D01*
X4095357Y-57864699D01*
X4374902Y-57803888D01*
X4642952Y-57703911D01*
X4894041Y-57566806D01*
X5036562Y-57460115D01*
X4232443Y-56655995D01*
X4234952Y-56653100D01*
X4294680Y-56522315D01*
X4310000Y-56415763D01*
X4310000Y-56026447D01*
X5390115Y-57106562D01*
X5496806Y-56964041D01*
X5633911Y-56712952D01*
X5733888Y-56444902D01*
X5794699Y-56165357D01*
X5815109Y-55880000D01*
X9296807Y-55880000D01*
X9315558Y-56154130D01*
X9316419Y-56158277D01*
X9316421Y-56158286D01*
X9332062Y-56233553D01*
X9371462Y-56423153D01*
X9372880Y-56427144D01*
X9372883Y-56427153D01*
X9406704Y-56522315D01*
X9463477Y-56682058D01*
X9465424Y-56685816D01*
X9465426Y-56685820D01*
X9545053Y-56839493D01*
X9589889Y-56926023D01*
X9592335Y-56929488D01*
X9745898Y-57147039D01*
X9745902Y-57147044D01*
X9748343Y-57150502D01*
X9935889Y-57351314D01*
X10149031Y-57524718D01*
X10383800Y-57667484D01*
X10635823Y-57776953D01*
X10844825Y-57835512D01*
X10896324Y-57849942D01*
X10896326Y-57849942D01*
X10900404Y-57851085D01*
X11172615Y-57888500D01*
X11176852Y-57888500D01*
X11443148Y-57888500D01*
X11447385Y-57888500D01*
X11719596Y-57851085D01*
X11984177Y-57776953D01*
X12236200Y-57667484D01*
X12470969Y-57524718D01*
X12684111Y-57351314D01*
X12871657Y-57150502D01*
X13030111Y-56926023D01*
X13156523Y-56682058D01*
X13248538Y-56423153D01*
X13304442Y-56154130D01*
X13323193Y-55880000D01*
X13304442Y-55605870D01*
X13248538Y-55336847D01*
X13156523Y-55077942D01*
X13030111Y-54833977D01*
X12931564Y-54694367D01*
X12874101Y-54612960D01*
X12874099Y-54612957D01*
X12872011Y-54610000D01*
X16486577Y-54610000D01*
X16506227Y-54834597D01*
X16564581Y-55052377D01*
X16578366Y-55081938D01*
X16659864Y-55256711D01*
X16789181Y-55441396D01*
X16948604Y-55600819D01*
X17133289Y-55730136D01*
X17337624Y-55825419D01*
X17555400Y-55883772D01*
X17705133Y-55896871D01*
X17779999Y-55903422D01*
X17779999Y-55903421D01*
X17780000Y-55903422D01*
X18004600Y-55883772D01*
X18222376Y-55825419D01*
X18426711Y-55730136D01*
X18611396Y-55600819D01*
X18770819Y-55441396D01*
X18900136Y-55256711D01*
X18995419Y-55052376D01*
X19053772Y-54834600D01*
X19073422Y-54610000D01*
X19073107Y-54606405D01*
X19053772Y-54385402D01*
X19053772Y-54385400D01*
X18995419Y-54167624D01*
X18900136Y-53963289D01*
X18770819Y-53778604D01*
X18611396Y-53619181D01*
X18611395Y-53619180D01*
X18426712Y-53489864D01*
X18376860Y-53466618D01*
X18346329Y-53452381D01*
X18293891Y-53406210D01*
X18274739Y-53339016D01*
X18294955Y-53272135D01*
X18346329Y-53227618D01*
X18426711Y-53190136D01*
X18611396Y-53060819D01*
X18770819Y-52901396D01*
X18900136Y-52716711D01*
X18995419Y-52512376D01*
X19053772Y-52294600D01*
X19073422Y-52070000D01*
X19053772Y-51845400D01*
X18995419Y-51627624D01*
X18900136Y-51423289D01*
X18770819Y-51238604D01*
X18611396Y-51079181D01*
X18611395Y-51079181D01*
X18426713Y-50949865D01*
X18346329Y-50912381D01*
X18293890Y-50866208D01*
X18274739Y-50799014D01*
X18294955Y-50732133D01*
X18346326Y-50687619D01*
X18426711Y-50650136D01*
X18611396Y-50520819D01*
X18770819Y-50361396D01*
X18900136Y-50176711D01*
X18995419Y-49972376D01*
X19053772Y-49754600D01*
X19073422Y-49530000D01*
X19053772Y-49305400D01*
X18995419Y-49087624D01*
X18900136Y-48883289D01*
X18770819Y-48698604D01*
X18611396Y-48539181D01*
X18611395Y-48539180D01*
X18426712Y-48409864D01*
X18376860Y-48386618D01*
X18346329Y-48372381D01*
X18293891Y-48326210D01*
X18274739Y-48259016D01*
X18294955Y-48192135D01*
X18346329Y-48147618D01*
X18426711Y-48110136D01*
X18611396Y-47980819D01*
X18770819Y-47821396D01*
X18900136Y-47636711D01*
X18995419Y-47432376D01*
X19053772Y-47214600D01*
X19073422Y-46990000D01*
X19053772Y-46765400D01*
X18995419Y-46547624D01*
X18900136Y-46343289D01*
X18770819Y-46158604D01*
X18611396Y-45999181D01*
X18587436Y-45982404D01*
X18426712Y-45869864D01*
X18376860Y-45846618D01*
X18346329Y-45832381D01*
X18293891Y-45786210D01*
X18274739Y-45719016D01*
X18294955Y-45652135D01*
X18346329Y-45607618D01*
X18426711Y-45570136D01*
X18611396Y-45440819D01*
X18770819Y-45281396D01*
X18900136Y-45096711D01*
X18995419Y-44892376D01*
X19053772Y-44674600D01*
X19073422Y-44450000D01*
X19053772Y-44225400D01*
X18995419Y-44007624D01*
X18900136Y-43803289D01*
X18770819Y-43618604D01*
X18611396Y-43459181D01*
X18426711Y-43329864D01*
X18336274Y-43287692D01*
X18283835Y-43241519D01*
X18264683Y-43174325D01*
X18284899Y-43107444D01*
X18336276Y-43062927D01*
X18422445Y-43022746D01*
X18491111Y-42974664D01*
X17928765Y-42412318D01*
X18052724Y-42358475D01*
X18163608Y-42268265D01*
X18246041Y-42151483D01*
X18279864Y-42056311D01*
X18844664Y-42621110D01*
X18892748Y-42552442D01*
X18987399Y-42349461D01*
X19045369Y-42133116D01*
X19064889Y-41909999D01*
X19045369Y-41686883D01*
X18987400Y-41470540D01*
X18892747Y-41267558D01*
X18844663Y-41198887D01*
X18280559Y-41762991D01*
X18274582Y-41734225D01*
X18208819Y-41607307D01*
X18111251Y-41502838D01*
X17989116Y-41428566D01*
X17925660Y-41410786D01*
X18491111Y-40845334D01*
X18422442Y-40797252D01*
X18336274Y-40757071D01*
X18283835Y-40710899D01*
X18264683Y-40643705D01*
X18284899Y-40576824D01*
X18336275Y-40532307D01*
X18426711Y-40490136D01*
X18611396Y-40360819D01*
X18770819Y-40201396D01*
X18900136Y-40016711D01*
X18995419Y-39812376D01*
X19053772Y-39594600D01*
X19073422Y-39370000D01*
X19053772Y-39145400D01*
X18995419Y-38927624D01*
X18900136Y-38723289D01*
X18770819Y-38538604D01*
X18611396Y-38379181D01*
X18611396Y-38379180D01*
X18426712Y-38249864D01*
X18376860Y-38226618D01*
X18346329Y-38212381D01*
X18293891Y-38166210D01*
X18274739Y-38099016D01*
X18294955Y-38032135D01*
X18346329Y-37987618D01*
X18426711Y-37950136D01*
X18611396Y-37820819D01*
X18770819Y-37661396D01*
X18900136Y-37476711D01*
X18995419Y-37272376D01*
X19053772Y-37054600D01*
X19073422Y-36830000D01*
X19053772Y-36605400D01*
X18995419Y-36387624D01*
X18900136Y-36183289D01*
X18770819Y-35998604D01*
X18611396Y-35839181D01*
X18426712Y-35709864D01*
X18362665Y-35679999D01*
X18346329Y-35672381D01*
X18293891Y-35626210D01*
X18274739Y-35559016D01*
X18294955Y-35492135D01*
X18346329Y-35447618D01*
X18426711Y-35410136D01*
X18611396Y-35280819D01*
X18770819Y-35121396D01*
X18900136Y-34936711D01*
X18995419Y-34732376D01*
X19053772Y-34514600D01*
X19073422Y-34290000D01*
X19053772Y-34065400D01*
X18995419Y-33847624D01*
X18900136Y-33643289D01*
X18770819Y-33458604D01*
X18611396Y-33299181D01*
X18611396Y-33299180D01*
X18426712Y-33169864D01*
X18376860Y-33146618D01*
X18346329Y-33132381D01*
X18293891Y-33086210D01*
X18274739Y-33019016D01*
X18294955Y-32952135D01*
X18346329Y-32907618D01*
X18426711Y-32870136D01*
X18611396Y-32740819D01*
X18770819Y-32581396D01*
X18900136Y-32396711D01*
X18995419Y-32192376D01*
X19053772Y-31974600D01*
X19073422Y-31750000D01*
X19053772Y-31525400D01*
X18995419Y-31307624D01*
X18900136Y-31103289D01*
X18770819Y-30918604D01*
X18611396Y-30759181D01*
X18426712Y-30629864D01*
X18376860Y-30606618D01*
X18346329Y-30592381D01*
X18293891Y-30546210D01*
X18274739Y-30479016D01*
X18294955Y-30412135D01*
X18346329Y-30367618D01*
X18426711Y-30330136D01*
X18611396Y-30200819D01*
X18770819Y-30041396D01*
X18900136Y-29856711D01*
X18995419Y-29652376D01*
X19053772Y-29434600D01*
X19073422Y-29210000D01*
X19053772Y-28985400D01*
X18995419Y-28767624D01*
X18900136Y-28563289D01*
X18770819Y-28378604D01*
X18611396Y-28219181D01*
X18611395Y-28219180D01*
X18426712Y-28089864D01*
X18376860Y-28066618D01*
X18346329Y-28052381D01*
X18293891Y-28006210D01*
X18274739Y-27939016D01*
X18294955Y-27872135D01*
X18346329Y-27827618D01*
X18426711Y-27790136D01*
X18611396Y-27660819D01*
X18770819Y-27501396D01*
X18900136Y-27316711D01*
X18995419Y-27112376D01*
X19053772Y-26894600D01*
X19073422Y-26670000D01*
X19053772Y-26445400D01*
X18995419Y-26227624D01*
X18900136Y-26023289D01*
X18770819Y-25838604D01*
X18611396Y-25679181D01*
X18426713Y-25549865D01*
X18346329Y-25512381D01*
X18293890Y-25466208D01*
X18274739Y-25399014D01*
X18294955Y-25332133D01*
X18346326Y-25287619D01*
X18426711Y-25250136D01*
X18611396Y-25120819D01*
X18770819Y-24961396D01*
X18900136Y-24776711D01*
X18995419Y-24572376D01*
X19053772Y-24354600D01*
X19073422Y-24130000D01*
X19053772Y-23905400D01*
X18995419Y-23687624D01*
X18900136Y-23483289D01*
X18770819Y-23298604D01*
X18611396Y-23139181D01*
X18569721Y-23110000D01*
X18426712Y-23009864D01*
X18368599Y-22982766D01*
X18346329Y-22972381D01*
X18293891Y-22926210D01*
X18274739Y-22859016D01*
X18294955Y-22792135D01*
X18346329Y-22747618D01*
X18426711Y-22710136D01*
X18611396Y-22580819D01*
X18770819Y-22421396D01*
X18900136Y-22236711D01*
X18995419Y-22032376D01*
X19053772Y-21814600D01*
X19073422Y-21590000D01*
X19053772Y-21365400D01*
X18995419Y-21147624D01*
X18900136Y-20943289D01*
X18770819Y-20758604D01*
X18611396Y-20599181D01*
X18611396Y-20599180D01*
X18426712Y-20469864D01*
X18376860Y-20446618D01*
X18346329Y-20432381D01*
X18293891Y-20386210D01*
X18274739Y-20319016D01*
X18294955Y-20252135D01*
X18346329Y-20207618D01*
X18426711Y-20170136D01*
X18611396Y-20040819D01*
X18770819Y-19881396D01*
X18900136Y-19696711D01*
X18995419Y-19492376D01*
X19053772Y-19274600D01*
X19073422Y-19050000D01*
X19053772Y-18825400D01*
X18995419Y-18607624D01*
X18900136Y-18403289D01*
X18770819Y-18218604D01*
X18611396Y-18059181D01*
X18426712Y-17929864D01*
X18376860Y-17906618D01*
X18346329Y-17892381D01*
X18293891Y-17846210D01*
X18274739Y-17779016D01*
X18294955Y-17712135D01*
X18346329Y-17667618D01*
X18426711Y-17630136D01*
X18611396Y-17500819D01*
X18770819Y-17341396D01*
X18900136Y-17156711D01*
X18995419Y-16952376D01*
X19053772Y-16734600D01*
X19073422Y-16510000D01*
X19053772Y-16285400D01*
X18995419Y-16067624D01*
X18900136Y-15863289D01*
X18770819Y-15678604D01*
X18611396Y-15519181D01*
X18611396Y-15519180D01*
X18426712Y-15389864D01*
X18362667Y-15360000D01*
X18346329Y-15352381D01*
X18293891Y-15306210D01*
X18274739Y-15239016D01*
X18294955Y-15172135D01*
X18346329Y-15127618D01*
X18426711Y-15090136D01*
X18611396Y-14960819D01*
X18770819Y-14801396D01*
X18900136Y-14616711D01*
X18995419Y-14412376D01*
X19053772Y-14194600D01*
X19073422Y-13970000D01*
X19053772Y-13745400D01*
X18995419Y-13527624D01*
X18900136Y-13323289D01*
X18770819Y-13138604D01*
X18611396Y-12979181D01*
X18426713Y-12849865D01*
X18346329Y-12812381D01*
X18293890Y-12766208D01*
X18274739Y-12699014D01*
X18294955Y-12632133D01*
X18346326Y-12587619D01*
X18426711Y-12550136D01*
X18611396Y-12420819D01*
X18770819Y-12261396D01*
X18900136Y-12076711D01*
X18995419Y-11872376D01*
X19053772Y-11654600D01*
X19073422Y-11430000D01*
X19053772Y-11205400D01*
X18995419Y-10987624D01*
X18900136Y-10783289D01*
X18770819Y-10598604D01*
X18611396Y-10439181D01*
X18558981Y-10402479D01*
X18515357Y-10347904D01*
X18508165Y-10278405D01*
X18539687Y-10216051D01*
X18599917Y-10180637D01*
X18616841Y-10177618D01*
X18669201Y-10171989D01*
X18669203Y-10171988D01*
X18669205Y-10171988D01*
X18747124Y-10142924D01*
X18806204Y-10120889D01*
X18923261Y-10033261D01*
X19010889Y-9916204D01*
X19061989Y-9779201D01*
X19068500Y-9718638D01*
X19068500Y-8061362D01*
X19061989Y-8000799D01*
X19061988Y-8000797D01*
X19061988Y-8000794D01*
X19010889Y-7863796D01*
X18923261Y-7746738D01*
X18806203Y-7659110D01*
X18669205Y-7608011D01*
X18611924Y-7601853D01*
X18611918Y-7601852D01*
X18608638Y-7601500D01*
X16951362Y-7601500D01*
X16948082Y-7601852D01*
X16948075Y-7601853D01*
X16890794Y-7608011D01*
X16753796Y-7659110D01*
X16636738Y-7746738D01*
X16549110Y-7863796D01*
X16498011Y-8000794D01*
X16491853Y-8058075D01*
X16491500Y-8061362D01*
X16491500Y-9718638D01*
X16491852Y-9721918D01*
X16491853Y-9721924D01*
X16498011Y-9779205D01*
X16549110Y-9916203D01*
X16636738Y-10033261D01*
X16753796Y-10120889D01*
X16890794Y-10171988D01*
X16890797Y-10171988D01*
X16890799Y-10171989D01*
X16943148Y-10177616D01*
X17007698Y-10204353D01*
X17047547Y-10261745D01*
X17050042Y-10331570D01*
X17014390Y-10391660D01*
X17001018Y-10402480D01*
X16948602Y-10439182D01*
X16789181Y-10598603D01*
X16659864Y-10783288D01*
X16564581Y-10987622D01*
X16506227Y-11205402D01*
X16486577Y-11429999D01*
X16506227Y-11654597D01*
X16506228Y-11654600D01*
X16564581Y-11872376D01*
X16659864Y-12076711D01*
X16789181Y-12261396D01*
X16948604Y-12420819D01*
X17133289Y-12550136D01*
X17193334Y-12578135D01*
X17213669Y-12587618D01*
X17266108Y-12633791D01*
X17285260Y-12700984D01*
X17265044Y-12767865D01*
X17213669Y-12812382D01*
X17133288Y-12849864D01*
X16948603Y-12979181D01*
X16789181Y-13138603D01*
X16659864Y-13323288D01*
X16564581Y-13527622D01*
X16506227Y-13745402D01*
X16486577Y-13970000D01*
X16506227Y-14194597D01*
X16506228Y-14194600D01*
X16564581Y-14412376D01*
X16659864Y-14616711D01*
X16789181Y-14801396D01*
X16948604Y-14960819D01*
X17133289Y-15090136D01*
X17193334Y-15118135D01*
X17213669Y-15127618D01*
X17266108Y-15173791D01*
X17285260Y-15240984D01*
X17265044Y-15307865D01*
X17213669Y-15352382D01*
X17133288Y-15389864D01*
X16948603Y-15519181D01*
X16789181Y-15678603D01*
X16659864Y-15863288D01*
X16564581Y-16067622D01*
X16506227Y-16285402D01*
X16486577Y-16509999D01*
X16506227Y-16734597D01*
X16564581Y-16952377D01*
X16642046Y-17118500D01*
X16659864Y-17156711D01*
X16789181Y-17341396D01*
X16948604Y-17500819D01*
X17133289Y-17630136D01*
X17193334Y-17658135D01*
X17213669Y-17667618D01*
X17266108Y-17713791D01*
X17285260Y-17780984D01*
X17265044Y-17847865D01*
X17213669Y-17892382D01*
X17133288Y-17929864D01*
X16948603Y-18059181D01*
X16789181Y-18218603D01*
X16659864Y-18403288D01*
X16564581Y-18607622D01*
X16506227Y-18825402D01*
X16486577Y-19050000D01*
X16506227Y-19274597D01*
X16564581Y-19492377D01*
X16659863Y-19696710D01*
X16659864Y-19696711D01*
X16789181Y-19881396D01*
X16948604Y-20040819D01*
X17133289Y-20170136D01*
X17193334Y-20198135D01*
X17213669Y-20207618D01*
X17266108Y-20253791D01*
X17285260Y-20320984D01*
X17265044Y-20387865D01*
X17213669Y-20432382D01*
X17133288Y-20469864D01*
X16948603Y-20599181D01*
X16789181Y-20758603D01*
X16659864Y-20943288D01*
X16564581Y-21147622D01*
X16506227Y-21365402D01*
X16486577Y-21589999D01*
X16506227Y-21814597D01*
X16564581Y-22032377D01*
X16659864Y-22236710D01*
X16659864Y-22236711D01*
X16789181Y-22421396D01*
X16948604Y-22580819D01*
X17133289Y-22710136D01*
X17191401Y-22737234D01*
X17213669Y-22747618D01*
X17266108Y-22793791D01*
X17285260Y-22860984D01*
X17265044Y-22927865D01*
X17213669Y-22972382D01*
X17133288Y-23009864D01*
X16948603Y-23139181D01*
X16789181Y-23298603D01*
X16659864Y-23483288D01*
X16564581Y-23687622D01*
X16506227Y-23905402D01*
X16486577Y-24130000D01*
X16506227Y-24354597D01*
X16564187Y-24570908D01*
X16564581Y-24572376D01*
X16659864Y-24776711D01*
X16789181Y-24961396D01*
X16948604Y-25120819D01*
X17133289Y-25250136D01*
X17213668Y-25287617D01*
X17266108Y-25333789D01*
X17285260Y-25400982D01*
X17265045Y-25467863D01*
X17213670Y-25512380D01*
X17133290Y-25549862D01*
X16948603Y-25679181D01*
X16789181Y-25838603D01*
X16659864Y-26023288D01*
X16564581Y-26227622D01*
X16506227Y-26445402D01*
X16486577Y-26669999D01*
X16506227Y-26894597D01*
X16559891Y-27094875D01*
X16564581Y-27112376D01*
X16659864Y-27316711D01*
X16789181Y-27501396D01*
X16948604Y-27660819D01*
X17133289Y-27790136D01*
X17193334Y-27818135D01*
X17213669Y-27827618D01*
X17266108Y-27873791D01*
X17285260Y-27940984D01*
X17265044Y-28007865D01*
X17213669Y-28052382D01*
X17133288Y-28089864D01*
X16948603Y-28219181D01*
X16789181Y-28378603D01*
X16659864Y-28563288D01*
X16564581Y-28767622D01*
X16506227Y-28985402D01*
X16486577Y-29210000D01*
X16506227Y-29434597D01*
X16549173Y-29594875D01*
X16564581Y-29652376D01*
X16659864Y-29856711D01*
X16789181Y-30041396D01*
X16948604Y-30200819D01*
X17133289Y-30330136D01*
X17193334Y-30358135D01*
X17213669Y-30367618D01*
X17266108Y-30413791D01*
X17285260Y-30480984D01*
X17265044Y-30547865D01*
X17213669Y-30592382D01*
X17133288Y-30629864D01*
X16948603Y-30759181D01*
X16789181Y-30918603D01*
X16659864Y-31103288D01*
X16564581Y-31307622D01*
X16506227Y-31525402D01*
X16486577Y-31749999D01*
X16506227Y-31974597D01*
X16506228Y-31974600D01*
X16564581Y-32192376D01*
X16659864Y-32396711D01*
X16789181Y-32581396D01*
X16948604Y-32740819D01*
X17133289Y-32870136D01*
X17193334Y-32898135D01*
X17213669Y-32907618D01*
X17266108Y-32953791D01*
X17285260Y-33020984D01*
X17265044Y-33087865D01*
X17213669Y-33132382D01*
X17133288Y-33169864D01*
X16948603Y-33299181D01*
X16789181Y-33458603D01*
X16659864Y-33643288D01*
X16564581Y-33847622D01*
X16506227Y-34065402D01*
X16486577Y-34290000D01*
X16506227Y-34514597D01*
X16506228Y-34514600D01*
X16564581Y-34732376D01*
X16659864Y-34936711D01*
X16789181Y-35121396D01*
X16948604Y-35280819D01*
X17133289Y-35410136D01*
X17193334Y-35438135D01*
X17213669Y-35447618D01*
X17266108Y-35493791D01*
X17285260Y-35560984D01*
X17265044Y-35627865D01*
X17213669Y-35672382D01*
X17133288Y-35709864D01*
X16948603Y-35839181D01*
X16789181Y-35998603D01*
X16659864Y-36183288D01*
X16564581Y-36387622D01*
X16506227Y-36605402D01*
X16486577Y-36829999D01*
X16506227Y-37054597D01*
X16564581Y-37272377D01*
X16642046Y-37438500D01*
X16659864Y-37476711D01*
X16789181Y-37661396D01*
X16948604Y-37820819D01*
X17133289Y-37950136D01*
X17213668Y-37987617D01*
X17266108Y-38033789D01*
X17285260Y-38100982D01*
X17265045Y-38167863D01*
X17213670Y-38212380D01*
X17133290Y-38249862D01*
X16948603Y-38379181D01*
X16789181Y-38538603D01*
X16659864Y-38723288D01*
X16564581Y-38927622D01*
X16506227Y-39145402D01*
X16486577Y-39370000D01*
X16506227Y-39594597D01*
X16564581Y-39812377D01*
X16653704Y-40003500D01*
X16659864Y-40016711D01*
X16789181Y-40201396D01*
X16948604Y-40360819D01*
X17133289Y-40490136D01*
X17223725Y-40532307D01*
X17276164Y-40578479D01*
X17295316Y-40645673D01*
X17275100Y-40712554D01*
X17223725Y-40757071D01*
X17137555Y-40797252D01*
X17068888Y-40845333D01*
X17068887Y-40845334D01*
X17631235Y-41407681D01*
X17507276Y-41461525D01*
X17396392Y-41551735D01*
X17313959Y-41668517D01*
X17280135Y-41763688D01*
X16715334Y-41198887D01*
X16715333Y-41198888D01*
X16667252Y-41267555D01*
X16572599Y-41470539D01*
X16514630Y-41686883D01*
X16495110Y-41910000D01*
X16514630Y-42133116D01*
X16572599Y-42349459D01*
X16667252Y-42552442D01*
X16715334Y-42621111D01*
X17279439Y-42057006D01*
X17285418Y-42085775D01*
X17351181Y-42212693D01*
X17448749Y-42317162D01*
X17570884Y-42391434D01*
X17634339Y-42409213D01*
X17068888Y-42974664D01*
X17137559Y-43022749D01*
X17223724Y-43062928D01*
X17276164Y-43109100D01*
X17295316Y-43176293D01*
X17275101Y-43243174D01*
X17223726Y-43287692D01*
X17133286Y-43329865D01*
X16948603Y-43459181D01*
X16789181Y-43618603D01*
X16659864Y-43803288D01*
X16564581Y-44007622D01*
X16506227Y-44225402D01*
X16486577Y-44449999D01*
X16506227Y-44674597D01*
X16516357Y-44712404D01*
X16564581Y-44892376D01*
X16659864Y-45096711D01*
X16789181Y-45281396D01*
X16948604Y-45440819D01*
X17133289Y-45570136D01*
X17178315Y-45591132D01*
X17213669Y-45607618D01*
X17266108Y-45653791D01*
X17285260Y-45720984D01*
X17265044Y-45787865D01*
X17213669Y-45832382D01*
X17133288Y-45869864D01*
X16948603Y-45999181D01*
X16789181Y-46158603D01*
X16659864Y-46343288D01*
X16564581Y-46547622D01*
X16506227Y-46765402D01*
X16486577Y-46990000D01*
X16506227Y-47214597D01*
X16564581Y-47432377D01*
X16616599Y-47543929D01*
X16659864Y-47636711D01*
X16789181Y-47821396D01*
X16948604Y-47980819D01*
X17133289Y-48110136D01*
X17193334Y-48138135D01*
X17213669Y-48147618D01*
X17266108Y-48193791D01*
X17285260Y-48260984D01*
X17265044Y-48327865D01*
X17213669Y-48372382D01*
X17133288Y-48409864D01*
X16948603Y-48539181D01*
X16789181Y-48698603D01*
X16659864Y-48883288D01*
X16564581Y-49087622D01*
X16506227Y-49305402D01*
X16486577Y-49530000D01*
X16506227Y-49754597D01*
X16564581Y-49972377D01*
X16604124Y-50057176D01*
X16659864Y-50176711D01*
X16789181Y-50361396D01*
X16948604Y-50520819D01*
X17133289Y-50650136D01*
X17213668Y-50687617D01*
X17266108Y-50733789D01*
X17285260Y-50800982D01*
X17265045Y-50867863D01*
X17213670Y-50912380D01*
X17133290Y-50949862D01*
X16948603Y-51079181D01*
X16789181Y-51238603D01*
X16659864Y-51423288D01*
X16564581Y-51627622D01*
X16506227Y-51845402D01*
X16486577Y-52070000D01*
X16506227Y-52294597D01*
X16506228Y-52294600D01*
X16564581Y-52512376D01*
X16659864Y-52716711D01*
X16789181Y-52901396D01*
X16948604Y-53060819D01*
X17133289Y-53190136D01*
X17193334Y-53218135D01*
X17213669Y-53227618D01*
X17266108Y-53273791D01*
X17285260Y-53340984D01*
X17265044Y-53407865D01*
X17213669Y-53452382D01*
X17133288Y-53489864D01*
X16948603Y-53619181D01*
X16789181Y-53778603D01*
X16659864Y-53963288D01*
X16564581Y-54167622D01*
X16506227Y-54385402D01*
X16486577Y-54610000D01*
X12872011Y-54610000D01*
X12871657Y-54609498D01*
X12684111Y-54408686D01*
X12680829Y-54406016D01*
X12680826Y-54406013D01*
X12550373Y-54299882D01*
X12470969Y-54235282D01*
X12467345Y-54233078D01*
X12467342Y-54233076D01*
X12239818Y-54094716D01*
X12239816Y-54094715D01*
X12236200Y-54092516D01*
X12214707Y-54083180D01*
X11988058Y-53984732D01*
X11988048Y-53984728D01*
X11984177Y-53983047D01*
X11980105Y-53981906D01*
X11723675Y-53910057D01*
X11723662Y-53910054D01*
X11719596Y-53908915D01*
X11715406Y-53908339D01*
X11715396Y-53908337D01*
X11451582Y-53872076D01*
X11451569Y-53872075D01*
X11447385Y-53871500D01*
X11172615Y-53871500D01*
X11168431Y-53872075D01*
X11168417Y-53872076D01*
X10904603Y-53908337D01*
X10904590Y-53908339D01*
X10900404Y-53908915D01*
X10896340Y-53910053D01*
X10896324Y-53910057D01*
X10639894Y-53981906D01*
X10639889Y-53981907D01*
X10635823Y-53983047D01*
X10631956Y-53984726D01*
X10631941Y-53984732D01*
X10387683Y-54090829D01*
X10387678Y-54090831D01*
X10383800Y-54092516D01*
X10380189Y-54094711D01*
X10380181Y-54094716D01*
X10152657Y-54233076D01*
X10152646Y-54233083D01*
X10149031Y-54235282D01*
X10145741Y-54237958D01*
X10145739Y-54237960D01*
X9939173Y-54406013D01*
X9939162Y-54406022D01*
X9935889Y-54408686D01*
X9933010Y-54411768D01*
X9933001Y-54411777D01*
X9751231Y-54606405D01*
X9751226Y-54606410D01*
X9748343Y-54609498D01*
X9745907Y-54612948D01*
X9745898Y-54612960D01*
X9592335Y-54830511D01*
X9592331Y-54830516D01*
X9589889Y-54833977D01*
X9587943Y-54837731D01*
X9587939Y-54837739D01*
X9465426Y-55074179D01*
X9465421Y-55074188D01*
X9463477Y-55077942D01*
X9462060Y-55081927D01*
X9462056Y-55081938D01*
X9372883Y-55332846D01*
X9372879Y-55332858D01*
X9371462Y-55336847D01*
X9370599Y-55340997D01*
X9370598Y-55341003D01*
X9316421Y-55601713D01*
X9316419Y-55601724D01*
X9315558Y-55605870D01*
X9315269Y-55610094D01*
X9315268Y-55610102D01*
X9300540Y-55825419D01*
X9296807Y-55880000D01*
X5815109Y-55880000D01*
X5815109Y-55879999D01*
X5794699Y-55594642D01*
X5733888Y-55315097D01*
X5633911Y-55047047D01*
X5496806Y-54795958D01*
X5390115Y-54653436D01*
X4310000Y-55733551D01*
X4310000Y-55344237D01*
X4294680Y-55237685D01*
X4234952Y-55106900D01*
X4232442Y-55104003D01*
X5036562Y-54299883D01*
X4894042Y-54193193D01*
X4642952Y-54056088D01*
X4374902Y-53956111D01*
X4095357Y-53895300D01*
X3809999Y-53874890D01*
X3524642Y-53895300D01*
X3245097Y-53956111D01*
X2977047Y-54056088D01*
X2725954Y-54193195D01*
X2583437Y-54299882D01*
X2583436Y-54299883D01*
X3387557Y-55104003D01*
X3385048Y-55106900D01*
X3325320Y-55237685D01*
X3310000Y-55344237D01*
X3310000Y-55733553D01*
X2229883Y-54653436D01*
X2229882Y-54653437D01*
X2123195Y-54795954D01*
X1986088Y-55047047D01*
X1886111Y-55315097D01*
X1825300Y-55594642D01*
X1804890Y-55880000D01*
X1270000Y-55880000D01*
X1270000Y-50080000D01*
X11004890Y-50080000D01*
X11025300Y-50365357D01*
X11086111Y-50644902D01*
X11186088Y-50912952D01*
X11323193Y-51164042D01*
X11429883Y-51306562D01*
X12234003Y-50502442D01*
X12236900Y-50504952D01*
X12367685Y-50564680D01*
X12474237Y-50580000D01*
X12863553Y-50580000D01*
X11783436Y-51660115D01*
X11925958Y-51766806D01*
X12177047Y-51903911D01*
X12445097Y-52003888D01*
X12724642Y-52064699D01*
X13010000Y-52085109D01*
X13295357Y-52064699D01*
X13574902Y-52003888D01*
X13842952Y-51903911D01*
X14094041Y-51766806D01*
X14236562Y-51660115D01*
X13156448Y-50580000D01*
X13545763Y-50580000D01*
X13652315Y-50564680D01*
X13783100Y-50504952D01*
X13785995Y-50502442D01*
X14590115Y-51306562D01*
X14696806Y-51164041D01*
X14833911Y-50912952D01*
X14933888Y-50644902D01*
X14994699Y-50365357D01*
X15015109Y-50079999D01*
X14994699Y-49794642D01*
X14933888Y-49515097D01*
X14833911Y-49247047D01*
X14696806Y-48995958D01*
X14590115Y-48853436D01*
X13785995Y-49657556D01*
X13783100Y-49655048D01*
X13652315Y-49595320D01*
X13545763Y-49580000D01*
X13156447Y-49580000D01*
X14236562Y-48499883D01*
X14094042Y-48393193D01*
X13842952Y-48256088D01*
X13574902Y-48156111D01*
X13295357Y-48095300D01*
X13010000Y-48074890D01*
X12724642Y-48095300D01*
X12445097Y-48156111D01*
X12177047Y-48256088D01*
X11925954Y-48393195D01*
X11783437Y-48499882D01*
X11783436Y-48499883D01*
X12863554Y-49580000D01*
X12474237Y-49580000D01*
X12367685Y-49595320D01*
X12236900Y-49655048D01*
X12234004Y-49657557D01*
X11429883Y-48853436D01*
X11429882Y-48853437D01*
X11323195Y-48995954D01*
X11186088Y-49247047D01*
X11086111Y-49515097D01*
X11025300Y-49794642D01*
X11004890Y-50080000D01*
X1270000Y-50080000D01*
X1270000Y-5067764D01*
X3145787Y-5067764D01*
X3175413Y-5337016D01*
X3243928Y-5599087D01*
X3349871Y-5848392D01*
X3490982Y-6079611D01*
X3580253Y-6186881D01*
X3664255Y-6287820D01*
X3865998Y-6468582D01*
X4091910Y-6618044D01*
X4198211Y-6667876D01*
X4337177Y-6733021D01*
X4596562Y-6811058D01*
X4596569Y-6811060D01*
X4864561Y-6850500D01*
X4864564Y-6850500D01*
X5065369Y-6850500D01*
X5067631Y-6850500D01*
X5270156Y-6835677D01*
X5534553Y-6776780D01*
X5787558Y-6680014D01*
X6023777Y-6547441D01*
X6238177Y-6381888D01*
X6426186Y-6186881D01*
X6583799Y-5966579D01*
X6707656Y-5725675D01*
X6795118Y-5469305D01*
X6844319Y-5202933D01*
X6849259Y-5067764D01*
X93145787Y-5067764D01*
X93175413Y-5337016D01*
X93243928Y-5599087D01*
X93349871Y-5848392D01*
X93490982Y-6079611D01*
X93580253Y-6186881D01*
X93664255Y-6287820D01*
X93865998Y-6468582D01*
X94091910Y-6618044D01*
X94198211Y-6667876D01*
X94337177Y-6733021D01*
X94596562Y-6811058D01*
X94596569Y-6811060D01*
X94864561Y-6850500D01*
X94864564Y-6850500D01*
X95065369Y-6850500D01*
X95067631Y-6850500D01*
X95270156Y-6835677D01*
X95534553Y-6776780D01*
X95787558Y-6680014D01*
X96023777Y-6547441D01*
X96238177Y-6381888D01*
X96426186Y-6186881D01*
X96583799Y-5966579D01*
X96707656Y-5725675D01*
X96795118Y-5469305D01*
X96844319Y-5202933D01*
X96854212Y-4932235D01*
X96824586Y-4662982D01*
X96756072Y-4400912D01*
X96650130Y-4151610D01*
X96509018Y-3920390D01*
X96509017Y-3920388D01*
X96335746Y-3712181D01*
X96230759Y-3618112D01*
X96134002Y-3531418D01*
X95908090Y-3381956D01*
X95908086Y-3381954D01*
X95662822Y-3266978D01*
X95403437Y-3188941D01*
X95403431Y-3188940D01*
X95135439Y-3149500D01*
X94932369Y-3149500D01*
X94930120Y-3149664D01*
X94930109Y-3149665D01*
X94729843Y-3164322D01*
X94465449Y-3223219D01*
X94212441Y-3319986D01*
X93976223Y-3452559D01*
X93761825Y-3618109D01*
X93573813Y-3813120D01*
X93416201Y-4033420D01*
X93292342Y-4274329D01*
X93204881Y-4530695D01*
X93155680Y-4797066D01*
X93145787Y-5067764D01*
X6849259Y-5067764D01*
X6854212Y-4932235D01*
X6824586Y-4662982D01*
X6756072Y-4400912D01*
X6650130Y-4151610D01*
X6509018Y-3920390D01*
X6509017Y-3920388D01*
X6335746Y-3712181D01*
X6230759Y-3618112D01*
X6134002Y-3531418D01*
X5908090Y-3381956D01*
X5908086Y-3381954D01*
X5662822Y-3266978D01*
X5403437Y-3188941D01*
X5403431Y-3188940D01*
X5135439Y-3149500D01*
X4932369Y-3149500D01*
X4930120Y-3149664D01*
X4930109Y-3149665D01*
X4729843Y-3164322D01*
X4465449Y-3223219D01*
X4212441Y-3319986D01*
X3976223Y-3452559D01*
X3761825Y-3618109D01*
X3573813Y-3813120D01*
X3416201Y-4033420D01*
X3292342Y-4274329D01*
X3204881Y-4530695D01*
X3155680Y-4797066D01*
X3145787Y-5067764D01*
X1270000Y-5067764D01*
X1270000Y-1394000D01*
X1289685Y-1326961D01*
X1342489Y-1281206D01*
X1394000Y-1270000D01*
X98923314Y-1270000D01*
X98990353Y-1289685D01*
G37*
%TD.AperFunction*%
%TD*%
M02*
